<?xml version="1.0" encoding="UTF-8" standalone="no"?><svg xmlns="http://www.w3.org/2000/svg" xmlns:xlink="http://www.w3.org/1999/xlink" clip-rule="evenodd" stroke-miterlimit="10" viewBox="0 0 1920 1080"><desc>SVG generated by Keynote</desc><defs></defs><g transform="matrix(1.00, 0.00, -0.00, -1.00, 0.0, 1080.0)"><path d="M 0.0 1080.0 L 1920.0 1080.0 L 1920.0 0.0 L 0.0 0.0 Z M 0.0 1080.0 " fill="#FEFFFF"></path><path d="M 0.0 1080.0 L 1920.0 1080.0 L 1920.0 980.0 L 0.0 980.0 Z M 0.0 1080.0 " fill="#5EBAFD"></path><text xml:space="preserve" font-family="Helvetica-Light,Helvetica" font-size="52.2" fill="#FEFFFE" transform="matrix(1.00, 0.00, -0.00, -1.00, 135.0, 1010.0)">P</text><text xml:space="preserve" font-family="Helvetica-Light,Helvetica" font-size="52.2" fill="#FEFFFE" transform="matrix(1.00, 0.00, -0.00, -1.00, 166.9, 1010.0)">o</text><text xml:space="preserve" font-family="Helvetica-Light,Helvetica" font-size="52.2" fill="#FEFFFE" transform="matrix(1.00, 0.00, -0.00, -1.00, 195.9, 1010.0)">t</text><text xml:space="preserve" font-family="Helvetica-Light,Helvetica" font-size="52.2" fill="#FEFFFE" transform="matrix(1.00, 0.00, -0.00, -1.00, 210.4, 1010.0)">a</text><text xml:space="preserve" font-family="Helvetica-Light,Helvetica" font-size="52.2" fill="#FEFFFE" transform="matrix(1.00, 0.00, -0.00, -1.00, 239.5, 1010.0)">t</text><text xml:space="preserve" font-family="Helvetica-Light,Helvetica" font-size="52.2" fill="#FEFFFE" transform="matrix(1.00, 0.00, -0.00, -1.00, 254.0, 1010.0)">o</text><text xml:space="preserve" font-family="Helvetica-Light,Helvetica" font-size="52.2" fill="#FEFFFE" transform="matrix(1.00, 0.00, -0.00, -1.00, 283.0, 1010.0)">r</text><text xml:space="preserve" font-family="Helvetica-Light,Helvetica" font-size="52.2" fill="#FEFFFE" transform="matrix(1.00, 0.00, -0.00, -1.00, 300.4, 1010.0)"> </text><text xml:space="preserve" font-family="Helvetica-Light,Helvetica" font-size="52.2" fill="#FEFFFE" transform="matrix(1.00, 0.00, -0.00, -1.00, 314.9, 1010.0)">L</text><text xml:space="preserve" font-family="Helvetica-Light,Helvetica" font-size="52.2" fill="#FEFFFE" transform="matrix(1.00, 0.00, -0.00, -1.00, 343.9, 1010.0)">a</text><text xml:space="preserve" font-family="Helvetica-Light,Helvetica" font-size="52.2" fill="#FEFFFE" transform="matrix(1.00, 0.00, -0.00, -1.00, 372.9, 1010.0)">t</text><text xml:space="preserve" font-family="Helvetica-Light,Helvetica" font-size="52.2" fill="#FEFFFE" transform="matrix(1.00, 0.00, -0.00, -1.00, 387.4, 1010.0)">e</text><text xml:space="preserve" font-family="Helvetica-Light,Helvetica" font-size="52.2" fill="#FEFFFE" transform="matrix(1.00, 0.00, -0.00, -1.00, 416.5, 1010.0)">n</text><text xml:space="preserve" font-family="Helvetica-Light,Helvetica" font-size="52.2" fill="#FEFFFE" transform="matrix(1.00, 0.00, -0.00, -1.00, 445.5, 1010.0)">c</text><text xml:space="preserve" font-family="Helvetica-Light,Helvetica" font-size="52.2" fill="#FEFFFE" transform="matrix(1.00, 0.00, -0.00, -1.00, 474.5, 1010.0)">y</text><text xml:space="preserve" font-family="Helvetica-Light,Helvetica" font-size="52.2" fill="#FEFFFE" transform="matrix(1.00, 0.00, -0.00, -1.00, 500.6, 1010.0)"> </text><text xml:space="preserve" font-family="Helvetica-Light,Helvetica" font-size="52.2" fill="#FEFFFE" transform="matrix(1.00, 0.00, -0.00, -1.00, 515.1, 1010.0)">T</text><text xml:space="preserve" font-family="Helvetica-Light,Helvetica" font-size="52.2" fill="#FEFFFE" transform="matrix(1.00, 0.00, -0.00, -1.00, 538.3, 1010.0)">e</text><text xml:space="preserve" font-family="Helvetica-Light,Helvetica" font-size="52.2" fill="#FEFFFE" transform="matrix(1.00, 0.00, -0.00, -1.00, 567.4, 1010.0)">s</text><text xml:space="preserve" font-family="Helvetica-Light,Helvetica" font-size="52.2" fill="#FEFFFE" transform="matrix(1.00, 0.00, -0.00, -1.00, 593.5, 1010.0)">t</text><g><clipPath id="clip0x7f84af9241b0"><path d="M 187.0 754.0 L 1733.0 754.0 L 1733.0 251.4 L 187.0 251.4 Z M 187.0 754.0 "></path></clipPath><g clip-path="url(#clip0x7f84af9241b0)"><g><clipPath id="clip0x7f84af924920"><path d="M 187.0 612.3 L 701.8 612.3 L 701.8 754.0 L 187.0 754.0 Z M 187.0 612.3 "></path></clipPath><g clip-path="url(#clip0x7f84af924920)"><text xml:space="preserve" font-family="Helvetica,Helvetica" font-size="36.0" fill="#000000" transform="matrix(1.00, 0.00, -0.00, -1.00, 191.0, 691.3)">L</text><text xml:space="preserve" font-family="Helvetica,Helvetica" font-size="36.0" fill="#000000" transform="matrix(1.00, 0.00, -0.00, -1.00, 211.0, 691.3)">o</text><text xml:space="preserve" font-family="Helvetica,Helvetica" font-size="36.0" fill="#000000" transform="matrix(1.00, 0.00, -0.00, -1.00, 231.1, 691.3)">c</text><text xml:space="preserve" font-family="Helvetica,Helvetica" font-size="36.0" fill="#000000" transform="matrix(1.00, 0.00, -0.00, -1.00, 249.1, 691.3)">a</text><text xml:space="preserve" font-family="Helvetica,Helvetica" font-size="36.0" fill="#000000" transform="matrix(1.00, 0.00, -0.00, -1.00, 269.1, 691.3)">l</text><text xml:space="preserve" font-family="Helvetica,Helvetica" font-size="36.0" fill="#000000" transform="matrix(1.00, 0.00, -0.00, -1.00, 277.1, 691.3)"> </text><text xml:space="preserve" font-family="Helvetica,Helvetica" font-size="36.0" fill="#000000" transform="matrix(1.00, 0.00, -0.00, -1.00, 287.1, 691.3)">I</text><text xml:space="preserve" font-family="Helvetica,Helvetica" font-size="36.0" fill="#000000" transform="matrix(1.00, 0.00, -0.00, -1.00, 297.1, 691.3)">n</text><text xml:space="preserve" font-family="Helvetica,Helvetica" font-size="36.0" fill="#000000" transform="matrix(1.00, 0.00, -0.00, -1.00, 317.1, 691.3)">t</text><text xml:space="preserve" font-family="Helvetica,Helvetica" font-size="36.0" fill="#000000" transform="matrix(1.00, 0.00, -0.00, -1.00, 327.1, 691.3)">e</text><text xml:space="preserve" font-family="Helvetica,Helvetica" font-size="36.0" fill="#000000" transform="matrix(1.00, 0.00, -0.00, -1.00, 347.1, 691.3)">r</text><text xml:space="preserve" font-family="Helvetica,Helvetica" font-size="36.0" fill="#000000" transform="matrix(1.00, 0.00, -0.00, -1.00, 359.1, 691.3)">f</text><text xml:space="preserve" font-family="Helvetica,Helvetica" font-size="36.0" fill="#000000" transform="matrix(1.00, 0.00, -0.00, -1.00, 369.1, 691.3)">a</text><text xml:space="preserve" font-family="Helvetica,Helvetica" font-size="36.0" fill="#000000" transform="matrix(1.00, 0.00, -0.00, -1.00, 389.1, 691.3)">c</text><text xml:space="preserve" font-family="Helvetica,Helvetica" font-size="36.0" fill="#000000" transform="matrix(1.00, 0.00, -0.00, -1.00, 407.1, 691.3)">e</text><text xml:space="preserve" font-family="Helvetica,Helvetica" font-size="36.0" fill="#000000" transform="matrix(1.00, 0.00, -0.00, -1.00, 427.2, 691.3)"> </text><text xml:space="preserve" font-family="Helvetica,Helvetica" font-size="36.0" fill="#000000" transform="matrix(1.00, 0.00, -0.00, -1.00, 191.0, 648.3)">(</text><text xml:space="preserve" font-family="Helvetica,Helvetica" font-size="36.0" fill="#000000" transform="matrix(1.00, 0.00, -0.00, -1.00, 203.0, 648.3)">p</text><text xml:space="preserve" font-family="Helvetica,Helvetica" font-size="36.0" fill="#000000" transform="matrix(1.00, 0.00, -0.00, -1.00, 223.0, 648.3)">i</text><text xml:space="preserve" font-family="Helvetica,Helvetica" font-size="36.0" fill="#000000" transform="matrix(1.00, 0.00, -0.00, -1.00, 231.0, 648.3)">n</text><text xml:space="preserve" font-family="Helvetica,Helvetica" font-size="36.0" fill="#000000" transform="matrix(1.00, 0.00, -0.00, -1.00, 251.1, 648.3)">g</text><text xml:space="preserve" font-family="Helvetica,Helvetica" font-size="36.0" fill="#000000" transform="matrix(1.00, 0.00, -0.00, -1.00, 271.1, 648.3)"> </text><text xml:space="preserve" font-family="Helvetica,Helvetica" font-size="36.0" fill="#000000" transform="matrix(1.00, 0.00, -0.00, -1.00, 281.1, 648.3)">1</text><text xml:space="preserve" font-family="Helvetica,Helvetica" font-size="36.0" fill="#000000" transform="matrix(1.00, 0.00, -0.00, -1.00, 301.1, 648.3)">9</text><text xml:space="preserve" font-family="Helvetica,Helvetica" font-size="36.0" fill="#000000" transform="matrix(1.00, 0.00, -0.00, -1.00, 321.1, 648.3)">2</text><text xml:space="preserve" font-family="Helvetica,Helvetica" font-size="36.0" fill="#000000" transform="matrix(1.00, 0.00, -0.00, -1.00, 341.2, 648.3)">.</text><text xml:space="preserve" font-family="Helvetica,Helvetica" font-size="36.0" fill="#000000" transform="matrix(1.00, 0.00, -0.00, -1.00, 351.2, 648.3)">1</text><text xml:space="preserve" font-family="Helvetica,Helvetica" font-size="36.0" fill="#000000" transform="matrix(1.00, 0.00, -0.00, -1.00, 371.2, 648.3)">6</text><text xml:space="preserve" font-family="Helvetica,Helvetica" font-size="36.0" fill="#000000" transform="matrix(1.00, 0.00, -0.00, -1.00, 391.2, 648.3)">8</text><text xml:space="preserve" font-family="Helvetica,Helvetica" font-size="36.0" fill="#000000" transform="matrix(1.00, 0.00, -0.00, -1.00, 411.2, 648.3)">.</text><text xml:space="preserve" font-family="Helvetica,Helvetica" font-size="36.0" fill="#000000" transform="matrix(1.00, 0.00, -0.00, -1.00, 421.2, 648.3)">6</text><text xml:space="preserve" font-family="Helvetica,Helvetica" font-size="36.0" fill="#000000" transform="matrix(1.00, 0.00, -0.00, -1.00, 441.3, 648.3)">4</text><text xml:space="preserve" font-family="Helvetica,Helvetica" font-size="36.0" fill="#000000" transform="matrix(1.00, 0.00, -0.00, -1.00, 461.3, 648.3)">.</text><text xml:space="preserve" font-family="Helvetica,Helvetica" font-size="36.0" fill="#000000" transform="matrix(1.00, 0.00, -0.00, -1.00, 471.3, 648.3)">1</text><text xml:space="preserve" font-family="Helvetica,Helvetica" font-size="36.0" fill="#000000" transform="matrix(1.00, 0.00, -0.00, -1.00, 491.3, 648.3)">3</text><text xml:space="preserve" font-family="Helvetica,Helvetica" font-size="36.0" fill="#000000" transform="matrix(1.00, 0.00, -0.00, -1.00, 511.3, 648.3)">0</text><text xml:space="preserve" font-family="Helvetica,Helvetica" font-size="36.0" fill="#000000" transform="matrix(1.00, 0.00, -0.00, -1.00, 531.4, 648.3)">)</text></g></g></g></g><g><clipPath id="clip0x7f84af92c970"><path d="M 187.0 754.0 L 1733.0 754.0 L 1733.0 251.4 L 187.0 251.4 Z M 187.0 754.0 "></path></clipPath><g clip-path="url(#clip0x7f84af92c970)"><g><clipPath id="clip0x7f84af934980"><path d="M 702.8 612.3 L 1217.2 612.3 L 1217.2 754.0 L 702.8 754.0 Z M 702.8 612.3 "></path></clipPath><g clip-path="url(#clip0x7f84af934980)"><text xml:space="preserve" font-family="Helvetica,Helvetica" font-size="36.0" fill="#000000" transform="matrix(1.00, 0.00, -0.00, -1.00, 706.8, 691.3)">T</text><text xml:space="preserve" font-family="Helvetica,Helvetica" font-size="36.0" fill="#000000" transform="matrix(1.00, 0.00, -0.00, -1.00, 724.8, 691.3)">o</text><text xml:space="preserve" font-family="Helvetica,Helvetica" font-size="36.0" fill="#000000" transform="matrix(1.00, 0.00, -0.00, -1.00, 744.9, 691.3)">r</text><text xml:space="preserve" font-family="Helvetica,Helvetica" font-size="36.0" fill="#000000" transform="matrix(1.00, 0.00, -0.00, -1.00, 756.8, 691.3)"> </text><text xml:space="preserve" font-family="Helvetica,Helvetica" font-size="36.0" fill="#000000" transform="matrix(1.00, 0.00, -0.00, -1.00, 766.8, 691.3)">I</text><text xml:space="preserve" font-family="Helvetica,Helvetica" font-size="36.0" fill="#000000" transform="matrix(1.00, 0.00, -0.00, -1.00, 776.8, 691.3)">n</text><text xml:space="preserve" font-family="Helvetica,Helvetica" font-size="36.0" fill="#000000" transform="matrix(1.00, 0.00, -0.00, -1.00, 796.9, 691.3)">t</text><text xml:space="preserve" font-family="Helvetica,Helvetica" font-size="36.0" fill="#000000" transform="matrix(1.00, 0.00, -0.00, -1.00, 806.9, 691.3)">e</text><text xml:space="preserve" font-family="Helvetica,Helvetica" font-size="36.0" fill="#000000" transform="matrix(1.00, 0.00, -0.00, -1.00, 826.9, 691.3)">r</text><text xml:space="preserve" font-family="Helvetica,Helvetica" font-size="36.0" fill="#000000" transform="matrix(1.00, 0.00, -0.00, -1.00, 838.9, 691.3)">f</text><text xml:space="preserve" font-family="Helvetica,Helvetica" font-size="36.0" fill="#000000" transform="matrix(1.00, 0.00, -0.00, -1.00, 848.9, 691.3)">a</text><text xml:space="preserve" font-family="Helvetica,Helvetica" font-size="36.0" fill="#000000" transform="matrix(1.00, 0.00, -0.00, -1.00, 868.9, 691.3)">c</text><text xml:space="preserve" font-family="Helvetica,Helvetica" font-size="36.0" fill="#000000" transform="matrix(1.00, 0.00, -0.00, -1.00, 886.9, 691.3)">e</text><text xml:space="preserve" font-family="Helvetica,Helvetica" font-size="36.0" fill="#000000" transform="matrix(1.00, 0.00, -0.00, -1.00, 906.9, 691.3)"> </text><text xml:space="preserve" font-family="Helvetica,Helvetica" font-size="36.0" fill="#000000" transform="matrix(1.00, 0.00, -0.00, -1.00, 916.9, 691.3)">:</text><text xml:space="preserve" font-family="Helvetica,Helvetica" font-size="36.0" fill="#000000" transform="matrix(1.00, 0.00, -0.00, -1.00, 926.9, 691.3)"> </text><text xml:space="preserve" font-family="Helvetica,Helvetica" font-size="36.0" fill="#000000" transform="matrix(1.00, 0.00, -0.00, -1.00, 936.9, 691.3)">L</text><text xml:space="preserve" font-family="Helvetica,Helvetica" font-size="36.0" fill="#000000" transform="matrix(1.00, 0.00, -0.00, -1.00, 956.9, 691.3)">o</text><text xml:space="preserve" font-family="Helvetica,Helvetica" font-size="36.0" fill="#000000" transform="matrix(1.00, 0.00, -0.00, -1.00, 977.0, 691.3)">c</text><text xml:space="preserve" font-family="Helvetica,Helvetica" font-size="36.0" fill="#000000" transform="matrix(1.00, 0.00, -0.00, -1.00, 995.0, 691.3)">a</text><text xml:space="preserve" font-family="Helvetica,Helvetica" font-size="36.0" fill="#000000" transform="matrix(1.00, 0.00, -0.00, -1.00, 1015.0, 691.3)">l</text><text xml:space="preserve" font-family="Helvetica,Helvetica" font-size="36.0" fill="#000000" transform="matrix(1.00, 0.00, -0.00, -1.00, 706.8, 648.3)">(</text><text xml:space="preserve" font-family="Helvetica,Helvetica" font-size="36.0" fill="#000000" transform="matrix(1.00, 0.00, -0.00, -1.00, 718.8, 648.3)">p</text><text xml:space="preserve" font-family="Helvetica,Helvetica" font-size="36.0" fill="#000000" transform="matrix(1.00, 0.00, -0.00, -1.00, 738.9, 648.3)">i</text><text xml:space="preserve" font-family="Helvetica,Helvetica" font-size="36.0" fill="#000000" transform="matrix(1.00, 0.00, -0.00, -1.00, 746.9, 648.3)">n</text><text xml:space="preserve" font-family="Helvetica,Helvetica" font-size="36.0" fill="#000000" transform="matrix(1.00, 0.00, -0.00, -1.00, 766.9, 648.3)">g</text><text xml:space="preserve" font-family="Helvetica,Helvetica" font-size="36.0" fill="#000000" transform="matrix(1.00, 0.00, -0.00, -1.00, 786.9, 648.3)"> </text><text xml:space="preserve" font-family="Helvetica,Helvetica" font-size="36.0" fill="#000000" transform="matrix(1.00, 0.00, -0.00, -1.00, 796.9, 648.3)">1</text><text xml:space="preserve" font-family="Helvetica,Helvetica" font-size="36.0" fill="#000000" transform="matrix(1.00, 0.00, -0.00, -1.00, 816.9, 648.3)">7</text><text xml:space="preserve" font-family="Helvetica,Helvetica" font-size="36.0" fill="#000000" transform="matrix(1.00, 0.00, -0.00, -1.00, 837.0, 648.3)">2</text><text xml:space="preserve" font-family="Helvetica,Helvetica" font-size="36.0" fill="#000000" transform="matrix(1.00, 0.00, -0.00, -1.00, 857.0, 648.3)">.</text><text xml:space="preserve" font-family="Helvetica,Helvetica" font-size="36.0" fill="#000000" transform="matrix(1.00, 0.00, -0.00, -1.00, 867.0, 648.3)">2</text><text xml:space="preserve" font-family="Helvetica,Helvetica" font-size="36.0" fill="#000000" transform="matrix(1.00, 0.00, -0.00, -1.00, 887.0, 648.3)">7</text><text xml:space="preserve" font-family="Helvetica,Helvetica" font-size="36.0" fill="#000000" transform="matrix(1.00, 0.00, -0.00, -1.00, 907.0, 648.3)">.</text><text xml:space="preserve" font-family="Helvetica,Helvetica" font-size="36.0" fill="#000000" transform="matrix(1.00, 0.00, -0.00, -1.00, 917.0, 648.3)">0</text><text xml:space="preserve" font-family="Helvetica,Helvetica" font-size="36.0" fill="#000000" transform="matrix(1.00, 0.00, -0.00, -1.00, 937.1, 648.3)">.</text><text xml:space="preserve" font-family="Helvetica,Helvetica" font-size="36.0" fill="#000000" transform="matrix(1.00, 0.00, -0.00, -1.00, 947.1, 648.3)">1</text><text xml:space="preserve" font-family="Helvetica,Helvetica" font-size="36.0" fill="#000000" transform="matrix(1.00, 0.00, -0.00, -1.00, 967.1, 648.3)">)</text></g></g></g></g><g><clipPath id="clip0x7f84af9354e0"><path d="M 187.0 754.0 L 1733.0 754.0 L 1733.0 251.4 L 187.0 251.4 Z M 187.0 754.0 "></path></clipPath><g clip-path="url(#clip0x7f84af9354e0)"><g><clipPath id="clip0x7f84af944f10"><path d="M 1218.2 612.3 L 1733.0 612.3 L 1733.0 754.0 L 1218.2 754.0 Z M 1218.2 612.3 "></path></clipPath><g clip-path="url(#clip0x7f84af944f10)"><text xml:space="preserve" font-family="Helvetica,Helvetica" font-size="36.0" fill="#000000" transform="matrix(1.00, 0.00, -0.00, -1.00, 1222.2, 691.3)">T</text><text xml:space="preserve" font-family="Helvetica,Helvetica" font-size="36.0" fill="#000000" transform="matrix(1.00, 0.00, -0.00, -1.00, 1240.2, 691.3)">o</text><text xml:space="preserve" font-family="Helvetica,Helvetica" font-size="36.0" fill="#000000" transform="matrix(1.00, 0.00, -0.00, -1.00, 1260.2, 691.3)">r</text><text xml:space="preserve" font-family="Helvetica,Helvetica" font-size="36.0" fill="#000000" transform="matrix(1.00, 0.00, -0.00, -1.00, 1272.2, 691.3)"> </text><text xml:space="preserve" font-family="Helvetica,Helvetica" font-size="36.0" fill="#000000" transform="matrix(1.00, 0.00, -0.00, -1.00, 1282.2, 691.3)">I</text><text xml:space="preserve" font-family="Helvetica,Helvetica" font-size="36.0" fill="#000000" transform="matrix(1.00, 0.00, -0.00, -1.00, 1292.2, 691.3)">n</text><text xml:space="preserve" font-family="Helvetica,Helvetica" font-size="36.0" fill="#000000" transform="matrix(1.00, 0.00, -0.00, -1.00, 1312.2, 691.3)">t</text><text xml:space="preserve" font-family="Helvetica,Helvetica" font-size="36.0" fill="#000000" transform="matrix(1.00, 0.00, -0.00, -1.00, 1322.2, 691.3)">e</text><text xml:space="preserve" font-family="Helvetica,Helvetica" font-size="36.0" fill="#000000" transform="matrix(1.00, 0.00, -0.00, -1.00, 1342.2, 691.3)">r</text><text xml:space="preserve" font-family="Helvetica,Helvetica" font-size="36.0" fill="#000000" transform="matrix(1.00, 0.00, -0.00, -1.00, 1354.2, 691.3)">f</text><text xml:space="preserve" font-family="Helvetica,Helvetica" font-size="36.0" fill="#000000" transform="matrix(1.00, 0.00, -0.00, -1.00, 1364.2, 691.3)">a</text><text xml:space="preserve" font-family="Helvetica,Helvetica" font-size="36.0" fill="#000000" transform="matrix(1.00, 0.00, -0.00, -1.00, 1384.2, 691.3)">c</text><text xml:space="preserve" font-family="Helvetica,Helvetica" font-size="36.0" fill="#000000" transform="matrix(1.00, 0.00, -0.00, -1.00, 1402.2, 691.3)">e</text><text xml:space="preserve" font-family="Helvetica,Helvetica" font-size="36.0" fill="#000000" transform="matrix(1.00, 0.00, -0.00, -1.00, 1422.3, 691.3)"> </text><text xml:space="preserve" font-family="Helvetica,Helvetica" font-size="36.0" fill="#000000" transform="matrix(1.00, 0.00, -0.00, -1.00, 1432.3, 691.3)">:</text><text xml:space="preserve" font-family="Helvetica,Helvetica" font-size="36.0" fill="#000000" transform="matrix(1.00, 0.00, -0.00, -1.00, 1442.2, 691.3)"> </text><text xml:space="preserve" font-family="Helvetica,Helvetica" font-size="36.0" fill="#000000" transform="matrix(1.00, 0.00, -0.00, -1.00, 1452.2, 691.3)">L</text><text xml:space="preserve" font-family="Helvetica,Helvetica" font-size="36.0" fill="#000000" transform="matrix(1.00, 0.00, -0.00, -1.00, 1472.3, 691.3)">i</text><text xml:space="preserve" font-family="Helvetica,Helvetica" font-size="36.0" fill="#000000" transform="matrix(1.00, 0.00, -0.00, -1.00, 1480.3, 691.3)">v</text><text xml:space="preserve" font-family="Helvetica,Helvetica" font-size="36.0" fill="#000000" transform="matrix(1.00, 0.00, -0.00, -1.00, 1498.3, 691.3)">e</text><text xml:space="preserve" font-family="Helvetica,Helvetica" font-size="36.0" fill="#000000" transform="matrix(1.00, 0.00, -0.00, -1.00, 1518.3, 691.3)"> </text><text xml:space="preserve" font-family="Helvetica,Helvetica" font-size="36.0" fill="#000000" transform="matrix(1.00, 0.00, -0.00, -1.00, 1222.2, 648.3)">(</text><text xml:space="preserve" font-family="Helvetica,Helvetica" font-size="36.0" fill="#000000" transform="matrix(1.00, 0.00, -0.00, -1.00, 1234.2, 648.3)">p</text><text xml:space="preserve" font-family="Helvetica,Helvetica" font-size="36.0" fill="#000000" transform="matrix(1.00, 0.00, -0.00, -1.00, 1254.2, 648.3)">i</text><text xml:space="preserve" font-family="Helvetica,Helvetica" font-size="36.0" fill="#000000" transform="matrix(1.00, 0.00, -0.00, -1.00, 1262.2, 648.3)">n</text><text xml:space="preserve" font-family="Helvetica,Helvetica" font-size="36.0" fill="#000000" transform="matrix(1.00, 0.00, -0.00, -1.00, 1282.2, 648.3)">g</text><text xml:space="preserve" font-family="Helvetica,Helvetica" font-size="36.0" fill="#000000" transform="matrix(1.00, 0.00, -0.00, -1.00, 1302.2, 648.3)"> </text><text xml:space="preserve" font-family="Helvetica,Helvetica" font-size="36.0" fill="#000000" transform="matrix(1.00, 0.00, -0.00, -1.00, 1312.2, 648.3)">1</text><text xml:space="preserve" font-family="Helvetica,Helvetica" font-size="36.0" fill="#000000" transform="matrix(1.00, 0.00, -0.00, -1.00, 1332.3, 648.3)">7</text><text xml:space="preserve" font-family="Helvetica,Helvetica" font-size="36.0" fill="#000000" transform="matrix(1.00, 0.00, -0.00, -1.00, 1352.3, 648.3)">2</text><text xml:space="preserve" font-family="Helvetica,Helvetica" font-size="36.0" fill="#000000" transform="matrix(1.00, 0.00, -0.00, -1.00, 1372.3, 648.3)">.</text><text xml:space="preserve" font-family="Helvetica,Helvetica" font-size="36.0" fill="#000000" transform="matrix(1.00, 0.00, -0.00, -1.00, 1382.3, 648.3)">2</text><text xml:space="preserve" font-family="Helvetica,Helvetica" font-size="36.0" fill="#000000" transform="matrix(1.00, 0.00, -0.00, -1.00, 1402.4, 648.3)">7</text><text xml:space="preserve" font-family="Helvetica,Helvetica" font-size="36.0" fill="#000000" transform="matrix(1.00, 0.00, -0.00, -1.00, 1422.4, 648.3)">.</text><text xml:space="preserve" font-family="Helvetica,Helvetica" font-size="36.0" fill="#000000" transform="matrix(1.00, 0.00, -0.00, -1.00, 1432.4, 648.3)">0</text><text xml:space="preserve" font-family="Helvetica,Helvetica" font-size="36.0" fill="#000000" transform="matrix(1.00, 0.00, -0.00, -1.00, 1452.4, 648.3)">.</text><text xml:space="preserve" font-family="Helvetica,Helvetica" font-size="36.0" fill="#000000" transform="matrix(1.00, 0.00, -0.00, -1.00, 1462.4, 648.3)">1</text><text xml:space="preserve" font-family="Helvetica,Helvetica" font-size="36.0" fill="#000000" transform="matrix(1.00, 0.00, -0.00, -1.00, 1482.4, 648.3)">)</text></g></g></g></g><g><clipPath id="clip0x7f84af9459d0"><path d="M 187.0 754.0 L 1733.0 754.0 L 1733.0 251.4 L 187.0 251.4 Z M 187.0 754.0 "></path></clipPath><g clip-path="url(#clip0x7f84af9459d0)"><g><clipPath id="clip0x7f84af9555f0"><path d="M 187.0 540.2 L 701.8 540.2 L 701.8 611.3 L 187.0 611.3 Z M 187.0 540.2 "></path></clipPath><g clip-path="url(#clip0x7f84af9555f0)"><text xml:space="preserve" font-family="Helvetica-Light,Helvetica" font-size="36.0" fill="#000000" transform="matrix(1.00, 0.00, -0.00, -1.00, 191.0, 562.6)">0</text><text xml:space="preserve" font-family="Helvetica-Light,Helvetica" font-size="36.0" fill="#000000" transform="matrix(1.00, 0.00, -0.00, -1.00, 211.0, 562.6)">m</text><text xml:space="preserve" font-family="Helvetica-Light,Helvetica" font-size="36.0" fill="#000000" transform="matrix(1.00, 0.00, -0.00, -1.00, 241.0, 562.6)">s</text></g></g></g></g><g><clipPath id="clip0x7f84af9574a0"><path d="M 187.0 754.0 L 1733.0 754.0 L 1733.0 251.4 L 187.0 251.4 Z M 187.0 754.0 "></path></clipPath><g clip-path="url(#clip0x7f84af9574a0)"><g><clipPath id="clip0x7f84af957cc0"><path d="M 702.8 540.2 L 1217.2 540.2 L 1217.2 611.3 L 702.8 611.3 Z M 702.8 540.2 "></path></clipPath><g clip-path="url(#clip0x7f84af957cc0)"><text xml:space="preserve" font-family="Helvetica-Light,Helvetica" font-size="36.0" fill="#000000" transform="matrix(1.00, 0.00, -0.00, -1.00, 706.8, 562.6)">9</text><text xml:space="preserve" font-family="Helvetica-Light,Helvetica" font-size="36.0" fill="#000000" transform="matrix(1.00, 0.00, -0.00, -1.00, 726.8, 562.6)">8</text><text xml:space="preserve" font-family="Helvetica-Light,Helvetica" font-size="36.0" fill="#000000" transform="matrix(1.00, 0.00, -0.00, -1.00, 746.9, 562.6)">m</text><text xml:space="preserve" font-family="Helvetica-Light,Helvetica" font-size="36.0" fill="#000000" transform="matrix(1.00, 0.00, -0.00, -1.00, 776.9, 562.6)">s</text></g></g></g></g><g><clipPath id="clip0x7f84af95a170"><path d="M 187.0 754.0 L 1733.0 754.0 L 1733.0 251.4 L 187.0 251.4 Z M 187.0 754.0 "></path></clipPath><g clip-path="url(#clip0x7f84af95a170)"><g><clipPath id="clip0x7f84af95a8b0"><path d="M 1218.2 540.2 L 1733.0 540.2 L 1733.0 611.3 L 1218.2 611.3 Z M 1218.2 540.2 "></path></clipPath><g clip-path="url(#clip0x7f84af95a8b0)"><text xml:space="preserve" font-family="Helvetica-Light,Helvetica" font-size="36.0" fill="#000000" transform="matrix(1.00, 0.00, -0.00, -1.00, 1222.2, 562.6)">1</text><text xml:space="preserve" font-family="Helvetica-Light,Helvetica" font-size="36.0" fill="#000000" transform="matrix(1.00, 0.00, -0.00, -1.00, 1242.2, 562.6)">0</text><text xml:space="preserve" font-family="Helvetica-Light,Helvetica" font-size="36.0" fill="#000000" transform="matrix(1.00, 0.00, -0.00, -1.00, 1262.2, 562.6)">0</text><text xml:space="preserve" font-family="Helvetica-Light,Helvetica" font-size="36.0" fill="#000000" transform="matrix(1.00, 0.00, -0.00, -1.00, 1282.2, 562.6)">3</text><text xml:space="preserve" font-family="Helvetica-Light,Helvetica" font-size="36.0" fill="#000000" transform="matrix(1.00, 0.00, -0.00, -1.00, 1302.2, 562.6)">m</text><text xml:space="preserve" font-family="Helvetica-Light,Helvetica" font-size="36.0" fill="#000000" transform="matrix(1.00, 0.00, -0.00, -1.00, 1332.2, 562.6)">s</text></g></g></g></g><g><clipPath id="clip0x7f84af95d990"><path d="M 187.0 754.0 L 1733.0 754.0 L 1733.0 251.4 L 187.0 251.4 Z M 187.0 754.0 "></path></clipPath><g clip-path="url(#clip0x7f84af95d990)"><g><clipPath id="clip0x7f84af95e0e0"><path d="M 187.0 468.1 L 701.8 468.1 L 701.8 539.2 L 187.0 539.2 Z M 187.0 468.1 "></path></clipPath><g clip-path="url(#clip0x7f84af95e0e0)"><text xml:space="preserve" font-family="Helvetica-Light,Helvetica" font-size="36.0" fill="#000000" transform="matrix(1.00, 0.00, -0.00, -1.00, 191.0, 490.5)">0</text><text xml:space="preserve" font-family="Helvetica-Light,Helvetica" font-size="36.0" fill="#000000" transform="matrix(1.00, 0.00, -0.00, -1.00, 211.0, 490.5)">m</text><text xml:space="preserve" font-family="Helvetica-Light,Helvetica" font-size="36.0" fill="#000000" transform="matrix(1.00, 0.00, -0.00, -1.00, 241.0, 490.5)">s</text></g></g></g></g><g><clipPath id="clip0x7f84af95ff90"><path d="M 187.0 754.0 L 1733.0 754.0 L 1733.0 251.4 L 187.0 251.4 Z M 187.0 754.0 "></path></clipPath><g clip-path="url(#clip0x7f84af95ff90)"><g><clipPath id="clip0x7f84af960770"><path d="M 702.8 468.1 L 1217.2 468.1 L 1217.2 539.2 L 702.8 539.2 Z M 702.8 468.1 "></path></clipPath><g clip-path="url(#clip0x7f84af960770)"><text xml:space="preserve" font-family="Helvetica-Light,Helvetica" font-size="36.0" fill="#000000" transform="matrix(1.00, 0.00, -0.00, -1.00, 706.8, 490.5)">8</text><text xml:space="preserve" font-family="Helvetica-Light,Helvetica" font-size="36.0" fill="#000000" transform="matrix(1.00, 0.00, -0.00, -1.00, 726.8, 490.5)">7</text><text xml:space="preserve" font-family="Helvetica-Light,Helvetica" font-size="36.0" fill="#000000" transform="matrix(1.00, 0.00, -0.00, -1.00, 746.9, 490.5)">m</text><text xml:space="preserve" font-family="Helvetica-Light,Helvetica" font-size="36.0" fill="#000000" transform="matrix(1.00, 0.00, -0.00, -1.00, 776.9, 490.5)">s</text></g></g></g></g><g><clipPath id="clip0x7f84af962be0"><path d="M 187.0 754.0 L 1733.0 754.0 L 1733.0 251.4 L 187.0 251.4 Z M 187.0 754.0 "></path></clipPath><g clip-path="url(#clip0x7f84af962be0)"><g><clipPath id="clip0x7f84af963320"><path d="M 1218.2 468.1 L 1733.0 468.1 L 1733.0 539.2 L 1218.2 539.2 Z M 1218.2 468.1 "></path></clipPath><g clip-path="url(#clip0x7f84af963320)"><text xml:space="preserve" font-family="Helvetica-Light,Helvetica" font-size="36.0" fill="#000000" transform="matrix(1.00, 0.00, -0.00, -1.00, 1222.2, 490.5)">1</text><text xml:space="preserve" font-family="Helvetica-Light,Helvetica" font-size="36.0" fill="#000000" transform="matrix(1.00, 0.00, -0.00, -1.00, 1242.2, 490.5)">0</text><text xml:space="preserve" font-family="Helvetica-Light,Helvetica" font-size="36.0" fill="#000000" transform="matrix(1.00, 0.00, -0.00, -1.00, 1262.2, 490.5)">2</text><text xml:space="preserve" font-family="Helvetica-Light,Helvetica" font-size="36.0" fill="#000000" transform="matrix(1.00, 0.00, -0.00, -1.00, 1282.2, 490.5)">5</text><text xml:space="preserve" font-family="Helvetica-Light,Helvetica" font-size="36.0" fill="#000000" transform="matrix(1.00, 0.00, -0.00, -1.00, 1302.2, 490.5)">m</text><text xml:space="preserve" font-family="Helvetica-Light,Helvetica" font-size="36.0" fill="#000000" transform="matrix(1.00, 0.00, -0.00, -1.00, 1332.2, 490.5)">s</text></g></g></g></g><g><clipPath id="clip0x7f84af966400"><path d="M 187.0 754.0 L 1733.0 754.0 L 1733.0 251.4 L 187.0 251.4 Z M 187.0 754.0 "></path></clipPath><g clip-path="url(#clip0x7f84af966400)"><g><clipPath id="clip0x7f84af966b50"><path d="M 187.0 396.1 L 701.8 396.1 L 701.8 467.1 L 187.0 467.1 Z M 187.0 396.1 "></path></clipPath><g clip-path="url(#clip0x7f84af966b50)"><text xml:space="preserve" font-family="Helvetica-Light,Helvetica" font-size="36.0" fill="#000000" transform="matrix(1.00, 0.00, -0.00, -1.00, 191.0, 418.4)">0</text><text xml:space="preserve" font-family="Helvetica-Light,Helvetica" font-size="36.0" fill="#000000" transform="matrix(1.00, 0.00, -0.00, -1.00, 211.0, 418.4)">m</text><text xml:space="preserve" font-family="Helvetica-Light,Helvetica" font-size="36.0" fill="#000000" transform="matrix(1.00, 0.00, -0.00, -1.00, 241.0, 418.4)">s</text></g></g></g></g><g><clipPath id="clip0x7f84af968a00"><path d="M 187.0 754.0 L 1733.0 754.0 L 1733.0 251.4 L 187.0 251.4 Z M 187.0 754.0 "></path></clipPath><g clip-path="url(#clip0x7f84af968a00)"><g><clipPath id="clip0x7f84af969150"><path d="M 702.8 396.1 L 1217.2 396.1 L 1217.2 467.1 L 702.8 467.1 Z M 702.8 396.1 "></path></clipPath><g clip-path="url(#clip0x7f84af969150)"><text xml:space="preserve" font-family="Helvetica-Light,Helvetica" font-size="36.0" fill="#000000" transform="matrix(1.00, 0.00, -0.00, -1.00, 706.8, 418.4)">7</text><text xml:space="preserve" font-family="Helvetica-Light,Helvetica" font-size="36.0" fill="#000000" transform="matrix(1.00, 0.00, -0.00, -1.00, 726.8, 418.4)">2</text><text xml:space="preserve" font-family="Helvetica-Light,Helvetica" font-size="36.0" fill="#000000" transform="matrix(1.00, 0.00, -0.00, -1.00, 746.9, 418.4)">m</text><text xml:space="preserve" font-family="Helvetica-Light,Helvetica" font-size="36.0" fill="#000000" transform="matrix(1.00, 0.00, -0.00, -1.00, 776.9, 418.4)">s</text></g></g></g></g><g><clipPath id="clip0x7f84af96b600"><path d="M 187.0 754.0 L 1733.0 754.0 L 1733.0 251.4 L 187.0 251.4 Z M 187.0 754.0 "></path></clipPath><g clip-path="url(#clip0x7f84af96b600)"><g><clipPath id="clip0x7f84af96bd40"><path d="M 1218.2 396.1 L 1733.0 396.1 L 1733.0 467.1 L 1218.2 467.1 Z M 1218.2 396.1 "></path></clipPath><g clip-path="url(#clip0x7f84af96bd40)"><text xml:space="preserve" font-family="Helvetica-Light,Helvetica" font-size="36.0" fill="#000000" transform="matrix(1.00, 0.00, -0.00, -1.00, 1222.2, 418.4)">1</text><text xml:space="preserve" font-family="Helvetica-Light,Helvetica" font-size="36.0" fill="#000000" transform="matrix(1.00, 0.00, -0.00, -1.00, 1242.2, 418.4)">0</text><text xml:space="preserve" font-family="Helvetica-Light,Helvetica" font-size="36.0" fill="#000000" transform="matrix(1.00, 0.00, -0.00, -1.00, 1262.2, 418.4)">0</text><text xml:space="preserve" font-family="Helvetica-Light,Helvetica" font-size="36.0" fill="#000000" transform="matrix(1.00, 0.00, -0.00, -1.00, 1282.2, 418.4)">6</text><text xml:space="preserve" font-family="Helvetica-Light,Helvetica" font-size="36.0" fill="#000000" transform="matrix(1.00, 0.00, -0.00, -1.00, 1302.2, 418.4)">m</text><text xml:space="preserve" font-family="Helvetica-Light,Helvetica" font-size="36.0" fill="#000000" transform="matrix(1.00, 0.00, -0.00, -1.00, 1332.2, 418.4)">s</text></g></g></g></g><g><clipPath id="clip0x7f84af96ee20"><path d="M 187.0 754.0 L 1733.0 754.0 L 1733.0 251.4 L 187.0 251.4 Z M 187.0 754.0 "></path></clipPath><g clip-path="url(#clip0x7f84af96ee20)"><g><clipPath id="clip0x7f84af96f5f0"><path d="M 187.0 324.0 L 701.8 324.0 L 701.8 395.1 L 187.0 395.1 Z M 187.0 324.0 "></path></clipPath><g clip-path="url(#clip0x7f84af96f5f0)"><text xml:space="preserve" font-family="Helvetica-Light,Helvetica" font-size="36.0" fill="#000000" transform="matrix(1.00, 0.00, -0.00, -1.00, 191.0, 346.3)">0</text><text xml:space="preserve" font-family="Helvetica-Light,Helvetica" font-size="36.0" fill="#000000" transform="matrix(1.00, 0.00, -0.00, -1.00, 211.0, 346.3)">m</text><text xml:space="preserve" font-family="Helvetica-Light,Helvetica" font-size="36.0" fill="#000000" transform="matrix(1.00, 0.00, -0.00, -1.00, 241.0, 346.3)">s</text></g></g></g></g><g><clipPath id="clip0x7f84af9714a0"><path d="M 187.0 754.0 L 1733.0 754.0 L 1733.0 251.4 L 187.0 251.4 Z M 187.0 754.0 "></path></clipPath><g clip-path="url(#clip0x7f84af9714a0)"><g><clipPath id="clip0x7f84af971bf0"><path d="M 702.8 324.0 L 1217.2 324.0 L 1217.2 395.1 L 702.8 395.1 Z M 702.8 324.0 "></path></clipPath><g clip-path="url(#clip0x7f84af971bf0)"><text xml:space="preserve" font-family="Helvetica-Light,Helvetica" font-size="36.0" fill="#000000" transform="matrix(1.00, 0.00, -0.00, -1.00, 706.8, 346.3)">6</text><text xml:space="preserve" font-family="Helvetica-Light,Helvetica" font-size="36.0" fill="#000000" transform="matrix(1.00, 0.00, -0.00, -1.00, 726.8, 346.3)">4</text><text xml:space="preserve" font-family="Helvetica-Light,Helvetica" font-size="36.0" fill="#000000" transform="matrix(1.00, 0.00, -0.00, -1.00, 746.9, 346.3)">m</text><text xml:space="preserve" font-family="Helvetica-Light,Helvetica" font-size="36.0" fill="#000000" transform="matrix(1.00, 0.00, -0.00, -1.00, 776.9, 346.3)">s</text></g></g></g></g><g><clipPath id="clip0x7f84af9740a0"><path d="M 187.0 754.0 L 1733.0 754.0 L 1733.0 251.4 L 187.0 251.4 Z M 187.0 754.0 "></path></clipPath><g clip-path="url(#clip0x7f84af9740a0)"><g><clipPath id="clip0x7f84af9747e0"><path d="M 1218.2 324.0 L 1733.0 324.0 L 1733.0 395.1 L 1218.2 395.1 Z M 1218.2 324.0 "></path></clipPath><g clip-path="url(#clip0x7f84af9747e0)"><text xml:space="preserve" font-family="Helvetica-Light,Helvetica" font-size="36.0" fill="#000000" transform="matrix(1.00, 0.00, -0.00, -1.00, 1222.2, 346.3)">1</text><text xml:space="preserve" font-family="Helvetica-Light,Helvetica" font-size="36.0" fill="#000000" transform="matrix(1.00, 0.00, -0.00, -1.00, 1242.2, 346.3)">2</text><text xml:space="preserve" font-family="Helvetica-Light,Helvetica" font-size="36.0" fill="#000000" transform="matrix(1.00, 0.00, -0.00, -1.00, 1262.2, 346.3)">5</text><text xml:space="preserve" font-family="Helvetica-Light,Helvetica" font-size="36.0" fill="#000000" transform="matrix(1.00, 0.00, -0.00, -1.00, 1282.2, 346.3)">2</text><text xml:space="preserve" font-family="Helvetica-Light,Helvetica" font-size="36.0" fill="#000000" transform="matrix(1.00, 0.00, -0.00, -1.00, 1302.2, 346.3)">m</text><text xml:space="preserve" font-family="Helvetica-Light,Helvetica" font-size="36.0" fill="#000000" transform="matrix(1.00, 0.00, -0.00, -1.00, 1332.2, 346.3)">s</text></g></g></g></g><g><clipPath id="clip0x7f84af9778c0"><path d="M 187.0 754.0 L 1733.0 754.0 L 1733.0 251.4 L 187.0 251.4 Z M 187.0 754.0 "></path></clipPath><g clip-path="url(#clip0x7f84af9778c0)"><g><clipPath id="clip0x7f84af978010"><path d="M 187.0 251.4 L 701.8 251.4 L 701.8 323.0 L 187.0 323.0 Z M 187.0 251.4 "></path></clipPath><g clip-path="url(#clip0x7f84af978010)"><text xml:space="preserve" font-family="Helvetica-Light,Helvetica" font-size="36.0" fill="#000000" transform="matrix(1.00, 0.00, -0.00, -1.00, 191.0, 273.3)">0</text><text xml:space="preserve" font-family="Helvetica-Light,Helvetica" font-size="36.0" fill="#000000" transform="matrix(1.00, 0.00, -0.00, -1.00, 211.0, 273.3)">m</text><text xml:space="preserve" font-family="Helvetica-Light,Helvetica" font-size="36.0" fill="#000000" transform="matrix(1.00, 0.00, -0.00, -1.00, 241.0, 273.3)">s</text></g></g></g></g><g><clipPath id="clip0x7f84af979ec0"><path d="M 187.0 754.0 L 1733.0 754.0 L 1733.0 251.4 L 187.0 251.4 Z M 187.0 754.0 "></path></clipPath><g clip-path="url(#clip0x7f84af979ec0)"><g><clipPath id="clip0x7f84af97a610"><path d="M 702.8 251.4 L 1217.2 251.4 L 1217.2 323.0 L 702.8 323.0 Z M 702.8 251.4 "></path></clipPath><g clip-path="url(#clip0x7f84af97a610)"><text xml:space="preserve" font-family="Helvetica-Light,Helvetica" font-size="36.0" fill="#000000" transform="matrix(1.00, 0.00, -0.00, -1.00, 706.8, 273.3)">8</text><text xml:space="preserve" font-family="Helvetica-Light,Helvetica" font-size="36.0" fill="#000000" transform="matrix(1.00, 0.00, -0.00, -1.00, 726.8, 273.3)">3</text><text xml:space="preserve" font-family="Helvetica-Light,Helvetica" font-size="36.0" fill="#000000" transform="matrix(1.00, 0.00, -0.00, -1.00, 746.9, 273.3)">m</text><text xml:space="preserve" font-family="Helvetica-Light,Helvetica" font-size="36.0" fill="#000000" transform="matrix(1.00, 0.00, -0.00, -1.00, 776.9, 273.3)">s</text></g></g></g></g><g><clipPath id="clip0x7f84af97cac0"><path d="M 187.0 754.0 L 1733.0 754.0 L 1733.0 251.4 L 187.0 251.4 Z M 187.0 754.0 "></path></clipPath><g clip-path="url(#clip0x7f84af97cac0)"><g><clipPath id="clip0x7f84af97d200"><path d="M 1218.2 251.4 L 1733.0 251.4 L 1733.0 323.0 L 1218.2 323.0 Z M 1218.2 251.4 "></path></clipPath><g clip-path="url(#clip0x7f84af97d200)"><text xml:space="preserve" font-family="Helvetica-Light,Helvetica" font-size="36.0" fill="#000000" transform="matrix(1.00, 0.00, -0.00, -1.00, 1222.2, 273.3)">1</text><text xml:space="preserve" font-family="Helvetica-Light,Helvetica" font-size="36.0" fill="#000000" transform="matrix(1.00, 0.00, -0.00, -1.00, 1242.2, 273.3)">1</text><text xml:space="preserve" font-family="Helvetica-Light,Helvetica" font-size="36.0" fill="#000000" transform="matrix(1.00, 0.00, -0.00, -1.00, 1262.2, 273.3)">5</text><text xml:space="preserve" font-family="Helvetica-Light,Helvetica" font-size="36.0" fill="#000000" transform="matrix(1.00, 0.00, -0.00, -1.00, 1282.2, 273.3)">0</text><text xml:space="preserve" font-family="Helvetica-Light,Helvetica" font-size="36.0" fill="#000000" transform="matrix(1.00, 0.00, -0.00, -1.00, 1302.2, 273.3)">m</text><text xml:space="preserve" font-family="Helvetica-Light,Helvetica" font-size="36.0" fill="#000000" transform="matrix(1.00, 0.00, -0.00, -1.00, 1332.2, 273.3)">s</text></g></g></g></g><g><clipPath id="clip0x7f84af9802e0"><path d="M 187.0 754.0 L 1733.0 754.0 L 1733.0 251.4 L 187.0 251.4 Z M 187.0 754.0 "></path></clipPath><g clip-path="url(#clip0x7f84af9802e0)"><g><clipPath id="clip0x7f84af980a30"><path d="M 701.8 251.4 L 702.8 251.4 L 702.8 754.0 L 701.8 754.0 Z M 701.8 251.4 "></path></clipPath><g clip-path="url(#clip0x7f84af980a30)"><path d="M 516.3 1.0 L 516.3 503.6 " fill="none" stroke="#000000" stroke-width="1.00" stroke-dasharray="2.0, 2.0" transform="matrix(1.00, 0.00, 0.00, -1.00, 186.0, 755.0)"></path></g></g></g></g><g><clipPath id="clip0x7f84af981b00"><path d="M 187.0 754.0 L 1733.0 754.0 L 1733.0 251.4 L 187.0 251.4 Z M 187.0 754.0 "></path></clipPath><g clip-path="url(#clip0x7f84af981b00)"><g><clipPath id="clip0x7f84af982250"><path d="M 1217.2 251.4 L 1218.2 251.4 L 1218.2 754.0 L 1217.2 754.0 Z M 1217.2 251.4 "></path></clipPath><g clip-path="url(#clip0x7f84af982250)"><path d="M 1031.7 1.0 L 1031.7 503.6 " fill="none" stroke="#000000" stroke-width="1.00" stroke-dasharray="2.0, 2.0" transform="matrix(1.00, 0.00, 0.00, -1.00, 186.0, 755.0)"></path></g></g></g></g><g><clipPath id="clip0x7f84af9833f0"><path d="M 187.0 754.0 L 1733.0 754.0 L 1733.0 251.4 L 187.0 251.4 Z M 187.0 754.0 "></path></clipPath><g clip-path="url(#clip0x7f84af9833f0)"><g><clipPath id="clip0x7f84af983c20"><path d="M 187.0 611.3 L 1733.0 611.3 L 1733.0 612.3 L 187.0 612.3 Z M 187.0 611.3 "></path></clipPath><g clip-path="url(#clip0x7f84af983c20)"><path d="M 1.0 143.2 L 1547.0 143.2 " fill="none" stroke="#000000" stroke-width="1.00" stroke-dasharray="2.0, 2.0" transform="matrix(1.00, 0.00, 0.00, -1.00, 186.0, 755.0)"></path></g></g></g></g><g><clipPath id="clip0x7f84af984cf0"><path d="M 187.0 754.0 L 1733.0 754.0 L 1733.0 251.4 L 187.0 251.4 Z M 187.0 754.0 "></path></clipPath><g clip-path="url(#clip0x7f84af984cf0)"><g><clipPath id="clip0x7f84af985440"><path d="M 187.0 539.2 L 1733.0 539.2 L 1733.0 540.2 L 187.0 540.2 Z M 187.0 539.2 "></path></clipPath><g clip-path="url(#clip0x7f84af985440)"><path d="M 1.0 215.3 L 1547.0 215.3 " fill="none" stroke="#000000" stroke-width="1.00" stroke-dasharray="2.0, 2.0" transform="matrix(1.00, 0.00, 0.00, -1.00, 186.0, 755.0)"></path></g></g></g></g><g><clipPath id="clip0x7f84af986510"><path d="M 187.0 754.0 L 1733.0 754.0 L 1733.0 251.4 L 187.0 251.4 Z M 187.0 754.0 "></path></clipPath><g clip-path="url(#clip0x7f84af986510)"><g><clipPath id="clip0x7f84af986c60"><path d="M 187.0 467.1 L 1733.0 467.1 L 1733.0 468.1 L 187.0 468.1 Z M 187.0 467.1 "></path></clipPath><g clip-path="url(#clip0x7f84af986c60)"><path d="M 1.0 287.4 L 1547.0 287.4 " fill="none" stroke="#000000" stroke-width="1.00" stroke-dasharray="2.0, 2.0" transform="matrix(1.00, 0.00, 0.00, -1.00, 186.0, 755.0)"></path></g></g></g></g><g><clipPath id="clip0x7f84af987d30"><path d="M 187.0 754.0 L 1733.0 754.0 L 1733.0 251.4 L 187.0 251.4 Z M 187.0 754.0 "></path></clipPath><g clip-path="url(#clip0x7f84af987d30)"><g><clipPath id="clip0x7f84af988480"><path d="M 187.0 395.1 L 1733.0 395.1 L 1733.0 396.1 L 187.0 396.1 Z M 187.0 395.1 "></path></clipPath><g clip-path="url(#clip0x7f84af988480)"><path d="M 1.0 359.4 L 1547.0 359.4 " fill="none" stroke="#000000" stroke-width="1.00" stroke-dasharray="2.0, 2.0" transform="matrix(1.00, 0.00, 0.00, -1.00, 186.0, 755.0)"></path></g></g></g></g><g><clipPath id="clip0x7f84af989550"><path d="M 187.0 754.0 L 1733.0 754.0 L 1733.0 251.4 L 187.0 251.4 Z M 187.0 754.0 "></path></clipPath><g clip-path="url(#clip0x7f84af989550)"><g><clipPath id="clip0x7f84af989ca0"><path d="M 187.0 323.0 L 1733.0 323.0 L 1733.0 324.0 L 187.0 324.0 Z M 187.0 323.0 "></path></clipPath><g clip-path="url(#clip0x7f84af989ca0)"><path d="M 1.0 431.5 L 1547.0 431.5 " fill="none" stroke="#000000" stroke-width="1.00" stroke-dasharray="2.0, 2.0" transform="matrix(1.00, 0.00, 0.00, -1.00, 186.0, 755.0)"></path></g></g></g></g></g></svg>