<?xml version="1.0" encoding="UTF-8" standalone="no"?><svg xmlns="http://www.w3.org/2000/svg" xmlns:xlink="http://www.w3.org/1999/xlink" clip-rule="evenodd" stroke-miterlimit="10" viewBox="0 0 1920 1080"><desc>SVG generated by Keynote</desc><defs></defs><g transform="matrix(1.00, 0.00, -0.00, -1.00, 0.0, 1080.0)"><path d="M 0.0 1080.0 L 1920.0 1080.0 L 1920.0 0.0 L 0.0 0.0 Z M 0.0 1080.0 " fill="#FEFFFF"></path><path d="M 0.0 1080.0 L 1920.0 1080.0 L 1920.0 980.0 L 0.0 980.0 Z M 0.0 1080.0 " fill="#5EBAFD"></path><text xml:space="preserve" font-family="Helvetica-Light,Helvetica" font-size="52.2" fill="#FEFFFE" transform="matrix(1.00, 0.00, -0.00, -1.00, 135.0, 1010.0)">P</text><text xml:space="preserve" font-family="Helvetica-Light,Helvetica" font-size="52.2" fill="#FEFFFE" transform="matrix(1.00, 0.00, -0.00, -1.00, 166.9, 1010.0)">o</text><text xml:space="preserve" font-family="Helvetica-Light,Helvetica" font-size="52.2" fill="#FEFFFE" transform="matrix(1.00, 0.00, -0.00, -1.00, 195.9, 1010.0)">t</text><text xml:space="preserve" font-family="Helvetica-Light,Helvetica" font-size="52.2" fill="#FEFFFE" transform="matrix(1.00, 0.00, -0.00, -1.00, 210.4, 1010.0)">a</text><text xml:space="preserve" font-family="Helvetica-Light,Helvetica" font-size="52.2" fill="#FEFFFE" transform="matrix(1.00, 0.00, -0.00, -1.00, 239.5, 1010.0)">t</text><text xml:space="preserve" font-family="Helvetica-Light,Helvetica" font-size="52.2" fill="#FEFFFE" transform="matrix(1.00, 0.00, -0.00, -1.00, 254.0, 1010.0)">o</text><text xml:space="preserve" font-family="Helvetica-Light,Helvetica" font-size="52.2" fill="#FEFFFE" transform="matrix(1.00, 0.00, -0.00, -1.00, 283.0, 1010.0)">r</text><text xml:space="preserve" font-family="Helvetica-Light,Helvetica" font-size="52.2" fill="#FEFFFE" transform="matrix(1.00, 0.00, -0.00, -1.00, 300.4, 1010.0)"> </text><text xml:space="preserve" font-family="Helvetica-Light,Helvetica" font-size="52.2" fill="#FEFFFE" transform="matrix(1.00, 0.00, -0.00, -1.00, 314.9, 1010.0)">C</text><text xml:space="preserve" font-family="Helvetica-Light,Helvetica" font-size="52.2" fill="#FEFFFE" transform="matrix(1.00, 0.00, -0.00, -1.00, 352.6, 1010.0)">o</text><text xml:space="preserve" font-family="Helvetica-Light,Helvetica" font-size="52.2" fill="#FEFFFE" transform="matrix(1.00, 0.00, -0.00, -1.00, 381.6, 1010.0)">n</text><text xml:space="preserve" font-family="Helvetica-Light,Helvetica" font-size="52.2" fill="#FEFFFE" transform="matrix(1.00, 0.00, -0.00, -1.00, 410.6, 1010.0)">n</text><text xml:space="preserve" font-family="Helvetica-Light,Helvetica" font-size="52.2" fill="#FEFFFE" transform="matrix(1.00, 0.00, -0.00, -1.00, 439.6, 1010.0)">e</text><text xml:space="preserve" font-family="Helvetica-Light,Helvetica" font-size="52.2" fill="#FEFFFE" transform="matrix(1.00, 0.00, -0.00, -1.00, 468.7, 1010.0)">c</text><text xml:space="preserve" font-family="Helvetica-Light,Helvetica" font-size="52.2" fill="#FEFFFE" transform="matrix(1.00, 0.00, -0.00, -1.00, 497.7, 1010.0)">t</text><text xml:space="preserve" font-family="Helvetica-Light,Helvetica" font-size="52.2" fill="#FEFFFE" transform="matrix(1.00, 0.00, -0.00, -1.00, 512.2, 1010.0)">i</text><text xml:space="preserve" font-family="Helvetica-Light,Helvetica" font-size="52.2" fill="#FEFFFE" transform="matrix(1.00, 0.00, -0.00, -1.00, 523.8, 1010.0)">v</text><text xml:space="preserve" font-family="Helvetica-Light,Helvetica" font-size="52.2" fill="#FEFFFE" transform="matrix(1.00, 0.00, -0.00, -1.00, 549.9, 1010.0)">i</text><text xml:space="preserve" font-family="Helvetica-Light,Helvetica" font-size="52.2" fill="#FEFFFE" transform="matrix(1.00, 0.00, -0.00, -1.00, 561.5, 1010.0)">t</text><text xml:space="preserve" font-family="Helvetica-Light,Helvetica" font-size="52.2" fill="#FEFFFE" transform="matrix(1.00, 0.00, -0.00, -1.00, 576.0, 1010.0)">y</text><text xml:space="preserve" font-family="Helvetica-Light,Helvetica" font-size="52.2" fill="#FEFFFE" transform="matrix(1.00, 0.00, -0.00, -1.00, 602.1, 1010.0)"> </text><text xml:space="preserve" font-family="Helvetica-Light,Helvetica" font-size="52.2" fill="#FEFFFE" transform="matrix(1.00, 0.00, -0.00, -1.00, 616.6, 1010.0)">T</text><text xml:space="preserve" font-family="Helvetica-Light,Helvetica" font-size="52.2" fill="#FEFFFE" transform="matrix(1.00, 0.00, -0.00, -1.00, 639.8, 1010.0)">e</text><text xml:space="preserve" font-family="Helvetica-Light,Helvetica" font-size="52.2" fill="#FEFFFE" transform="matrix(1.00, 0.00, -0.00, -1.00, 668.8, 1010.0)">s</text><text xml:space="preserve" font-family="Helvetica-Light,Helvetica" font-size="52.2" fill="#FEFFFE" transform="matrix(1.00, 0.00, -0.00, -1.00, 694.9, 1010.0)">t</text><g><clipPath id="clip0x7f84ac5755a0"><path d="M 187.0 754.0 L 969.8 754.0 L 969.8 251.4 L 187.0 251.4 Z M 187.0 754.0 "></path></clipPath><g clip-path="url(#clip0x7f84ac5755a0)"><g><clipPath id="clip0x7f84ac575d10"><path d="M 187.0 612.3 L 332.6 612.3 L 332.6 754.0 L 187.0 754.0 Z M 187.0 612.3 "></path></clipPath><g clip-path="url(#clip0x7f84ac575d10)"><text xml:space="preserve" font-family="Helvetica,Helvetica" font-size="36.0" fill="#000000" transform="matrix(1.00, 0.00, -0.00, -1.00, 191.0, 669.3)">T</text><text xml:space="preserve" font-family="Helvetica,Helvetica" font-size="36.0" fill="#000000" transform="matrix(1.00, 0.00, -0.00, -1.00, 209.0, 669.3)">e</text><text xml:space="preserve" font-family="Helvetica,Helvetica" font-size="36.0" fill="#000000" transform="matrix(1.00, 0.00, -0.00, -1.00, 229.0, 669.3)">s</text><text xml:space="preserve" font-family="Helvetica,Helvetica" font-size="36.0" fill="#000000" transform="matrix(1.00, 0.00, -0.00, -1.00, 247.0, 669.3)">t</text><text xml:space="preserve" font-family="Helvetica,Helvetica" font-size="36.0" fill="#000000" transform="matrix(1.00, 0.00, -0.00, -1.00, 257.0, 669.3)"> </text><text xml:space="preserve" font-family="Helvetica,Helvetica" font-size="36.0" fill="#000000" transform="matrix(1.00, 0.00, -0.00, -1.00, 267.0, 669.3)">#</text></g></g></g></g><g><clipPath id="clip0x7f84ac57a050"><path d="M 187.0 754.0 L 969.8 754.0 L 969.8 251.4 L 187.0 251.4 Z M 187.0 754.0 "></path></clipPath><g clip-path="url(#clip0x7f84ac57a050)"><g><clipPath id="clip0x7f84ac57a790"><path d="M 333.6 612.3 L 650.9 612.3 L 650.9 754.0 L 333.6 754.0 Z M 333.6 612.3 "></path></clipPath><g clip-path="url(#clip0x7f84ac57a790)"><text xml:space="preserve" font-family="Helvetica,Helvetica" font-size="36.0" fill="#000000" transform="matrix(1.00, 0.00, -0.00, -1.00, 337.6, 669.3)"> </text><text xml:space="preserve" font-family="Helvetica,Helvetica" font-size="36.0" fill="#000000" transform="matrix(1.00, 0.00, -0.00, -1.00, 347.6, 669.3)">L</text><text xml:space="preserve" font-family="Helvetica,Helvetica" font-size="36.0" fill="#000000" transform="matrix(1.00, 0.00, -0.00, -1.00, 367.6, 669.3)">o</text><text xml:space="preserve" font-family="Helvetica,Helvetica" font-size="36.0" fill="#000000" transform="matrix(1.00, 0.00, -0.00, -1.00, 387.7, 669.3)">c</text><text xml:space="preserve" font-family="Helvetica,Helvetica" font-size="36.0" fill="#000000" transform="matrix(1.00, 0.00, -0.00, -1.00, 405.7, 669.3)">a</text><text xml:space="preserve" font-family="Helvetica,Helvetica" font-size="36.0" fill="#000000" transform="matrix(1.00, 0.00, -0.00, -1.00, 425.7, 669.3)">l</text><text xml:space="preserve" font-family="Helvetica,Helvetica" font-size="36.0" fill="#000000" transform="matrix(1.00, 0.00, -0.00, -1.00, 433.7, 669.3)"> </text><text xml:space="preserve" font-family="Helvetica,Helvetica" font-size="36.0" fill="#000000" transform="matrix(1.00, 0.00, -0.00, -1.00, 443.1, 669.3)">T</text><text xml:space="preserve" font-family="Helvetica,Helvetica" font-size="36.0" fill="#000000" transform="matrix(1.00, 0.00, -0.00, -1.00, 461.1, 669.3)">o</text><text xml:space="preserve" font-family="Helvetica,Helvetica" font-size="36.0" fill="#000000" transform="matrix(1.00, 0.00, -0.00, -1.00, 481.1, 669.3)">r</text><text xml:space="preserve" font-family="Helvetica,Helvetica" font-size="36.0" fill="#000000" transform="matrix(1.00, 0.00, -0.00, -1.00, 493.1, 669.3)"> </text><text xml:space="preserve" font-family="Helvetica,Helvetica" font-size="36.0" fill="#000000" transform="matrix(1.00, 0.00, -0.00, -1.00, 503.1, 669.3)">N</text><text xml:space="preserve" font-family="Helvetica,Helvetica" font-size="36.0" fill="#000000" transform="matrix(1.00, 0.00, -0.00, -1.00, 529.1, 669.3)">e</text><text xml:space="preserve" font-family="Helvetica,Helvetica" font-size="36.0" fill="#000000" transform="matrix(1.00, 0.00, -0.00, -1.00, 549.1, 669.3)">t</text><text xml:space="preserve" font-family="Helvetica,Helvetica" font-size="36.0" fill="#000000" transform="matrix(1.00, 0.00, -0.00, -1.00, 559.1, 669.3)">w</text><text xml:space="preserve" font-family="Helvetica,Helvetica" font-size="36.0" fill="#000000" transform="matrix(1.00, 0.00, -0.00, -1.00, 585.1, 669.3)">o</text><text xml:space="preserve" font-family="Helvetica,Helvetica" font-size="36.0" fill="#000000" transform="matrix(1.00, 0.00, -0.00, -1.00, 605.1, 669.3)">r</text><text xml:space="preserve" font-family="Helvetica,Helvetica" font-size="36.0" fill="#000000" transform="matrix(1.00, 0.00, -0.00, -1.00, 617.1, 669.3)">k</text></g></g></g></g><g><clipPath id="clip0x7f84ac57b3b0"><path d="M 187.0 754.0 L 969.8 754.0 L 969.8 251.4 L 187.0 251.4 Z M 187.0 754.0 "></path></clipPath><g clip-path="url(#clip0x7f84ac57b3b0)"><g><clipPath id="clip0x7f84ac582c60"><path d="M 651.9 612.3 L 969.8 612.3 L 969.8 754.0 L 651.9 754.0 Z M 651.9 612.3 "></path></clipPath><g clip-path="url(#clip0x7f84ac582c60)"><text xml:space="preserve" font-family="Helvetica,Helvetica" font-size="36.0" fill="#000000" transform="matrix(1.00, 0.00, -0.00, -1.00, 655.9, 669.3)"> </text><text xml:space="preserve" font-family="Helvetica,Helvetica" font-size="36.0" fill="#000000" transform="matrix(1.00, 0.00, -0.00, -1.00, 665.9, 669.3)">L</text><text xml:space="preserve" font-family="Helvetica,Helvetica" font-size="36.0" fill="#000000" transform="matrix(1.00, 0.00, -0.00, -1.00, 686.0, 669.3)">i</text><text xml:space="preserve" font-family="Helvetica,Helvetica" font-size="36.0" fill="#000000" transform="matrix(1.00, 0.00, -0.00, -1.00, 694.0, 669.3)">v</text><text xml:space="preserve" font-family="Helvetica,Helvetica" font-size="36.0" fill="#000000" transform="matrix(1.00, 0.00, -0.00, -1.00, 712.0, 669.3)">e</text><text xml:space="preserve" font-family="Helvetica,Helvetica" font-size="36.0" fill="#000000" transform="matrix(1.00, 0.00, -0.00, -1.00, 732.0, 669.3)"> </text><text xml:space="preserve" font-family="Helvetica,Helvetica" font-size="36.0" fill="#000000" transform="matrix(1.00, 0.00, -0.00, -1.00, 741.4, 669.3)">T</text><text xml:space="preserve" font-family="Helvetica,Helvetica" font-size="36.0" fill="#000000" transform="matrix(1.00, 0.00, -0.00, -1.00, 759.4, 669.3)">o</text><text xml:space="preserve" font-family="Helvetica,Helvetica" font-size="36.0" fill="#000000" transform="matrix(1.00, 0.00, -0.00, -1.00, 779.4, 669.3)">r</text><text xml:space="preserve" font-family="Helvetica,Helvetica" font-size="36.0" fill="#000000" transform="matrix(1.00, 0.00, -0.00, -1.00, 791.4, 669.3)"> </text><text xml:space="preserve" font-family="Helvetica,Helvetica" font-size="36.0" fill="#000000" transform="matrix(1.00, 0.00, -0.00, -1.00, 801.4, 669.3)">N</text><text xml:space="preserve" font-family="Helvetica,Helvetica" font-size="36.0" fill="#000000" transform="matrix(1.00, 0.00, -0.00, -1.00, 827.4, 669.3)">e</text><text xml:space="preserve" font-family="Helvetica,Helvetica" font-size="36.0" fill="#000000" transform="matrix(1.00, 0.00, -0.00, -1.00, 847.4, 669.3)">t</text><text xml:space="preserve" font-family="Helvetica,Helvetica" font-size="36.0" fill="#000000" transform="matrix(1.00, 0.00, -0.00, -1.00, 857.4, 669.3)">w</text><text xml:space="preserve" font-family="Helvetica,Helvetica" font-size="36.0" fill="#000000" transform="matrix(1.00, 0.00, -0.00, -1.00, 883.4, 669.3)">o</text><text xml:space="preserve" font-family="Helvetica,Helvetica" font-size="36.0" fill="#000000" transform="matrix(1.00, 0.00, -0.00, -1.00, 903.4, 669.3)">r</text><text xml:space="preserve" font-family="Helvetica,Helvetica" font-size="36.0" fill="#000000" transform="matrix(1.00, 0.00, -0.00, -1.00, 915.4, 669.3)">k</text></g></g></g></g><g><clipPath id="clip0x7f84ac5837e0"><path d="M 187.0 754.0 L 969.8 754.0 L 969.8 251.4 L 187.0 251.4 Z M 187.0 754.0 "></path></clipPath><g clip-path="url(#clip0x7f84ac5837e0)"><g><clipPath id="clip0x7f84ac58a9c0"><path d="M 187.0 540.2 L 332.6 540.2 L 332.6 611.3 L 187.0 611.3 Z M 187.0 540.2 "></path></clipPath><g clip-path="url(#clip0x7f84ac58a9c0)"><text xml:space="preserve" font-family="Helvetica-Light,Helvetica" font-size="36.0" fill="#000000" transform="matrix(1.00, 0.00, -0.00, -1.00, 191.0, 562.6)">1</text></g></g></g></g><g><clipPath id="clip0x7f84ac58c040"><path d="M 187.0 754.0 L 969.8 754.0 L 969.8 251.4 L 187.0 251.4 Z M 187.0 754.0 "></path></clipPath><g clip-path="url(#clip0x7f84ac58c040)"><g><clipPath id="clip0x7f84ac58c7d0"><path d="M 333.6 540.2 L 650.9 540.2 L 650.9 611.3 L 333.6 611.3 Z M 333.6 540.2 "></path></clipPath><g clip-path="url(#clip0x7f84ac58c7d0)"><text xml:space="preserve" font-family="Helvetica-Light,Helvetica" font-size="36.0" fill="#000000" transform="matrix(1.00, 0.00, -0.00, -1.00, 337.6, 562.6)"> </text><text xml:space="preserve" font-family="Helvetica-Light,Helvetica" font-size="36.0" fill="#000000" transform="matrix(1.00, 0.00, -0.00, -1.00, 347.6, 562.6)">S</text><text xml:space="preserve" font-family="Helvetica-Light,Helvetica" font-size="36.0" fill="#000000" transform="matrix(1.00, 0.00, -0.00, -1.00, 369.6, 562.6)">u</text><text xml:space="preserve" font-family="Helvetica-Light,Helvetica" font-size="36.0" fill="#000000" transform="matrix(1.00, 0.00, -0.00, -1.00, 389.6, 562.6)">c</text><text xml:space="preserve" font-family="Helvetica-Light,Helvetica" font-size="36.0" fill="#000000" transform="matrix(1.00, 0.00, -0.00, -1.00, 409.7, 562.6)">c</text><text xml:space="preserve" font-family="Helvetica-Light,Helvetica" font-size="36.0" fill="#000000" transform="matrix(1.00, 0.00, -0.00, -1.00, 429.7, 562.6)">e</text><text xml:space="preserve" font-family="Helvetica-Light,Helvetica" font-size="36.0" fill="#000000" transform="matrix(1.00, 0.00, -0.00, -1.00, 449.7, 562.6)">s</text><text xml:space="preserve" font-family="Helvetica-Light,Helvetica" font-size="36.0" fill="#000000" transform="matrix(1.00, 0.00, -0.00, -1.00, 467.7, 562.6)">f</text><text xml:space="preserve" font-family="Helvetica-Light,Helvetica" font-size="36.0" fill="#000000" transform="matrix(1.00, 0.00, -0.00, -1.00, 477.7, 562.6)">u</text><text xml:space="preserve" font-family="Helvetica-Light,Helvetica" font-size="36.0" fill="#000000" transform="matrix(1.00, 0.00, -0.00, -1.00, 497.7, 562.6)">l</text></g></g></g></g><g><clipPath id="clip0x7f84ac591000"><path d="M 187.0 754.0 L 969.8 754.0 L 969.8 251.4 L 187.0 251.4 Z M 187.0 754.0 "></path></clipPath><g clip-path="url(#clip0x7f84ac591000)"><g><clipPath id="clip0x7f84ac591750"><path d="M 651.9 540.2 L 969.8 540.2 L 969.8 611.3 L 651.9 611.3 Z M 651.9 540.2 "></path></clipPath><g clip-path="url(#clip0x7f84ac591750)"><text xml:space="preserve" font-family="Helvetica-Light,Helvetica" font-size="36.0" fill="#000000" transform="matrix(1.00, 0.00, -0.00, -1.00, 655.9, 562.6)"> </text><text xml:space="preserve" font-family="Helvetica-Light,Helvetica" font-size="36.0" fill="#000000" transform="matrix(1.00, 0.00, -0.00, -1.00, 665.9, 562.6)">S</text><text xml:space="preserve" font-family="Helvetica-Light,Helvetica" font-size="36.0" fill="#000000" transform="matrix(1.00, 0.00, -0.00, -1.00, 687.9, 562.6)">u</text><text xml:space="preserve" font-family="Helvetica-Light,Helvetica" font-size="36.0" fill="#000000" transform="matrix(1.00, 0.00, -0.00, -1.00, 708.0, 562.6)">c</text><text xml:space="preserve" font-family="Helvetica-Light,Helvetica" font-size="36.0" fill="#000000" transform="matrix(1.00, 0.00, -0.00, -1.00, 728.0, 562.6)">c</text><text xml:space="preserve" font-family="Helvetica-Light,Helvetica" font-size="36.0" fill="#000000" transform="matrix(1.00, 0.00, -0.00, -1.00, 748.0, 562.6)">e</text><text xml:space="preserve" font-family="Helvetica-Light,Helvetica" font-size="36.0" fill="#000000" transform="matrix(1.00, 0.00, -0.00, -1.00, 768.0, 562.6)">s</text><text xml:space="preserve" font-family="Helvetica-Light,Helvetica" font-size="36.0" fill="#000000" transform="matrix(1.00, 0.00, -0.00, -1.00, 786.0, 562.6)">f</text><text xml:space="preserve" font-family="Helvetica-Light,Helvetica" font-size="36.0" fill="#000000" transform="matrix(1.00, 0.00, -0.00, -1.00, 796.0, 562.6)">u</text><text xml:space="preserve" font-family="Helvetica-Light,Helvetica" font-size="36.0" fill="#000000" transform="matrix(1.00, 0.00, -0.00, -1.00, 816.0, 562.6)">l</text></g></g></g></g><g><clipPath id="clip0x7f84ac595f50"><path d="M 187.0 754.0 L 969.8 754.0 L 969.8 251.4 L 187.0 251.4 Z M 187.0 754.0 "></path></clipPath><g clip-path="url(#clip0x7f84ac595f50)"><g><clipPath id="clip0x7f84ac5966a0"><path d="M 187.0 468.1 L 332.6 468.1 L 332.6 539.2 L 187.0 539.2 Z M 187.0 468.1 "></path></clipPath><g clip-path="url(#clip0x7f84ac5966a0)"><text xml:space="preserve" font-family="Helvetica-Light,Helvetica" font-size="36.0" fill="#000000" transform="matrix(1.00, 0.00, -0.00, -1.00, 191.0, 490.5)">2</text></g></g></g></g><g><clipPath id="clip0x7f84ac597930"><path d="M 187.0 754.0 L 969.8 754.0 L 969.8 251.4 L 187.0 251.4 Z M 187.0 754.0 "></path></clipPath><g clip-path="url(#clip0x7f84ac597930)"><g><clipPath id="clip0x7f84ac5980e0"><path d="M 333.6 468.1 L 650.9 468.1 L 650.9 539.2 L 333.6 539.2 Z M 333.6 468.1 "></path></clipPath><g clip-path="url(#clip0x7f84ac5980e0)"><text xml:space="preserve" font-family="Helvetica-Light,Helvetica" font-size="36.0" fill="#000000" transform="matrix(1.00, 0.00, -0.00, -1.00, 337.6, 490.5)"> </text><text xml:space="preserve" font-family="Helvetica-Light,Helvetica" font-size="36.0" fill="#000000" transform="matrix(1.00, 0.00, -0.00, -1.00, 347.6, 490.5)">S</text><text xml:space="preserve" font-family="Helvetica-Light,Helvetica" font-size="36.0" fill="#000000" transform="matrix(1.00, 0.00, -0.00, -1.00, 369.6, 490.5)">u</text><text xml:space="preserve" font-family="Helvetica-Light,Helvetica" font-size="36.0" fill="#000000" transform="matrix(1.00, 0.00, -0.00, -1.00, 389.6, 490.5)">c</text><text xml:space="preserve" font-family="Helvetica-Light,Helvetica" font-size="36.0" fill="#000000" transform="matrix(1.00, 0.00, -0.00, -1.00, 409.7, 490.5)">c</text><text xml:space="preserve" font-family="Helvetica-Light,Helvetica" font-size="36.0" fill="#000000" transform="matrix(1.00, 0.00, -0.00, -1.00, 429.7, 490.5)">e</text><text xml:space="preserve" font-family="Helvetica-Light,Helvetica" font-size="36.0" fill="#000000" transform="matrix(1.00, 0.00, -0.00, -1.00, 449.7, 490.5)">s</text><text xml:space="preserve" font-family="Helvetica-Light,Helvetica" font-size="36.0" fill="#000000" transform="matrix(1.00, 0.00, -0.00, -1.00, 467.7, 490.5)">f</text><text xml:space="preserve" font-family="Helvetica-Light,Helvetica" font-size="36.0" fill="#000000" transform="matrix(1.00, 0.00, -0.00, -1.00, 477.7, 490.5)">u</text><text xml:space="preserve" font-family="Helvetica-Light,Helvetica" font-size="36.0" fill="#000000" transform="matrix(1.00, 0.00, -0.00, -1.00, 497.7, 490.5)">l</text></g></g></g></g><g><clipPath id="clip0x7f84ac59c8d0"><path d="M 187.0 754.0 L 969.8 754.0 L 969.8 251.4 L 187.0 251.4 Z M 187.0 754.0 "></path></clipPath><g clip-path="url(#clip0x7f84ac59c8d0)"><g><clipPath id="clip0x7f84ac59d020"><path d="M 651.9 468.1 L 969.8 468.1 L 969.8 539.2 L 651.9 539.2 Z M 651.9 468.1 "></path></clipPath><g clip-path="url(#clip0x7f84ac59d020)"><text xml:space="preserve" font-family="Helvetica-Light,Helvetica" font-size="36.0" fill="#000000" transform="matrix(1.00, 0.00, -0.00, -1.00, 655.9, 490.5)"> </text><text xml:space="preserve" font-family="Helvetica-Light,Helvetica" font-size="36.0" fill="#000000" transform="matrix(1.00, 0.00, -0.00, -1.00, 665.9, 490.5)">S</text><text xml:space="preserve" font-family="Helvetica-Light,Helvetica" font-size="36.0" fill="#000000" transform="matrix(1.00, 0.00, -0.00, -1.00, 687.9, 490.5)">u</text><text xml:space="preserve" font-family="Helvetica-Light,Helvetica" font-size="36.0" fill="#000000" transform="matrix(1.00, 0.00, -0.00, -1.00, 708.0, 490.5)">c</text><text xml:space="preserve" font-family="Helvetica-Light,Helvetica" font-size="36.0" fill="#000000" transform="matrix(1.00, 0.00, -0.00, -1.00, 728.0, 490.5)">c</text><text xml:space="preserve" font-family="Helvetica-Light,Helvetica" font-size="36.0" fill="#000000" transform="matrix(1.00, 0.00, -0.00, -1.00, 748.0, 490.5)">e</text><text xml:space="preserve" font-family="Helvetica-Light,Helvetica" font-size="36.0" fill="#000000" transform="matrix(1.00, 0.00, -0.00, -1.00, 768.0, 490.5)">s</text><text xml:space="preserve" font-family="Helvetica-Light,Helvetica" font-size="36.0" fill="#000000" transform="matrix(1.00, 0.00, -0.00, -1.00, 786.0, 490.5)">f</text><text xml:space="preserve" font-family="Helvetica-Light,Helvetica" font-size="36.0" fill="#000000" transform="matrix(1.00, 0.00, -0.00, -1.00, 796.0, 490.5)">u</text><text xml:space="preserve" font-family="Helvetica-Light,Helvetica" font-size="36.0" fill="#000000" transform="matrix(1.00, 0.00, -0.00, -1.00, 816.0, 490.5)">l</text></g></g></g></g><g><clipPath id="clip0x7f84ac5a1820"><path d="M 187.0 754.0 L 969.8 754.0 L 969.8 251.4 L 187.0 251.4 Z M 187.0 754.0 "></path></clipPath><g clip-path="url(#clip0x7f84ac5a1820)"><g><clipPath id="clip0x7f84ac5a1f70"><path d="M 187.0 396.1 L 332.6 396.1 L 332.6 467.1 L 187.0 467.1 Z M 187.0 396.1 "></path></clipPath><g clip-path="url(#clip0x7f84ac5a1f70)"><text xml:space="preserve" font-family="Helvetica-Light,Helvetica" font-size="36.0" fill="#000000" transform="matrix(1.00, 0.00, -0.00, -1.00, 191.0, 418.4)">3</text></g></g></g></g><g><clipPath id="clip0x7f84ac5a3200"><path d="M 187.0 754.0 L 969.8 754.0 L 969.8 251.4 L 187.0 251.4 Z M 187.0 754.0 "></path></clipPath><g clip-path="url(#clip0x7f84ac5a3200)"><g><clipPath id="clip0x7f84ac5a3940"><path d="M 333.6 396.1 L 650.9 396.1 L 650.9 467.1 L 333.6 467.1 Z M 333.6 396.1 "></path></clipPath><g clip-path="url(#clip0x7f84ac5a3940)"><text xml:space="preserve" font-family="Helvetica-Light,Helvetica" font-size="36.0" fill="#000000" transform="matrix(1.00, 0.00, -0.00, -1.00, 337.6, 418.4)"> </text><text xml:space="preserve" font-family="Helvetica-Light,Helvetica" font-size="36.0" fill="#000000" transform="matrix(1.00, 0.00, -0.00, -1.00, 347.6, 418.4)">S</text><text xml:space="preserve" font-family="Helvetica-Light,Helvetica" font-size="36.0" fill="#000000" transform="matrix(1.00, 0.00, -0.00, -1.00, 369.6, 418.4)">u</text><text xml:space="preserve" font-family="Helvetica-Light,Helvetica" font-size="36.0" fill="#000000" transform="matrix(1.00, 0.00, -0.00, -1.00, 389.6, 418.4)">c</text><text xml:space="preserve" font-family="Helvetica-Light,Helvetica" font-size="36.0" fill="#000000" transform="matrix(1.00, 0.00, -0.00, -1.00, 409.7, 418.4)">c</text><text xml:space="preserve" font-family="Helvetica-Light,Helvetica" font-size="36.0" fill="#000000" transform="matrix(1.00, 0.00, -0.00, -1.00, 429.7, 418.4)">e</text><text xml:space="preserve" font-family="Helvetica-Light,Helvetica" font-size="36.0" fill="#000000" transform="matrix(1.00, 0.00, -0.00, -1.00, 449.7, 418.4)">s</text><text xml:space="preserve" font-family="Helvetica-Light,Helvetica" font-size="36.0" fill="#000000" transform="matrix(1.00, 0.00, -0.00, -1.00, 467.7, 418.4)">f</text><text xml:space="preserve" font-family="Helvetica-Light,Helvetica" font-size="36.0" fill="#000000" transform="matrix(1.00, 0.00, -0.00, -1.00, 477.7, 418.4)">u</text><text xml:space="preserve" font-family="Helvetica-Light,Helvetica" font-size="36.0" fill="#000000" transform="matrix(1.00, 0.00, -0.00, -1.00, 497.7, 418.4)">l</text></g></g></g></g><g><clipPath id="clip0x7f84ac5a8140"><path d="M 187.0 754.0 L 969.8 754.0 L 969.8 251.4 L 187.0 251.4 Z M 187.0 754.0 "></path></clipPath><g clip-path="url(#clip0x7f84ac5a8140)"><g><clipPath id="clip0x7f84ac5a8890"><path d="M 651.9 396.1 L 969.8 396.1 L 969.8 467.1 L 651.9 467.1 Z M 651.9 396.1 "></path></clipPath><g clip-path="url(#clip0x7f84ac5a8890)"><text xml:space="preserve" font-family="Helvetica-Light,Helvetica" font-size="36.0" fill="#000000" transform="matrix(1.00, 0.00, -0.00, -1.00, 655.9, 418.4)"> </text><text xml:space="preserve" font-family="Helvetica-Light,Helvetica" font-size="36.0" fill="#000000" transform="matrix(1.00, 0.00, -0.00, -1.00, 665.9, 418.4)">S</text><text xml:space="preserve" font-family="Helvetica-Light,Helvetica" font-size="36.0" fill="#000000" transform="matrix(1.00, 0.00, -0.00, -1.00, 687.9, 418.4)">u</text><text xml:space="preserve" font-family="Helvetica-Light,Helvetica" font-size="36.0" fill="#000000" transform="matrix(1.00, 0.00, -0.00, -1.00, 708.0, 418.4)">c</text><text xml:space="preserve" font-family="Helvetica-Light,Helvetica" font-size="36.0" fill="#000000" transform="matrix(1.00, 0.00, -0.00, -1.00, 728.0, 418.4)">c</text><text xml:space="preserve" font-family="Helvetica-Light,Helvetica" font-size="36.0" fill="#000000" transform="matrix(1.00, 0.00, -0.00, -1.00, 748.0, 418.4)">e</text><text xml:space="preserve" font-family="Helvetica-Light,Helvetica" font-size="36.0" fill="#000000" transform="matrix(1.00, 0.00, -0.00, -1.00, 768.0, 418.4)">s</text><text xml:space="preserve" font-family="Helvetica-Light,Helvetica" font-size="36.0" fill="#000000" transform="matrix(1.00, 0.00, -0.00, -1.00, 786.0, 418.4)">f</text><text xml:space="preserve" font-family="Helvetica-Light,Helvetica" font-size="36.0" fill="#000000" transform="matrix(1.00, 0.00, -0.00, -1.00, 796.0, 418.4)">u</text><text xml:space="preserve" font-family="Helvetica-Light,Helvetica" font-size="36.0" fill="#000000" transform="matrix(1.00, 0.00, -0.00, -1.00, 816.0, 418.4)">l</text></g></g></g></g><g><clipPath id="clip0x7f84ac5ad090"><path d="M 187.0 754.0 L 969.8 754.0 L 969.8 251.4 L 187.0 251.4 Z M 187.0 754.0 "></path></clipPath><g clip-path="url(#clip0x7f84ac5ad090)"><g><clipPath id="clip0x7f84ac5ad880"><path d="M 187.0 324.0 L 332.6 324.0 L 332.6 395.1 L 187.0 395.1 Z M 187.0 324.0 "></path></clipPath><g clip-path="url(#clip0x7f84ac5ad880)"><text xml:space="preserve" font-family="Helvetica-Light,Helvetica" font-size="36.0" fill="#000000" transform="matrix(1.00, 0.00, -0.00, -1.00, 191.0, 346.3)">4</text></g></g></g></g><g><clipPath id="clip0x7f84ac5aeaf0"><path d="M 187.0 754.0 L 969.8 754.0 L 969.8 251.4 L 187.0 251.4 Z M 187.0 754.0 "></path></clipPath><g clip-path="url(#clip0x7f84ac5aeaf0)"><g><clipPath id="clip0x7f84ac5af230"><path d="M 333.6 324.0 L 650.9 324.0 L 650.9 395.1 L 333.6 395.1 Z M 333.6 324.0 "></path></clipPath><g clip-path="url(#clip0x7f84ac5af230)"><text xml:space="preserve" font-family="Helvetica-Light,Helvetica" font-size="36.0" fill="#000000" transform="matrix(1.00, 0.00, -0.00, -1.00, 337.6, 346.3)"> </text><text xml:space="preserve" font-family="Helvetica-Light,Helvetica" font-size="36.0" fill="#000000" transform="matrix(1.00, 0.00, -0.00, -1.00, 347.6, 346.3)">S</text><text xml:space="preserve" font-family="Helvetica-Light,Helvetica" font-size="36.0" fill="#000000" transform="matrix(1.00, 0.00, -0.00, -1.00, 369.6, 346.3)">u</text><text xml:space="preserve" font-family="Helvetica-Light,Helvetica" font-size="36.0" fill="#000000" transform="matrix(1.00, 0.00, -0.00, -1.00, 389.6, 346.3)">c</text><text xml:space="preserve" font-family="Helvetica-Light,Helvetica" font-size="36.0" fill="#000000" transform="matrix(1.00, 0.00, -0.00, -1.00, 409.7, 346.3)">c</text><text xml:space="preserve" font-family="Helvetica-Light,Helvetica" font-size="36.0" fill="#000000" transform="matrix(1.00, 0.00, -0.00, -1.00, 429.7, 346.3)">e</text><text xml:space="preserve" font-family="Helvetica-Light,Helvetica" font-size="36.0" fill="#000000" transform="matrix(1.00, 0.00, -0.00, -1.00, 449.7, 346.3)">s</text><text xml:space="preserve" font-family="Helvetica-Light,Helvetica" font-size="36.0" fill="#000000" transform="matrix(1.00, 0.00, -0.00, -1.00, 467.7, 346.3)">f</text><text xml:space="preserve" font-family="Helvetica-Light,Helvetica" font-size="36.0" fill="#000000" transform="matrix(1.00, 0.00, -0.00, -1.00, 477.7, 346.3)">u</text><text xml:space="preserve" font-family="Helvetica-Light,Helvetica" font-size="36.0" fill="#000000" transform="matrix(1.00, 0.00, -0.00, -1.00, 497.7, 346.3)">l</text></g></g></g></g><g><clipPath id="clip0x7f84ac5b3a30"><path d="M 187.0 754.0 L 969.8 754.0 L 969.8 251.4 L 187.0 251.4 Z M 187.0 754.0 "></path></clipPath><g clip-path="url(#clip0x7f84ac5b3a30)"><g><clipPath id="clip0x7f84ac5b4180"><path d="M 651.9 324.0 L 969.8 324.0 L 969.8 395.1 L 651.9 395.1 Z M 651.9 324.0 "></path></clipPath><g clip-path="url(#clip0x7f84ac5b4180)"><text xml:space="preserve" font-family="Helvetica-Light,Helvetica" font-size="36.0" fill="#000000" transform="matrix(1.00, 0.00, -0.00, -1.00, 655.9, 346.3)"> </text><text xml:space="preserve" font-family="Helvetica-Light,Helvetica" font-size="36.0" fill="#000000" transform="matrix(1.00, 0.00, -0.00, -1.00, 665.9, 346.3)">S</text><text xml:space="preserve" font-family="Helvetica-Light,Helvetica" font-size="36.0" fill="#000000" transform="matrix(1.00, 0.00, -0.00, -1.00, 687.9, 346.3)">u</text><text xml:space="preserve" font-family="Helvetica-Light,Helvetica" font-size="36.0" fill="#000000" transform="matrix(1.00, 0.00, -0.00, -1.00, 708.0, 346.3)">c</text><text xml:space="preserve" font-family="Helvetica-Light,Helvetica" font-size="36.0" fill="#000000" transform="matrix(1.00, 0.00, -0.00, -1.00, 728.0, 346.3)">c</text><text xml:space="preserve" font-family="Helvetica-Light,Helvetica" font-size="36.0" fill="#000000" transform="matrix(1.00, 0.00, -0.00, -1.00, 748.0, 346.3)">e</text><text xml:space="preserve" font-family="Helvetica-Light,Helvetica" font-size="36.0" fill="#000000" transform="matrix(1.00, 0.00, -0.00, -1.00, 768.0, 346.3)">s</text><text xml:space="preserve" font-family="Helvetica-Light,Helvetica" font-size="36.0" fill="#000000" transform="matrix(1.00, 0.00, -0.00, -1.00, 786.0, 346.3)">f</text><text xml:space="preserve" font-family="Helvetica-Light,Helvetica" font-size="36.0" fill="#000000" transform="matrix(1.00, 0.00, -0.00, -1.00, 796.0, 346.3)">u</text><text xml:space="preserve" font-family="Helvetica-Light,Helvetica" font-size="36.0" fill="#000000" transform="matrix(1.00, 0.00, -0.00, -1.00, 816.0, 346.3)">l</text></g></g></g></g><g><clipPath id="clip0x7f84ac5b8980"><path d="M 187.0 754.0 L 969.8 754.0 L 969.8 251.4 L 187.0 251.4 Z M 187.0 754.0 "></path></clipPath><g clip-path="url(#clip0x7f84ac5b8980)"><g><clipPath id="clip0x7f84ac5b91b0"><path d="M 187.0 251.4 L 332.6 251.4 L 332.6 323.0 L 187.0 323.0 Z M 187.0 251.4 "></path></clipPath><g clip-path="url(#clip0x7f84ac5b91b0)"><text xml:space="preserve" font-family="Helvetica-Light,Helvetica" font-size="36.0" fill="#000000" transform="matrix(1.00, 0.00, -0.00, -1.00, 191.0, 273.3)">5</text></g></g></g></g><g><clipPath id="clip0x7f84ac5ba440"><path d="M 187.0 754.0 L 969.8 754.0 L 969.8 251.4 L 187.0 251.4 Z M 187.0 754.0 "></path></clipPath><g clip-path="url(#clip0x7f84ac5ba440)"><g><clipPath id="clip0x7f84ac5bab80"><path d="M 333.6 251.4 L 650.9 251.4 L 650.9 323.0 L 333.6 323.0 Z M 333.6 251.4 "></path></clipPath><g clip-path="url(#clip0x7f84ac5bab80)"><text xml:space="preserve" font-family="Helvetica-Light,Helvetica" font-size="36.0" fill="#000000" transform="matrix(1.00, 0.00, -0.00, -1.00, 337.6, 273.3)"> </text><text xml:space="preserve" font-family="Helvetica-Light,Helvetica" font-size="36.0" fill="#000000" transform="matrix(1.00, 0.00, -0.00, -1.00, 347.6, 273.3)">S</text><text xml:space="preserve" font-family="Helvetica-Light,Helvetica" font-size="36.0" fill="#000000" transform="matrix(1.00, 0.00, -0.00, -1.00, 369.6, 273.3)">u</text><text xml:space="preserve" font-family="Helvetica-Light,Helvetica" font-size="36.0" fill="#000000" transform="matrix(1.00, 0.00, -0.00, -1.00, 389.6, 273.3)">c</text><text xml:space="preserve" font-family="Helvetica-Light,Helvetica" font-size="36.0" fill="#000000" transform="matrix(1.00, 0.00, -0.00, -1.00, 409.7, 273.3)">c</text><text xml:space="preserve" font-family="Helvetica-Light,Helvetica" font-size="36.0" fill="#000000" transform="matrix(1.00, 0.00, -0.00, -1.00, 429.7, 273.3)">e</text><text xml:space="preserve" font-family="Helvetica-Light,Helvetica" font-size="36.0" fill="#000000" transform="matrix(1.00, 0.00, -0.00, -1.00, 449.7, 273.3)">s</text><text xml:space="preserve" font-family="Helvetica-Light,Helvetica" font-size="36.0" fill="#000000" transform="matrix(1.00, 0.00, -0.00, -1.00, 467.7, 273.3)">f</text><text xml:space="preserve" font-family="Helvetica-Light,Helvetica" font-size="36.0" fill="#000000" transform="matrix(1.00, 0.00, -0.00, -1.00, 477.7, 273.3)">u</text><text xml:space="preserve" font-family="Helvetica-Light,Helvetica" font-size="36.0" fill="#000000" transform="matrix(1.00, 0.00, -0.00, -1.00, 497.7, 273.3)">l</text></g></g></g></g><g><clipPath id="clip0x7f84ac5bf380"><path d="M 187.0 754.0 L 969.8 754.0 L 969.8 251.4 L 187.0 251.4 Z M 187.0 754.0 "></path></clipPath><g clip-path="url(#clip0x7f84ac5bf380)"><g><clipPath id="clip0x7f84ac5bfad0"><path d="M 651.9 251.4 L 969.8 251.4 L 969.8 323.0 L 651.9 323.0 Z M 651.9 251.4 "></path></clipPath><g clip-path="url(#clip0x7f84ac5bfad0)"><text xml:space="preserve" font-family="Helvetica-Light,Helvetica" font-size="36.0" fill="#000000" transform="matrix(1.00, 0.00, -0.00, -1.00, 655.9, 273.3)"> </text><text xml:space="preserve" font-family="Helvetica-Light,Helvetica" font-size="36.0" fill="#000000" transform="matrix(1.00, 0.00, -0.00, -1.00, 665.9, 273.3)">S</text><text xml:space="preserve" font-family="Helvetica-Light,Helvetica" font-size="36.0" fill="#000000" transform="matrix(1.00, 0.00, -0.00, -1.00, 687.9, 273.3)">u</text><text xml:space="preserve" font-family="Helvetica-Light,Helvetica" font-size="36.0" fill="#000000" transform="matrix(1.00, 0.00, -0.00, -1.00, 708.0, 273.3)">c</text><text xml:space="preserve" font-family="Helvetica-Light,Helvetica" font-size="36.0" fill="#000000" transform="matrix(1.00, 0.00, -0.00, -1.00, 728.0, 273.3)">c</text><text xml:space="preserve" font-family="Helvetica-Light,Helvetica" font-size="36.0" fill="#000000" transform="matrix(1.00, 0.00, -0.00, -1.00, 748.0, 273.3)">e</text><text xml:space="preserve" font-family="Helvetica-Light,Helvetica" font-size="36.0" fill="#000000" transform="matrix(1.00, 0.00, -0.00, -1.00, 768.0, 273.3)">s</text><text xml:space="preserve" font-family="Helvetica-Light,Helvetica" font-size="36.0" fill="#000000" transform="matrix(1.00, 0.00, -0.00, -1.00, 786.0, 273.3)">f</text><text xml:space="preserve" font-family="Helvetica-Light,Helvetica" font-size="36.0" fill="#000000" transform="matrix(1.00, 0.00, -0.00, -1.00, 796.0, 273.3)">u</text><text xml:space="preserve" font-family="Helvetica-Light,Helvetica" font-size="36.0" fill="#000000" transform="matrix(1.00, 0.00, -0.00, -1.00, 816.0, 273.3)">l</text></g></g></g></g><g><clipPath id="clip0x7f84ac5c42d0"><path d="M 187.0 754.0 L 969.8 754.0 L 969.8 251.4 L 187.0 251.4 Z M 187.0 754.0 "></path></clipPath><g clip-path="url(#clip0x7f84ac5c42d0)"><g><clipPath id="clip0x7f84ac5c4a20"><path d="M 332.6 251.4 L 333.6 251.4 L 333.6 754.0 L 332.6 754.0 Z M 332.6 251.4 "></path></clipPath><g clip-path="url(#clip0x7f84ac5c4a20)"><path d="M 147.1 1.0 L 147.1 503.6 " fill="none" stroke="#000000" stroke-width="1.00" stroke-dasharray="2.0, 2.0" transform="matrix(1.00, 0.00, 0.00, -1.00, 186.0, 755.0)"></path></g></g></g></g><g><clipPath id="clip0x7f84ac5c5af0"><path d="M 187.0 754.0 L 969.8 754.0 L 969.8 251.4 L 187.0 251.4 Z M 187.0 754.0 "></path></clipPath><g clip-path="url(#clip0x7f84ac5c5af0)"><g><clipPath id="clip0x7f84ac5c6240"><path d="M 650.9 251.4 L 651.9 251.4 L 651.9 754.0 L 650.9 754.0 Z M 650.9 251.4 "></path></clipPath><g clip-path="url(#clip0x7f84ac5c6240)"><path d="M 465.4 1.0 L 465.4 503.6 " fill="none" stroke="#000000" stroke-width="1.00" stroke-dasharray="2.0, 2.0" transform="matrix(1.00, 0.00, 0.00, -1.00, 186.0, 755.0)"></path></g></g></g></g><g><clipPath id="clip0x7f84ac5c73e0"><path d="M 187.0 754.0 L 969.8 754.0 L 969.8 251.4 L 187.0 251.4 Z M 187.0 754.0 "></path></clipPath><g clip-path="url(#clip0x7f84ac5c73e0)"><g><clipPath id="clip0x7f84ac5c7b30"><path d="M 187.0 611.3 L 969.8 611.3 L 969.8 612.3 L 187.0 612.3 Z M 187.0 611.3 "></path></clipPath><g clip-path="url(#clip0x7f84ac5c7b30)"><path d="M 1.0 143.2 L 783.8 143.2 " fill="none" stroke="#000000" stroke-width="1.00" stroke-dasharray="2.0, 2.0" transform="matrix(1.00, 0.00, 0.00, -1.00, 186.0, 755.0)"></path></g></g></g></g><g><clipPath id="clip0x7f84ac5c8c00"><path d="M 187.0 754.0 L 969.8 754.0 L 969.8 251.4 L 187.0 251.4 Z M 187.0 754.0 "></path></clipPath><g clip-path="url(#clip0x7f84ac5c8c00)"><g><clipPath id="clip0x7f84ac5c9350"><path d="M 187.0 539.2 L 969.8 539.2 L 969.8 540.2 L 187.0 540.2 Z M 187.0 539.2 "></path></clipPath><g clip-path="url(#clip0x7f84ac5c9350)"><path d="M 1.0 215.3 L 783.8 215.3 " fill="none" stroke="#000000" stroke-width="1.00" stroke-dasharray="2.0, 2.0" transform="matrix(1.00, 0.00, 0.00, -1.00, 186.0, 755.0)"></path></g></g></g></g><g><clipPath id="clip0x7f84ac5ca420"><path d="M 187.0 754.0 L 969.8 754.0 L 969.8 251.4 L 187.0 251.4 Z M 187.0 754.0 "></path></clipPath><g clip-path="url(#clip0x7f84ac5ca420)"><g><clipPath id="clip0x7f84ac5cab70"><path d="M 187.0 467.1 L 969.8 467.1 L 969.8 468.1 L 187.0 468.1 Z M 187.0 467.1 "></path></clipPath><g clip-path="url(#clip0x7f84ac5cab70)"><path d="M 1.0 287.4 L 783.8 287.4 " fill="none" stroke="#000000" stroke-width="1.00" stroke-dasharray="2.0, 2.0" transform="matrix(1.00, 0.00, 0.00, -1.00, 186.0, 755.0)"></path></g></g></g></g><g><clipPath id="clip0x7f84ac5cbc40"><path d="M 187.0 754.0 L 969.8 754.0 L 969.8 251.4 L 187.0 251.4 Z M 187.0 754.0 "></path></clipPath><g clip-path="url(#clip0x7f84ac5cbc40)"><g><clipPath id="clip0x7f84ac5cc390"><path d="M 187.0 395.1 L 969.8 395.1 L 969.8 396.1 L 187.0 396.1 Z M 187.0 395.1 "></path></clipPath><g clip-path="url(#clip0x7f84ac5cc390)"><path d="M 1.0 359.4 L 783.8 359.4 " fill="none" stroke="#000000" stroke-width="1.00" stroke-dasharray="2.0, 2.0" transform="matrix(1.00, 0.00, 0.00, -1.00, 186.0, 755.0)"></path></g></g></g></g><g><clipPath id="clip0x7f84ac5cd460"><path d="M 187.0 754.0 L 969.8 754.0 L 969.8 251.4 L 187.0 251.4 Z M 187.0 754.0 "></path></clipPath><g clip-path="url(#clip0x7f84ac5cd460)"><g><clipPath id="clip0x7f84ac5cdbb0"><path d="M 187.0 323.0 L 969.8 323.0 L 969.8 324.0 L 187.0 324.0 Z M 187.0 323.0 "></path></clipPath><g clip-path="url(#clip0x7f84ac5cdbb0)"><path d="M 1.0 431.5 L 783.8 431.5 " fill="none" stroke="#000000" stroke-width="1.00" stroke-dasharray="2.0, 2.0" transform="matrix(1.00, 0.00, 0.00, -1.00, 186.0, 755.0)"></path></g></g></g></g><g><clipPath id="clip0x7f84ac5cec80"><path d="M 1062.0 252.0 L 1732.0 252.0 L 1732.0 754.0 L 1062.0 754.0 Z M 1062.0 252.0 "></path></clipPath><g clip-path="url(#clip0x7f84ac5cec80)"><image xlink:href="74B62D84A6F3B482D63A5F359DBFDA68.png" width="931.00" height="696.00" transform="matrix(0.72, 0.00, -0.00, -0.72, 1062.0, 754.0)"></image><text xml:space="preserve" font-family="Cambria,Cambria" font-size="12.0" fill="#000000" transform="matrix(2.20, 0.00, -0.00, -2.20, 1733.0, 252.0)">!</text></g></g></g></svg>