<?xml version="1.0" encoding="UTF-8" standalone="no"?><svg xmlns="http://www.w3.org/2000/svg" xmlns:xlink="http://www.w3.org/1999/xlink" clip-rule="evenodd" stroke-miterlimit="10" viewBox="0 0 1920 1080"><desc>SVG generated by Keynote</desc><defs></defs><g transform="matrix(1.00, 0.00, -0.00, -1.00, 0.0, 1080.0)"><path d="M 0.0 1080.0 L 1920.0 1080.0 L 1920.0 0.0 L 0.0 0.0 Z M 0.0 1080.0 " fill="#FEFFFF"></path><path d="M 0.0 1080.0 L 1920.0 1080.0 L 1920.0 980.0 L 0.0 980.0 Z M 0.0 1080.0 " fill="#6FBF40"></path><text xml:space="preserve" font-family="Helvetica-Light,Helvetica" font-size="52.2" fill="#FEFFFE" transform="matrix(1.00, 0.00, -0.00, -1.00, 135.0, 1010.0)">T</text><text xml:space="preserve" font-family="Helvetica-Light,Helvetica" font-size="52.2" fill="#FEFFFE" transform="matrix(1.00, 0.00, -0.00, -1.00, 164.0, 1010.0)">E</text><text xml:space="preserve" font-family="Helvetica-Light,Helvetica" font-size="52.2" fill="#FEFFFE" transform="matrix(1.00, 0.00, -0.00, -1.00, 195.9, 1010.0)">S</text><text xml:space="preserve" font-family="Helvetica-Light,Helvetica" font-size="52.2" fill="#FEFFFE" transform="matrix(1.00, 0.00, -0.00, -1.00, 227.8, 1010.0)">T</text><text xml:space="preserve" font-family="Helvetica-Light,Helvetica" font-size="52.2" fill="#FEFFFE" transform="matrix(1.00, 0.00, -0.00, -1.00, 256.8, 1010.0)"> </text><text xml:space="preserve" font-family="Helvetica-Light,Helvetica" font-size="52.2" fill="#FEFFFE" transform="matrix(1.00, 0.00, -0.00, -1.00, 271.3, 1010.0)">S</text><text xml:space="preserve" font-family="Helvetica-Light,Helvetica" font-size="52.2" fill="#FEFFFE" transform="matrix(1.00, 0.00, -0.00, -1.00, 303.2, 1010.0)">E</text><text xml:space="preserve" font-family="Helvetica-Light,Helvetica" font-size="52.2" fill="#FEFFFE" transform="matrix(1.00, 0.00, -0.00, -1.00, 335.1, 1010.0)">T</text><text xml:space="preserve" font-family="Helvetica-Light,Helvetica" font-size="52.2" fill="#FEFFFE" transform="matrix(1.00, 0.00, -0.00, -1.00, 364.2, 1010.0)">U</text><text xml:space="preserve" font-family="Helvetica-Light,Helvetica" font-size="52.2" fill="#FEFFFE" transform="matrix(1.00, 0.00, -0.00, -1.00, 401.8, 1010.0)">P</text><g><clipPath id="clip0x7f84abe852a0"><path d="M 292.0 50.0 L 1624.0 50.0 L 1624.0 924.0 L 292.0 924.0 Z M 292.0 50.0 "></path></clipPath><g clip-path="url(#clip0x7f84abe852a0)"><image xlink:href="../../0019A7B0-609D-40B4-A124-1435089FDB90/assets/97F3EE4C5EFC777EEF1FE9368FB9473D.png" width="2373.00" height="1558.00" transform="matrix(0.56, 0.00, -0.00, -0.56, 292.0, 924.0)"></image></g></g><g><clipPath id="clip0x7f84ac4e9370"><path d="M 292.0 50.0 L 1624.0 50.0 L 1624.0 924.0 L 292.0 924.0 Z M 292.0 50.0 "></path></clipPath><g clip-path="url(#clip0x7f84ac4e9370)"><text xml:space="preserve" font-family="Cambria,Cambria" font-size="12.0" fill="#000000" transform="matrix(2.95, 0.00, -0.00, -2.95, 1623.4, 50.0)">!</text></g></g></g></svg>