<?xml version="1.0" encoding="UTF-8" standalone="no"?><svg xmlns="http://www.w3.org/2000/svg" xmlns:xlink="http://www.w3.org/1999/xlink" clip-rule="evenodd" stroke-miterlimit="10" viewBox="0 0 1920 1080"><desc>SVG generated by Keynote</desc><defs></defs><g transform="matrix(1.00, 0.00, -0.00, -1.00, 0.0, 1080.0)"><path d="M 0.0 1080.0 L 1920.0 1080.0 L 1920.0 0.0 L 0.0 0.0 Z M 0.0 1080.0 " fill="#FEFFFF"></path><g><clipPath id="clip0x7f84ac6d46e0"><path d="M 295.0 791.0 L 1841.0 791.0 L 1841.0 288.4 L 295.0 288.4 Z M 295.0 791.0 "></path></clipPath><g clip-path="url(#clip0x7f84ac6d46e0)"><g><clipPath id="clip0x7f84ac6d4ea0"><path d="M 295.0 707.7 L 1067.5 707.7 L 1067.5 791.0 L 295.0 791.0 Z M 295.0 707.7 "></path></clipPath><g clip-path="url(#clip0x7f84ac6d4ea0)"><text xml:space="preserve" font-family="Helvetica,Helvetica" font-size="36.0" fill="#000000" transform="matrix(1.00, 0.00, -0.00, -1.00, 299.0, 752.3)">P</text><text xml:space="preserve" font-family="Helvetica,Helvetica" font-size="36.0" fill="#000000" transform="matrix(1.00, 0.00, -0.00, -1.00, 323.0, 752.3)">o</text><text xml:space="preserve" font-family="Helvetica,Helvetica" font-size="36.0" fill="#000000" transform="matrix(1.00, 0.00, -0.00, -1.00, 343.0, 752.3)">t</text><text xml:space="preserve" font-family="Helvetica,Helvetica" font-size="36.0" fill="#000000" transform="matrix(1.00, 0.00, -0.00, -1.00, 353.0, 752.3)">a</text><text xml:space="preserve" font-family="Helvetica,Helvetica" font-size="36.0" fill="#000000" transform="matrix(1.00, 0.00, -0.00, -1.00, 373.1, 752.3)">t</text><text xml:space="preserve" font-family="Helvetica,Helvetica" font-size="36.0" fill="#000000" transform="matrix(1.00, 0.00, -0.00, -1.00, 383.1, 752.3)">o</text><text xml:space="preserve" font-family="Helvetica,Helvetica" font-size="36.0" fill="#000000" transform="matrix(1.00, 0.00, -0.00, -1.00, 403.1, 752.3)">r</text><text xml:space="preserve" font-family="Helvetica,Helvetica" font-size="36.0" fill="#000000" transform="matrix(1.00, 0.00, -0.00, -1.00, 299.0, 709.3)">(</text><text xml:space="preserve" font-family="Helvetica,Helvetica" font-size="36.0" fill="#000000" transform="matrix(1.00, 0.00, -0.00, -1.00, 311.0, 709.3)">p</text><text xml:space="preserve" font-family="Helvetica,Helvetica" font-size="36.0" fill="#000000" transform="matrix(1.00, 0.00, -0.00, -1.00, 331.0, 709.3)">i</text><text xml:space="preserve" font-family="Helvetica,Helvetica" font-size="36.0" fill="#000000" transform="matrix(1.00, 0.00, -0.00, -1.00, 339.0, 709.3)">n</text><text xml:space="preserve" font-family="Helvetica,Helvetica" font-size="36.0" fill="#000000" transform="matrix(1.00, 0.00, -0.00, -1.00, 359.1, 709.3)">g</text><text xml:space="preserve" font-family="Helvetica,Helvetica" font-size="36.0" fill="#000000" transform="matrix(1.00, 0.00, -0.00, -1.00, 379.1, 709.3)"> </text><text xml:space="preserve" font-family="Helvetica,Helvetica" font-size="36.0" fill="#000000" transform="matrix(1.00, 0.00, -0.00, -1.00, 389.1, 709.3)">1</text><text xml:space="preserve" font-family="Helvetica,Helvetica" font-size="36.0" fill="#000000" transform="matrix(1.00, 0.00, -0.00, -1.00, 409.1, 709.3)">7</text><text xml:space="preserve" font-family="Helvetica,Helvetica" font-size="36.0" fill="#000000" transform="matrix(1.00, 0.00, -0.00, -1.00, 429.1, 709.3)">2</text><text xml:space="preserve" font-family="Helvetica,Helvetica" font-size="36.0" fill="#000000" transform="matrix(1.00, 0.00, -0.00, -1.00, 449.2, 709.3)">.</text><text xml:space="preserve" font-family="Helvetica,Helvetica" font-size="36.0" fill="#000000" transform="matrix(1.00, 0.00, -0.00, -1.00, 459.2, 709.3)">2</text><text xml:space="preserve" font-family="Helvetica,Helvetica" font-size="36.0" fill="#000000" transform="matrix(1.00, 0.00, -0.00, -1.00, 479.2, 709.3)">7</text><text xml:space="preserve" font-family="Helvetica,Helvetica" font-size="36.0" fill="#000000" transform="matrix(1.00, 0.00, -0.00, -1.00, 499.2, 709.3)">.</text><text xml:space="preserve" font-family="Helvetica,Helvetica" font-size="36.0" fill="#000000" transform="matrix(1.00, 0.00, -0.00, -1.00, 509.2, 709.3)">0</text><text xml:space="preserve" font-family="Helvetica,Helvetica" font-size="36.0" fill="#000000" transform="matrix(1.00, 0.00, -0.00, -1.00, 529.2, 709.3)">.</text><text xml:space="preserve" font-family="Helvetica,Helvetica" font-size="36.0" fill="#000000" transform="matrix(1.00, 0.00, -0.00, -1.00, 539.2, 709.3)">1</text><text xml:space="preserve" font-family="Helvetica,Helvetica" font-size="36.0" fill="#000000" transform="matrix(1.00, 0.00, -0.00, -1.00, 559.3, 709.3)">)</text></g></g></g></g><g><clipPath id="clip0x7f84ac6d9960"><path d="M 295.0 791.0 L 1841.0 791.0 L 1841.0 288.4 L 295.0 288.4 Z M 295.0 791.0 "></path></clipPath><g clip-path="url(#clip0x7f84ac6d9960)"><g><clipPath id="clip0x7f84ac6da100"><path d="M 1068.5 707.7 L 1841.0 707.7 L 1841.0 791.0 L 1068.5 791.0 Z M 1068.5 707.7 "></path></clipPath><g clip-path="url(#clip0x7f84ac6da100)"><text xml:space="preserve" font-family="Helvetica,Helvetica" font-size="32.0" fill="#000000" transform="matrix(1.00, 0.00, -0.00, -1.00, 1072.5, 756.4)">O</text><text xml:space="preserve" font-family="Helvetica,Helvetica" font-size="32.0" fill="#000000" transform="matrix(1.00, 0.00, -0.00, -1.00, 1097.4, 756.4)">n</text><text xml:space="preserve" font-family="Helvetica,Helvetica" font-size="32.0" fill="#000000" transform="matrix(1.00, 0.00, -0.00, -1.00, 1115.2, 756.4)">i</text><text xml:space="preserve" font-family="Helvetica,Helvetica" font-size="32.0" fill="#000000" transform="matrix(1.00, 0.00, -0.00, -1.00, 1122.3, 756.4)">o</text><text xml:space="preserve" font-family="Helvetica,Helvetica" font-size="32.0" fill="#000000" transform="matrix(1.00, 0.00, -0.00, -1.00, 1140.1, 756.4)">n</text><text xml:space="preserve" font-family="Helvetica,Helvetica" font-size="32.0" fill="#000000" transform="matrix(1.00, 0.00, -0.00, -1.00, 1157.9, 756.4)">C</text><text xml:space="preserve" font-family="Helvetica,Helvetica" font-size="32.0" fill="#000000" transform="matrix(1.00, 0.00, -0.00, -1.00, 1181.0, 756.4)">a</text><text xml:space="preserve" font-family="Helvetica,Helvetica" font-size="32.0" fill="#000000" transform="matrix(1.00, 0.00, -0.00, -1.00, 1198.8, 756.4)">t</text><text xml:space="preserve" font-family="Helvetica,Helvetica" font-size="32.0" fill="#000000" transform="matrix(1.00, 0.00, -0.00, -1.00, 1072.5, 718.4)">(</text><text xml:space="preserve" font-family="Helvetica,Helvetica" font-size="32.0" fill="#000000" transform="matrix(1.00, 0.00, -0.00, -1.00, 1083.2, 718.4)">p</text><text xml:space="preserve" font-family="Helvetica,Helvetica" font-size="32.0" fill="#000000" transform="matrix(1.00, 0.00, -0.00, -1.00, 1101.0, 718.4)">i</text><text xml:space="preserve" font-family="Helvetica,Helvetica" font-size="32.0" fill="#000000" transform="matrix(1.00, 0.00, -0.00, -1.00, 1108.1, 718.4)">n</text><text xml:space="preserve" font-family="Helvetica,Helvetica" font-size="32.0" fill="#000000" transform="matrix(1.00, 0.00, -0.00, -1.00, 1125.9, 718.4)">g</text><text xml:space="preserve" font-family="Helvetica,Helvetica" font-size="32.0" fill="#000000" transform="matrix(1.00, 0.00, -0.00, -1.00, 1143.7, 718.4)">6</text><text xml:space="preserve" font-family="Helvetica,Helvetica" font-size="32.0" fill="#000000" transform="matrix(1.00, 0.00, -0.00, -1.00, 1161.5, 718.4)"> </text><text xml:space="preserve" font-family="Helvetica,Helvetica" font-size="32.0" fill="#000000" transform="matrix(1.00, 0.00, -0.00, -1.00, 1170.4, 718.4)">-</text><text xml:space="preserve" font-family="Helvetica,Helvetica" font-size="32.0" fill="#000000" transform="matrix(1.00, 0.00, -0.00, -1.00, 1181.0, 718.4)">c</text><text xml:space="preserve" font-family="Helvetica,Helvetica" font-size="32.0" fill="#000000" transform="matrix(1.00, 0.00, -0.00, -1.00, 1197.0, 718.4)"> </text><text xml:space="preserve" font-family="Helvetica,Helvetica" font-size="32.0" fill="#000000" transform="matrix(1.00, 0.00, -0.00, -1.00, 1205.9, 718.4)">f</text><text xml:space="preserve" font-family="Helvetica,Helvetica" font-size="32.0" fill="#000000" transform="matrix(1.00, 0.00, -0.00, -1.00, 1214.8, 718.4)">d</text><text xml:space="preserve" font-family="Helvetica,Helvetica" font-size="32.0" fill="#000000" transform="matrix(1.00, 0.00, -0.00, -1.00, 1232.6, 718.4)">8</text><text xml:space="preserve" font-family="Helvetica,Helvetica" font-size="32.0" fill="#000000" transform="matrix(1.00, 0.00, -0.00, -1.00, 1250.4, 718.4)">7</text><text xml:space="preserve" font-family="Helvetica,Helvetica" font-size="32.0" fill="#000000" transform="matrix(1.00, 0.00, -0.00, -1.00, 1268.2, 718.4)">:</text><text xml:space="preserve" font-family="Helvetica,Helvetica" font-size="32.0" fill="#000000" transform="matrix(1.00, 0.00, -0.00, -1.00, 1277.1, 718.4)">d</text><text xml:space="preserve" font-family="Helvetica,Helvetica" font-size="32.0" fill="#000000" transform="matrix(1.00, 0.00, -0.00, -1.00, 1294.9, 718.4)">8</text><text xml:space="preserve" font-family="Helvetica,Helvetica" font-size="32.0" fill="#000000" transform="matrix(1.00, 0.00, -0.00, -1.00, 1312.7, 718.4)">7</text><text xml:space="preserve" font-family="Helvetica,Helvetica" font-size="32.0" fill="#000000" transform="matrix(1.00, 0.00, -0.00, -1.00, 1330.5, 718.4)">e</text><text xml:space="preserve" font-family="Helvetica,Helvetica" font-size="32.0" fill="#000000" transform="matrix(1.00, 0.00, -0.00, -1.00, 1348.3, 718.4)">:</text><text xml:space="preserve" font-family="Helvetica,Helvetica" font-size="32.0" fill="#000000" transform="matrix(1.00, 0.00, -0.00, -1.00, 1357.2, 718.4)">e</text><text xml:space="preserve" font-family="Helvetica,Helvetica" font-size="32.0" fill="#000000" transform="matrix(1.00, 0.00, -0.00, -1.00, 1375.0, 718.4)">b</text><text xml:space="preserve" font-family="Helvetica,Helvetica" font-size="32.0" fill="#000000" transform="matrix(1.00, 0.00, -0.00, -1.00, 1392.8, 718.4)">4</text><text xml:space="preserve" font-family="Helvetica,Helvetica" font-size="32.0" fill="#000000" transform="matrix(1.00, 0.00, -0.00, -1.00, 1410.6, 718.4)">3</text><text xml:space="preserve" font-family="Helvetica,Helvetica" font-size="32.0" fill="#000000" transform="matrix(1.00, 0.00, -0.00, -1.00, 1428.4, 718.4)">:</text><text xml:space="preserve" font-family="Helvetica,Helvetica" font-size="32.0" fill="#000000" transform="matrix(1.00, 0.00, -0.00, -1.00, 1437.3, 718.4)">9</text><text xml:space="preserve" font-family="Helvetica,Helvetica" font-size="32.0" fill="#000000" transform="matrix(1.00, 0.00, -0.00, -1.00, 1455.1, 718.4)">1</text><text xml:space="preserve" font-family="Helvetica,Helvetica" font-size="32.0" fill="#000000" transform="matrix(1.00, 0.00, -0.00, -1.00, 1472.9, 718.4)">d</text><text xml:space="preserve" font-family="Helvetica,Helvetica" font-size="32.0" fill="#000000" transform="matrix(1.00, 0.00, -0.00, -1.00, 1490.7, 718.4)">:</text><text xml:space="preserve" font-family="Helvetica,Helvetica" font-size="32.0" fill="#000000" transform="matrix(1.00, 0.00, -0.00, -1.00, 1499.6, 718.4)">7</text><text xml:space="preserve" font-family="Helvetica,Helvetica" font-size="32.0" fill="#000000" transform="matrix(1.00, 0.00, -0.00, -1.00, 1517.4, 718.4)">2</text><text xml:space="preserve" font-family="Helvetica,Helvetica" font-size="32.0" fill="#000000" transform="matrix(1.00, 0.00, -0.00, -1.00, 1535.2, 718.4)">d</text><text xml:space="preserve" font-family="Helvetica,Helvetica" font-size="32.0" fill="#000000" transform="matrix(1.00, 0.00, -0.00, -1.00, 1553.0, 718.4)">4</text><text xml:space="preserve" font-family="Helvetica,Helvetica" font-size="32.0" fill="#000000" transform="matrix(1.00, 0.00, -0.00, -1.00, 1570.8, 718.4)">:</text><text xml:space="preserve" font-family="Helvetica,Helvetica" font-size="32.0" fill="#000000" transform="matrix(1.00, 0.00, -0.00, -1.00, 1579.7, 718.4)">f</text><text xml:space="preserve" font-family="Helvetica,Helvetica" font-size="32.0" fill="#000000" transform="matrix(1.00, 0.00, -0.00, -1.00, 1588.6, 718.4)">0</text><text xml:space="preserve" font-family="Helvetica,Helvetica" font-size="32.0" fill="#000000" transform="matrix(1.00, 0.00, -0.00, -1.00, 1606.4, 718.4)">f</text><text xml:space="preserve" font-family="Helvetica,Helvetica" font-size="32.0" fill="#000000" transform="matrix(1.00, 0.00, -0.00, -1.00, 1615.2, 718.4)">d</text><text xml:space="preserve" font-family="Helvetica,Helvetica" font-size="32.0" fill="#000000" transform="matrix(1.00, 0.00, -0.00, -1.00, 1633.0, 718.4)">:</text><text xml:space="preserve" font-family="Helvetica,Helvetica" font-size="32.0" fill="#000000" transform="matrix(1.00, 0.00, -0.00, -1.00, 1641.9, 718.4)">a</text><text xml:space="preserve" font-family="Helvetica,Helvetica" font-size="32.0" fill="#000000" transform="matrix(1.00, 0.00, -0.00, -1.00, 1659.7, 718.4)">e</text><text xml:space="preserve" font-family="Helvetica,Helvetica" font-size="32.0" fill="#000000" transform="matrix(1.00, 0.00, -0.00, -1.00, 1677.5, 718.4)">b</text><text xml:space="preserve" font-family="Helvetica,Helvetica" font-size="32.0" fill="#000000" transform="matrix(1.00, 0.00, -0.00, -1.00, 1695.3, 718.4)">d</text><text xml:space="preserve" font-family="Helvetica,Helvetica" font-size="32.0" fill="#000000" transform="matrix(1.00, 0.00, -0.00, -1.00, 1713.1, 718.4)">:</text><text xml:space="preserve" font-family="Helvetica,Helvetica" font-size="32.0" fill="#000000" transform="matrix(1.00, 0.00, -0.00, -1.00, 1722.0, 718.4)">f</text><text xml:space="preserve" font-family="Helvetica,Helvetica" font-size="32.0" fill="#000000" transform="matrix(1.00, 0.00, -0.00, -1.00, 1730.9, 718.4)">e</text><text xml:space="preserve" font-family="Helvetica,Helvetica" font-size="32.0" fill="#000000" transform="matrix(1.00, 0.00, -0.00, -1.00, 1748.7, 718.4)">9</text><text xml:space="preserve" font-family="Helvetica,Helvetica" font-size="32.0" fill="#000000" transform="matrix(1.00, 0.00, -0.00, -1.00, 1766.5, 718.4)">a</text><text xml:space="preserve" font-family="Helvetica,Helvetica" font-size="32.0" fill="#000000" transform="matrix(1.00, 0.00, -0.00, -1.00, 1784.3, 718.4)">)</text></g></g></g></g><g><clipPath id="clip0x7f84afd8f5b0"><path d="M 295.0 791.0 L 1841.0 791.0 L 1841.0 288.4 L 295.0 288.4 Z M 295.0 791.0 "></path></clipPath><g clip-path="url(#clip0x7f84afd8f5b0)"><g><clipPath id="clip0x7f84afd8fd30"><path d="M 295.0 624.0 L 1067.5 624.0 L 1067.5 706.7 L 295.0 706.7 Z M 295.0 624.0 "></path></clipPath><g clip-path="url(#clip0x7f84afd8fd30)"><text xml:space="preserve" font-family="Helvetica-Light,Helvetica" font-size="36.0" fill="#000000" transform="matrix(1.00, 0.00, -0.00, -1.00, 299.0, 652.0)">9</text><text xml:space="preserve" font-family="Helvetica-Light,Helvetica" font-size="36.0" fill="#000000" transform="matrix(1.00, 0.00, -0.00, -1.00, 319.0, 652.0)">8</text><text xml:space="preserve" font-family="Helvetica-Light,Helvetica" font-size="36.0" fill="#000000" transform="matrix(1.00, 0.00, -0.00, -1.00, 339.0, 652.0)">m</text><text xml:space="preserve" font-family="Helvetica-Light,Helvetica" font-size="36.0" fill="#000000" transform="matrix(1.00, 0.00, -0.00, -1.00, 369.0, 652.0)">s</text></g></g></g></g><g><clipPath id="clip0x7f84afd9ee60"><path d="M 295.0 791.0 L 1841.0 791.0 L 1841.0 288.4 L 295.0 288.4 Z M 295.0 791.0 "></path></clipPath><g clip-path="url(#clip0x7f84afd9ee60)"><g><clipPath id="clip0x7f84afd9f590"><path d="M 1068.5 624.0 L 1841.0 624.0 L 1841.0 706.7 L 1068.5 706.7 Z M 1068.5 624.0 "></path></clipPath><g clip-path="url(#clip0x7f84afd9f590)"><text xml:space="preserve" font-family="Helvetica-Light,Helvetica" font-size="36.0" fill="#000000" transform="matrix(1.00, 0.00, -0.00, -1.00, 1072.5, 652.0)">5</text><text xml:space="preserve" font-family="Helvetica-Light,Helvetica" font-size="36.0" fill="#000000" transform="matrix(1.00, 0.00, -0.00, -1.00, 1092.5, 652.0)">.</text><text xml:space="preserve" font-family="Helvetica-Light,Helvetica" font-size="36.0" fill="#000000" transform="matrix(1.00, 0.00, -0.00, -1.00, 1102.5, 652.0)">2</text><text xml:space="preserve" font-family="Helvetica-Light,Helvetica" font-size="36.0" fill="#000000" transform="matrix(1.00, 0.00, -0.00, -1.00, 1122.5, 652.0)">1</text><text xml:space="preserve" font-family="Helvetica-Light,Helvetica" font-size="36.0" fill="#000000" transform="matrix(1.00, 0.00, -0.00, -1.00, 1142.6, 652.0)">6</text><text xml:space="preserve" font-family="Helvetica-Light,Helvetica" font-size="36.0" fill="#000000" transform="matrix(1.00, 0.00, -0.00, -1.00, 1162.6, 652.0)">m</text><text xml:space="preserve" font-family="Helvetica-Light,Helvetica" font-size="36.0" fill="#000000" transform="matrix(1.00, 0.00, -0.00, -1.00, 1192.6, 652.0)">s</text></g></g></g></g><g><clipPath id="clip0x7f84afda2c50"><path d="M 295.0 791.0 L 1841.0 791.0 L 1841.0 288.4 L 295.0 288.4 Z M 295.0 791.0 "></path></clipPath><g clip-path="url(#clip0x7f84afda2c50)"><g><clipPath id="clip0x7f84afda33b0"><path d="M 295.0 540.2 L 1067.5 540.2 L 1067.5 623.0 L 295.0 623.0 Z M 295.0 540.2 "></path></clipPath><g clip-path="url(#clip0x7f84afda33b0)"><text xml:space="preserve" font-family="Helvetica-Light,Helvetica" font-size="36.0" fill="#000000" transform="matrix(1.00, 0.00, -0.00, -1.00, 299.0, 568.2)">8</text><text xml:space="preserve" font-family="Helvetica-Light,Helvetica" font-size="36.0" fill="#000000" transform="matrix(1.00, 0.00, -0.00, -1.00, 319.0, 568.2)">7</text><text xml:space="preserve" font-family="Helvetica-Light,Helvetica" font-size="36.0" fill="#000000" transform="matrix(1.00, 0.00, -0.00, -1.00, 339.0, 568.2)">m</text><text xml:space="preserve" font-family="Helvetica-Light,Helvetica" font-size="36.0" fill="#000000" transform="matrix(1.00, 0.00, -0.00, -1.00, 369.0, 568.2)">s</text></g></g></g></g><g><clipPath id="clip0x7f84afda5890"><path d="M 295.0 791.0 L 1841.0 791.0 L 1841.0 288.4 L 295.0 288.4 Z M 295.0 791.0 "></path></clipPath><g clip-path="url(#clip0x7f84afda5890)"><g><clipPath id="clip0x7f84afda6020"><path d="M 1068.5 540.2 L 1841.0 540.2 L 1841.0 623.0 L 1068.5 623.0 Z M 1068.5 540.2 "></path></clipPath><g clip-path="url(#clip0x7f84afda6020)"><text xml:space="preserve" font-family="Helvetica-Light,Helvetica" font-size="36.0" fill="#000000" transform="matrix(1.00, 0.00, -0.00, -1.00, 1072.5, 568.2)">1</text><text xml:space="preserve" font-family="Helvetica-Light,Helvetica" font-size="36.0" fill="#000000" transform="matrix(1.00, 0.00, -0.00, -1.00, 1092.5, 568.2)">5</text><text xml:space="preserve" font-family="Helvetica-Light,Helvetica" font-size="36.0" fill="#000000" transform="matrix(1.00, 0.00, -0.00, -1.00, 1112.5, 568.2)">.</text><text xml:space="preserve" font-family="Helvetica-Light,Helvetica" font-size="36.0" fill="#000000" transform="matrix(1.00, 0.00, -0.00, -1.00, 1122.5, 568.2)">7</text><text xml:space="preserve" font-family="Helvetica-Light,Helvetica" font-size="36.0" fill="#000000" transform="matrix(1.00, 0.00, -0.00, -1.00, 1142.6, 568.2)">6</text><text xml:space="preserve" font-family="Helvetica-Light,Helvetica" font-size="36.0" fill="#000000" transform="matrix(1.00, 0.00, -0.00, -1.00, 1162.6, 568.2)">m</text><text xml:space="preserve" font-family="Helvetica-Light,Helvetica" font-size="36.0" fill="#000000" transform="matrix(1.00, 0.00, -0.00, -1.00, 1192.6, 568.2)">s</text></g></g></g></g><g><clipPath id="clip0x7f84afda96e0"><path d="M 295.0 791.0 L 1841.0 791.0 L 1841.0 288.4 L 295.0 288.4 Z M 295.0 791.0 "></path></clipPath><g clip-path="url(#clip0x7f84afda96e0)"><g><clipPath id="clip0x7f84afda9e40"><path d="M 295.0 456.4 L 1067.5 456.4 L 1067.5 539.2 L 295.0 539.2 Z M 295.0 456.4 "></path></clipPath><g clip-path="url(#clip0x7f84afda9e40)"><text xml:space="preserve" font-family="Helvetica-Light,Helvetica" font-size="36.0" fill="#000000" transform="matrix(1.00, 0.00, -0.00, -1.00, 299.0, 484.5)">7</text><text xml:space="preserve" font-family="Helvetica-Light,Helvetica" font-size="36.0" fill="#000000" transform="matrix(1.00, 0.00, -0.00, -1.00, 319.0, 484.5)">2</text><text xml:space="preserve" font-family="Helvetica-Light,Helvetica" font-size="36.0" fill="#000000" transform="matrix(1.00, 0.00, -0.00, -1.00, 339.0, 484.5)">m</text><text xml:space="preserve" font-family="Helvetica-Light,Helvetica" font-size="36.0" fill="#000000" transform="matrix(1.00, 0.00, -0.00, -1.00, 369.0, 484.5)">s</text></g></g></g></g><g><clipPath id="clip0x7f84afdac2f0"><path d="M 295.0 791.0 L 1841.0 791.0 L 1841.0 288.4 L 295.0 288.4 Z M 295.0 791.0 "></path></clipPath><g clip-path="url(#clip0x7f84afdac2f0)"><g><clipPath id="clip0x7f84afdaca30"><path d="M 1068.5 456.4 L 1841.0 456.4 L 1841.0 539.2 L 1068.5 539.2 Z M 1068.5 456.4 "></path></clipPath><g clip-path="url(#clip0x7f84afdaca30)"><text xml:space="preserve" font-family="Helvetica-Light,Helvetica" font-size="36.0" fill="#000000" transform="matrix(1.00, 0.00, -0.00, -1.00, 1072.5, 484.5)">4</text><text xml:space="preserve" font-family="Helvetica-Light,Helvetica" font-size="36.0" fill="#000000" transform="matrix(1.00, 0.00, -0.00, -1.00, 1092.5, 484.5)">.</text><text xml:space="preserve" font-family="Helvetica-Light,Helvetica" font-size="36.0" fill="#000000" transform="matrix(1.00, 0.00, -0.00, -1.00, 1102.5, 484.5)">8</text><text xml:space="preserve" font-family="Helvetica-Light,Helvetica" font-size="36.0" fill="#000000" transform="matrix(1.00, 0.00, -0.00, -1.00, 1122.5, 484.5)">3</text><text xml:space="preserve" font-family="Helvetica-Light,Helvetica" font-size="36.0" fill="#000000" transform="matrix(1.00, 0.00, -0.00, -1.00, 1142.6, 484.5)">m</text><text xml:space="preserve" font-family="Helvetica-Light,Helvetica" font-size="36.0" fill="#000000" transform="matrix(1.00, 0.00, -0.00, -1.00, 1172.5, 484.5)">s</text></g></g></g></g><g><clipPath id="clip0x7f84afdafb60"><path d="M 295.0 791.0 L 1841.0 791.0 L 1841.0 288.4 L 295.0 288.4 Z M 295.0 791.0 "></path></clipPath><g clip-path="url(#clip0x7f84afdafb60)"><g><clipPath id="clip0x7f84afdb02b0"><path d="M 295.0 372.7 L 1067.5 372.7 L 1067.5 455.4 L 295.0 455.4 Z M 295.0 372.7 "></path></clipPath><g clip-path="url(#clip0x7f84afdb02b0)"><text xml:space="preserve" font-family="Helvetica-Light,Helvetica" font-size="36.0" fill="#000000" transform="matrix(1.00, 0.00, -0.00, -1.00, 299.0, 400.7)">6</text><text xml:space="preserve" font-family="Helvetica-Light,Helvetica" font-size="36.0" fill="#000000" transform="matrix(1.00, 0.00, -0.00, -1.00, 319.0, 400.7)">4</text><text xml:space="preserve" font-family="Helvetica-Light,Helvetica" font-size="36.0" fill="#000000" transform="matrix(1.00, 0.00, -0.00, -1.00, 339.0, 400.7)">m</text><text xml:space="preserve" font-family="Helvetica-Light,Helvetica" font-size="36.0" fill="#000000" transform="matrix(1.00, 0.00, -0.00, -1.00, 369.0, 400.7)">s</text></g></g></g></g><g><clipPath id="clip0x7f84afdb2760"><path d="M 295.0 791.0 L 1841.0 791.0 L 1841.0 288.4 L 295.0 288.4 Z M 295.0 791.0 "></path></clipPath><g clip-path="url(#clip0x7f84afdb2760)"><g><clipPath id="clip0x7f84afdb2ee0"><path d="M 1068.5 372.7 L 1841.0 372.7 L 1841.0 455.4 L 1068.5 455.4 Z M 1068.5 372.7 "></path></clipPath><g clip-path="url(#clip0x7f84afdb2ee0)"><text xml:space="preserve" font-family="Helvetica-Light,Helvetica" font-size="36.0" fill="#000000" transform="matrix(1.00, 0.00, -0.00, -1.00, 1072.5, 400.7)">6</text><text xml:space="preserve" font-family="Helvetica-Light,Helvetica" font-size="36.0" fill="#000000" transform="matrix(1.00, 0.00, -0.00, -1.00, 1092.5, 400.7)">.</text><text xml:space="preserve" font-family="Helvetica-Light,Helvetica" font-size="36.0" fill="#000000" transform="matrix(1.00, 0.00, -0.00, -1.00, 1102.5, 400.7)">6</text><text xml:space="preserve" font-family="Helvetica-Light,Helvetica" font-size="36.0" fill="#000000" transform="matrix(1.00, 0.00, -0.00, -1.00, 1122.5, 400.7)">2</text><text xml:space="preserve" font-family="Helvetica-Light,Helvetica" font-size="36.0" fill="#000000" transform="matrix(1.00, 0.00, -0.00, -1.00, 1142.6, 400.7)">1</text><text xml:space="preserve" font-family="Helvetica-Light,Helvetica" font-size="36.0" fill="#000000" transform="matrix(1.00, 0.00, -0.00, -1.00, 1162.6, 400.7)">m</text><text xml:space="preserve" font-family="Helvetica-Light,Helvetica" font-size="36.0" fill="#000000" transform="matrix(1.00, 0.00, -0.00, -1.00, 1192.6, 400.7)">s</text></g></g></g></g><g><clipPath id="clip0x7f84afdb65a0"><path d="M 295.0 791.0 L 1841.0 791.0 L 1841.0 288.4 L 295.0 288.4 Z M 295.0 791.0 "></path></clipPath><g clip-path="url(#clip0x7f84afdb65a0)"><g><clipPath id="clip0x7f84afdb6d00"><path d="M 295.0 288.4 L 1067.5 288.4 L 1067.5 371.7 L 295.0 371.7 Z M 295.0 288.4 "></path></clipPath><g clip-path="url(#clip0x7f84afdb6d00)"><text xml:space="preserve" font-family="Helvetica-Light,Helvetica" font-size="36.0" fill="#000000" transform="matrix(1.00, 0.00, -0.00, -1.00, 299.0, 316.9)">8</text><text xml:space="preserve" font-family="Helvetica-Light,Helvetica" font-size="36.0" fill="#000000" transform="matrix(1.00, 0.00, -0.00, -1.00, 319.0, 316.9)">3</text><text xml:space="preserve" font-family="Helvetica-Light,Helvetica" font-size="36.0" fill="#000000" transform="matrix(1.00, 0.00, -0.00, -1.00, 339.0, 316.9)">m</text><text xml:space="preserve" font-family="Helvetica-Light,Helvetica" font-size="36.0" fill="#000000" transform="matrix(1.00, 0.00, -0.00, -1.00, 369.0, 316.9)">s</text></g></g></g></g><g><clipPath id="clip0x7f84afdb91b0"><path d="M 295.0 791.0 L 1841.0 791.0 L 1841.0 288.4 L 295.0 288.4 Z M 295.0 791.0 "></path></clipPath><g clip-path="url(#clip0x7f84afdb91b0)"><g><clipPath id="clip0x7f84afdb98f0"><path d="M 1068.5 288.4 L 1841.0 288.4 L 1841.0 371.7 L 1068.5 371.7 Z M 1068.5 288.4 "></path></clipPath><g clip-path="url(#clip0x7f84afdb98f0)"><text xml:space="preserve" font-family="Helvetica-Light,Helvetica" font-size="36.0" fill="#000000" transform="matrix(1.00, 0.00, -0.00, -1.00, 1072.5, 316.9)">6</text><text xml:space="preserve" font-family="Helvetica-Light,Helvetica" font-size="36.0" fill="#000000" transform="matrix(1.00, 0.00, -0.00, -1.00, 1092.5, 316.9)">.</text><text xml:space="preserve" font-family="Helvetica-Light,Helvetica" font-size="36.0" fill="#000000" transform="matrix(1.00, 0.00, -0.00, -1.00, 1102.5, 316.9)">6</text><text xml:space="preserve" font-family="Helvetica-Light,Helvetica" font-size="36.0" fill="#000000" transform="matrix(1.00, 0.00, -0.00, -1.00, 1122.5, 316.9)">6</text><text xml:space="preserve" font-family="Helvetica-Light,Helvetica" font-size="36.0" fill="#000000" transform="matrix(1.00, 0.00, -0.00, -1.00, 1142.6, 316.9)">3</text><text xml:space="preserve" font-family="Helvetica-Light,Helvetica" font-size="36.0" fill="#000000" transform="matrix(1.00, 0.00, -0.00, -1.00, 1162.6, 316.9)">m</text><text xml:space="preserve" font-family="Helvetica-Light,Helvetica" font-size="36.0" fill="#000000" transform="matrix(1.00, 0.00, -0.00, -1.00, 1192.6, 316.9)">s</text></g></g></g></g><g><clipPath id="clip0x7f84afdbcfb0"><path d="M 295.0 791.0 L 1841.0 791.0 L 1841.0 288.4 L 295.0 288.4 Z M 295.0 791.0 "></path></clipPath><g clip-path="url(#clip0x7f84afdbcfb0)"><g><clipPath id="clip0x7f84afdbd710"><path d="M 1067.5 288.4 L 1068.5 288.4 L 1068.5 791.0 L 1067.5 791.0 Z M 1067.5 288.4 "></path></clipPath><g clip-path="url(#clip0x7f84afdbd710)"><path d="M 774.0 1.0 L 774.0 503.6 " fill="none" stroke="#000000" stroke-width="1.00" stroke-dasharray="2.0, 2.0" transform="matrix(1.00, 0.00, 0.00, -1.00, 294.0, 792.0)"></path></g></g></g></g><g><clipPath id="clip0x7f84afdbe860"><path d="M 295.0 791.0 L 1841.0 791.0 L 1841.0 288.4 L 295.0 288.4 Z M 295.0 791.0 "></path></clipPath><g clip-path="url(#clip0x7f84afdbe860)"><g><clipPath id="clip0x7f84afdbefb0"><path d="M 295.0 706.7 L 1841.0 706.7 L 1841.0 707.7 L 295.0 707.7 Z M 295.0 706.7 "></path></clipPath><g clip-path="url(#clip0x7f84afdbefb0)"><path d="M 1.0 84.8 L 1547.0 84.8 " fill="none" stroke="#000000" stroke-width="1.00" stroke-dasharray="2.0, 2.0" transform="matrix(1.00, 0.00, 0.00, -1.00, 294.0, 792.0)"></path></g></g></g></g><g><clipPath id="clip0x7f84afdc0070"><path d="M 295.0 791.0 L 1841.0 791.0 L 1841.0 288.4 L 295.0 288.4 Z M 295.0 791.0 "></path></clipPath><g clip-path="url(#clip0x7f84afdc0070)"><g><clipPath id="clip0x7f84afdc07c0"><path d="M 295.0 623.0 L 1841.0 623.0 L 1841.0 624.0 L 295.0 624.0 Z M 295.0 623.0 "></path></clipPath><g clip-path="url(#clip0x7f84afdc07c0)"><path d="M 1.0 168.5 L 1547.0 168.5 " fill="none" stroke="#000000" stroke-width="1.00" stroke-dasharray="2.0, 2.0" transform="matrix(1.00, 0.00, 0.00, -1.00, 294.0, 792.0)"></path></g></g></g></g><g><clipPath id="clip0x7f84afdc1830"><path d="M 295.0 791.0 L 1841.0 791.0 L 1841.0 288.4 L 295.0 288.4 Z M 295.0 791.0 "></path></clipPath><g clip-path="url(#clip0x7f84afdc1830)"><g><clipPath id="clip0x7f84afdc2010"><path d="M 295.0 539.2 L 1841.0 539.2 L 1841.0 540.2 L 295.0 540.2 Z M 295.0 539.2 "></path></clipPath><g clip-path="url(#clip0x7f84afdc2010)"><path d="M 1.0 252.3 L 1547.0 252.3 " fill="none" stroke="#000000" stroke-width="1.00" stroke-dasharray="2.0, 2.0" transform="matrix(1.00, 0.00, 0.00, -1.00, 294.0, 792.0)"></path></g></g></g></g><g><clipPath id="clip0x7f84afdc30a0"><path d="M 295.0 791.0 L 1841.0 791.0 L 1841.0 288.4 L 295.0 288.4 Z M 295.0 791.0 "></path></clipPath><g clip-path="url(#clip0x7f84afdc30a0)"><g><clipPath id="clip0x7f84afdc37f0"><path d="M 295.0 455.4 L 1841.0 455.4 L 1841.0 456.4 L 295.0 456.4 Z M 295.0 455.4 "></path></clipPath><g clip-path="url(#clip0x7f84afdc37f0)"><path d="M 1.0 336.1 L 1547.0 336.1 " fill="none" stroke="#000000" stroke-width="1.00" stroke-dasharray="2.0, 2.0" transform="matrix(1.00, 0.00, 0.00, -1.00, 294.0, 792.0)"></path></g></g></g></g><g><clipPath id="clip0x7f84afdc48b0"><path d="M 295.0 791.0 L 1841.0 791.0 L 1841.0 288.4 L 295.0 288.4 Z M 295.0 791.0 "></path></clipPath><g clip-path="url(#clip0x7f84afdc48b0)"><g><clipPath id="clip0x7f84afdc5000"><path d="M 295.0 371.7 L 1841.0 371.7 L 1841.0 372.7 L 295.0 372.7 Z M 295.0 371.7 "></path></clipPath><g clip-path="url(#clip0x7f84afdc5000)"><path d="M 1.0 419.8 L 1547.0 419.8 " fill="none" stroke="#000000" stroke-width="1.00" stroke-dasharray="2.0, 2.0" transform="matrix(1.00, 0.00, 0.00, -1.00, 294.0, 792.0)"></path></g></g></g></g><path d="M 0.0 1080.0 L 1920.0 1080.0 L 1920.0 980.0 L 0.0 980.0 Z M 0.0 1080.0 " fill="#5EBAFD"></path><text xml:space="preserve" font-family="Helvetica-Light,Helvetica" font-size="52.2" fill="#FEFFFE" transform="matrix(1.00, 0.00, -0.00, -1.00, 135.0, 1010.0)">O</text><text xml:space="preserve" font-family="Helvetica-Light,Helvetica" font-size="52.2" fill="#FEFFFE" transform="matrix(1.00, 0.00, -0.00, -1.00, 175.6, 1010.0)">n</text><text xml:space="preserve" font-family="Helvetica-Light,Helvetica" font-size="52.2" fill="#FEFFFE" transform="matrix(1.00, 0.00, -0.00, -1.00, 204.6, 1010.0)">i</text><text xml:space="preserve" font-family="Helvetica-Light,Helvetica" font-size="52.2" fill="#FEFFFE" transform="matrix(1.00, 0.00, -0.00, -1.00, 216.2, 1010.0)">o</text><text xml:space="preserve" font-family="Helvetica-Light,Helvetica" font-size="52.2" fill="#FEFFFE" transform="matrix(1.00, 0.00, -0.00, -1.00, 245.2, 1010.0)">n</text><text xml:space="preserve" font-family="Helvetica-Light,Helvetica" font-size="52.2" fill="#FEFFFE" transform="matrix(1.00, 0.00, -0.00, -1.00, 274.3, 1010.0)">C</text><text xml:space="preserve" font-family="Helvetica-Light,Helvetica" font-size="52.2" fill="#FEFFFE" transform="matrix(1.00, 0.00, -0.00, -1.00, 312.0, 1010.0)">a</text><text xml:space="preserve" font-family="Helvetica-Light,Helvetica" font-size="52.2" fill="#FEFFFE" transform="matrix(1.00, 0.00, -0.00, -1.00, 341.0, 1010.0)">t</text><text xml:space="preserve" font-family="Helvetica-Light,Helvetica" font-size="52.2" fill="#FEFFFE" transform="matrix(1.00, 0.00, -0.00, -1.00, 355.5, 1010.0)"> </text><text xml:space="preserve" font-family="Helvetica-Light,Helvetica" font-size="52.2" fill="#FEFFFE" transform="matrix(1.00, 0.00, -0.00, -1.00, 370.0, 1010.0)">L</text><text xml:space="preserve" font-family="Helvetica-Light,Helvetica" font-size="52.2" fill="#FEFFFE" transform="matrix(1.00, 0.00, -0.00, -1.00, 399.0, 1010.0)">a</text><text xml:space="preserve" font-family="Helvetica-Light,Helvetica" font-size="52.2" fill="#FEFFFE" transform="matrix(1.00, 0.00, -0.00, -1.00, 428.1, 1010.0)">t</text><text xml:space="preserve" font-family="Helvetica-Light,Helvetica" font-size="52.2" fill="#FEFFFE" transform="matrix(1.00, 0.00, -0.00, -1.00, 442.6, 1010.0)">e</text><text xml:space="preserve" font-family="Helvetica-Light,Helvetica" font-size="52.2" fill="#FEFFFE" transform="matrix(1.00, 0.00, -0.00, -1.00, 471.6, 1010.0)">n</text><text xml:space="preserve" font-family="Helvetica-Light,Helvetica" font-size="52.2" fill="#FEFFFE" transform="matrix(1.00, 0.00, -0.00, -1.00, 500.6, 1010.0)">c</text><text xml:space="preserve" font-family="Helvetica-Light,Helvetica" font-size="52.2" fill="#FEFFFE" transform="matrix(1.00, 0.00, -0.00, -1.00, 529.6, 1010.0)">y</text><text xml:space="preserve" font-family="Helvetica-Light,Helvetica" font-size="52.2" fill="#FEFFFE" transform="matrix(1.00, 0.00, -0.00, -1.00, 555.7, 1010.0)"> </text><text xml:space="preserve" font-family="Helvetica-Light,Helvetica" font-size="52.2" fill="#FEFFFE" transform="matrix(1.00, 0.00, -0.00, -1.00, 570.2, 1010.0)">T</text><text xml:space="preserve" font-family="Helvetica-Light,Helvetica" font-size="52.2" fill="#FEFFFE" transform="matrix(1.00, 0.00, -0.00, -1.00, 593.5, 1010.0)">e</text><text xml:space="preserve" font-family="Helvetica-Light,Helvetica" font-size="52.2" fill="#FEFFFE" transform="matrix(1.00, 0.00, -0.00, -1.00, 622.5, 1010.0)">s</text><text xml:space="preserve" font-family="Helvetica-Light,Helvetica" font-size="52.2" fill="#FEFFFE" transform="matrix(1.00, 0.00, -0.00, -1.00, 648.6, 1010.0)">t</text></g></svg>