<?xml version="1.0" encoding="UTF-8" standalone="no"?><svg xmlns="http://www.w3.org/2000/svg" xmlns:xlink="http://www.w3.org/1999/xlink" clip-rule="evenodd" stroke-miterlimit="10" viewBox="0 0 1920 1080"><desc>SVG generated by Keynote</desc><defs></defs><g transform="matrix(1.00, 0.00, -0.00, -1.00, 0.0, 1080.0)"><path d="M 0.0 1080.0 L 1920.0 1080.0 L 1920.0 0.0 L 0.0 0.0 Z M 0.0 1080.0 " fill="#FEFFFF"></path><path d="M 0.0 1080.0 L 1920.0 1080.0 L 1920.0 980.0 L 0.0 980.0 Z M 0.0 1080.0 " fill="#5EBAFD"></path><text xml:space="preserve" font-family="Helvetica-Light,Helvetica" font-size="52.2" fill="#FEFFFE" transform="matrix(1.00, 0.00, -0.00, -1.00, 135.0, 1010.0)">P</text><text xml:space="preserve" font-family="Helvetica-Light,Helvetica" font-size="52.2" fill="#FEFFFE" transform="matrix(1.00, 0.00, -0.00, -1.00, 166.9, 1010.0)">o</text><text xml:space="preserve" font-family="Helvetica-Light,Helvetica" font-size="52.2" fill="#FEFFFE" transform="matrix(1.00, 0.00, -0.00, -1.00, 195.9, 1010.0)">t</text><text xml:space="preserve" font-family="Helvetica-Light,Helvetica" font-size="52.2" fill="#FEFFFE" transform="matrix(1.00, 0.00, -0.00, -1.00, 210.4, 1010.0)">a</text><text xml:space="preserve" font-family="Helvetica-Light,Helvetica" font-size="52.2" fill="#FEFFFE" transform="matrix(1.00, 0.00, -0.00, -1.00, 239.5, 1010.0)">t</text><text xml:space="preserve" font-family="Helvetica-Light,Helvetica" font-size="52.2" fill="#FEFFFE" transform="matrix(1.00, 0.00, -0.00, -1.00, 254.0, 1010.0)">o</text><text xml:space="preserve" font-family="Helvetica-Light,Helvetica" font-size="52.2" fill="#FEFFFE" transform="matrix(1.00, 0.00, -0.00, -1.00, 283.0, 1010.0)">r</text><text xml:space="preserve" font-family="Helvetica-Light,Helvetica" font-size="52.2" fill="#FEFFFE" transform="matrix(1.00, 0.00, -0.00, -1.00, 300.4, 1010.0)"> </text><text xml:space="preserve" font-family="Helvetica-Light,Helvetica" font-size="52.2" fill="#FEFFFE" transform="matrix(1.00, 0.00, -0.00, -1.00, 314.9, 1010.0)">T</text><text xml:space="preserve" font-family="Helvetica-Light,Helvetica" font-size="52.2" fill="#FEFFFE" transform="matrix(1.00, 0.00, -0.00, -1.00, 339.1, 1010.0)">r</text><text xml:space="preserve" font-family="Helvetica-Light,Helvetica" font-size="52.2" fill="#FEFFFE" transform="matrix(1.00, 0.00, -0.00, -1.00, 356.5, 1010.0)">a</text><text xml:space="preserve" font-family="Helvetica-Light,Helvetica" font-size="52.2" fill="#FEFFFE" transform="matrix(1.00, 0.00, -0.00, -1.00, 385.5, 1010.0)">c</text><text xml:space="preserve" font-family="Helvetica-Light,Helvetica" font-size="52.2" fill="#FEFFFE" transform="matrix(1.00, 0.00, -0.00, -1.00, 414.5, 1010.0)">e</text><text xml:space="preserve" font-family="Helvetica-Light,Helvetica" font-size="52.2" fill="#FEFFFE" transform="matrix(1.00, 0.00, -0.00, -1.00, 443.6, 1010.0)">a</text><text xml:space="preserve" font-family="Helvetica-Light,Helvetica" font-size="52.2" fill="#FEFFFE" transform="matrix(1.00, 0.00, -0.00, -1.00, 472.6, 1010.0)">b</text><text xml:space="preserve" font-family="Helvetica-Light,Helvetica" font-size="52.2" fill="#FEFFFE" transform="matrix(1.00, 0.00, -0.00, -1.00, 504.5, 1010.0)">i</text><text xml:space="preserve" font-family="Helvetica-Light,Helvetica" font-size="52.2" fill="#FEFFFE" transform="matrix(1.00, 0.00, -0.00, -1.00, 516.1, 1010.0)">l</text><text xml:space="preserve" font-family="Helvetica-Light,Helvetica" font-size="52.2" fill="#FEFFFE" transform="matrix(1.00, 0.00, -0.00, -1.00, 527.6, 1010.0)">i</text><text xml:space="preserve" font-family="Helvetica-Light,Helvetica" font-size="52.2" fill="#FEFFFE" transform="matrix(1.00, 0.00, -0.00, -1.00, 539.2, 1010.0)">t</text><text xml:space="preserve" font-family="Helvetica-Light,Helvetica" font-size="52.2" fill="#FEFFFE" transform="matrix(1.00, 0.00, -0.00, -1.00, 553.7, 1010.0)">y</text><text xml:space="preserve" font-family="Helvetica-Light,Helvetica" font-size="52.2" fill="#FEFFFE" transform="matrix(1.00, 0.00, -0.00, -1.00, 579.8, 1010.0)"> </text><text xml:space="preserve" font-family="Helvetica-Light,Helvetica" font-size="52.2" fill="#FEFFFE" transform="matrix(1.00, 0.00, -0.00, -1.00, 594.4, 1010.0)">T</text><text xml:space="preserve" font-family="Helvetica-Light,Helvetica" font-size="52.2" fill="#FEFFFE" transform="matrix(1.00, 0.00, -0.00, -1.00, 617.6, 1010.0)">e</text><text xml:space="preserve" font-family="Helvetica-Light,Helvetica" font-size="52.2" fill="#FEFFFE" transform="matrix(1.00, 0.00, -0.00, -1.00, 646.6, 1010.0)">s</text><text xml:space="preserve" font-family="Helvetica-Light,Helvetica" font-size="52.2" fill="#FEFFFE" transform="matrix(1.00, 0.00, -0.00, -1.00, 672.7, 1010.0)">t</text><text xml:space="preserve" font-family="Helvetica-Light,Helvetica" font-size="52.2" fill="#FEFFFE" transform="matrix(1.00, 0.00, -0.00, -1.00, 687.2, 1010.0)"> </text><text xml:space="preserve" font-family="Helvetica-Light,Helvetica" font-size="52.2" fill="#FEFFFE" transform="matrix(1.00, 0.00, -0.00, -1.00, 701.7, 1010.0)">:</text><text xml:space="preserve" font-family="Helvetica-Light,Helvetica" font-size="52.2" fill="#FEFFFE" transform="matrix(1.00, 0.00, -0.00, -1.00, 716.2, 1010.0)"> </text><text xml:space="preserve" font-family="Helvetica-Light,Helvetica" font-size="52.2" fill="#FEFFFE" transform="matrix(1.00, 0.00, -0.00, -1.00, 730.8, 1010.0)">C</text><text xml:space="preserve" font-family="Helvetica-Light,Helvetica" font-size="52.2" fill="#FEFFFE" transform="matrix(1.00, 0.00, -0.00, -1.00, 768.4, 1010.0)">o</text><text xml:space="preserve" font-family="Helvetica-Light,Helvetica" font-size="52.2" fill="#FEFFFE" transform="matrix(1.00, 0.00, -0.00, -1.00, 797.5, 1010.0)">n</text><text xml:space="preserve" font-family="Helvetica-Light,Helvetica" font-size="52.2" fill="#FEFFFE" transform="matrix(1.00, 0.00, -0.00, -1.00, 826.5, 1010.0)">t</text><text xml:space="preserve" font-family="Helvetica-Light,Helvetica" font-size="52.2" fill="#FEFFFE" transform="matrix(1.00, 0.00, -0.00, -1.00, 841.0, 1010.0)">r</text><text xml:space="preserve" font-family="Helvetica-Light,Helvetica" font-size="52.2" fill="#FEFFFE" transform="matrix(1.00, 0.00, -0.00, -1.00, 857.4, 1010.0)">o</text><text xml:space="preserve" font-family="Helvetica-Light,Helvetica" font-size="52.2" fill="#FEFFFE" transform="matrix(1.00, 0.00, -0.00, -1.00, 886.5, 1010.0)">l</text><text xml:space="preserve" font-family="Helvetica-Light,Helvetica" font-size="52.2" fill="#FEFFFE" transform="matrix(1.00, 0.00, -0.00, -1.00, 898.1, 1010.0)"> </text><text xml:space="preserve" font-family="Helvetica-Light,Helvetica" font-size="52.2" fill="#FEFFFE" transform="matrix(1.00, 0.00, -0.00, -1.00, 912.6, 1010.0)">S</text><text xml:space="preserve" font-family="Helvetica-Light,Helvetica" font-size="52.2" fill="#FEFFFE" transform="matrix(1.00, 0.00, -0.00, -1.00, 944.5, 1010.0)">e</text><text xml:space="preserve" font-family="Helvetica-Light,Helvetica" font-size="52.2" fill="#FEFFFE" transform="matrix(1.00, 0.00, -0.00, -1.00, 973.5, 1010.0)">t</text><text xml:space="preserve" font-family="Helvetica-Light,Helvetica" font-size="52.2" fill="#FEFFFE" transform="matrix(1.00, 0.00, -0.00, -1.00, 988.0, 1010.0)">u</text><text xml:space="preserve" font-family="Helvetica-Light,Helvetica" font-size="52.2" fill="#FEFFFE" transform="matrix(1.00, 0.00, -0.00, -1.00, 1017.0, 1010.0)">p</text><g><clipPath id="clip0x7f84af829a60"><path d="M 278.0 167.0 L 1642.0 167.0 L 1642.0 837.0 L 278.0 837.0 Z M 278.0 167.0 "></path></clipPath><g clip-path="url(#clip0x7f84af829a60)"><image xlink:href="../../DBDB22E5-F649-4580-8DA8-62B062016057/assets/1C1FC499810FA7132CAFC8B868338D2D.png" width="1400.00" height="689.00" transform="matrix(0.97, 0.00, -0.00, -0.97, 278.0, 837.0)"></image><text xml:space="preserve" font-family="Cambria,Cambria" font-size="12.0" fill="#000000" transform="matrix(3.02, 0.00, -0.00, -3.02, 1640.6, 167.0)">!</text></g></g></g></svg>