<?xml version="1.0" encoding="UTF-8" standalone="no"?><svg xmlns="http://www.w3.org/2000/svg" xmlns:xlink="http://www.w3.org/1999/xlink" clip-rule="evenodd" stroke-miterlimit="10" viewBox="0 0 1920 1080"><desc>SVG generated by Keynote</desc><defs></defs><g transform="matrix(1.00, 0.00, -0.00, -1.00, 0.0, 1080.0)"><path d="M 0.0 1080.0 L 1920.0 1080.0 L 1920.0 0.0 L 0.0 0.0 Z M 0.0 1080.0 " fill="#FEFFFF"></path><path d="M 0.0 1080.0 L 1920.0 1080.0 L 1920.0 980.0 L 0.0 980.0 Z M 0.0 1080.0 " fill="#5EBAFD"></path><text xml:space="preserve" font-family="Helvetica-Light,Helvetica" font-size="52.2" fill="#FEFFFE" transform="matrix(1.00, 0.00, -0.00, -1.00, 135.0, 1010.0)">P</text><text xml:space="preserve" font-family="Helvetica-Light,Helvetica" font-size="52.2" fill="#FEFFFE" transform="matrix(1.00, 0.00, -0.00, -1.00, 166.9, 1010.0)">o</text><text xml:space="preserve" font-family="Helvetica-Light,Helvetica" font-size="52.2" fill="#FEFFFE" transform="matrix(1.00, 0.00, -0.00, -1.00, 195.9, 1010.0)">t</text><text xml:space="preserve" font-family="Helvetica-Light,Helvetica" font-size="52.2" fill="#FEFFFE" transform="matrix(1.00, 0.00, -0.00, -1.00, 210.4, 1010.0)">a</text><text xml:space="preserve" font-family="Helvetica-Light,Helvetica" font-size="52.2" fill="#FEFFFE" transform="matrix(1.00, 0.00, -0.00, -1.00, 239.5, 1010.0)">t</text><text xml:space="preserve" font-family="Helvetica-Light,Helvetica" font-size="52.2" fill="#FEFFFE" transform="matrix(1.00, 0.00, -0.00, -1.00, 254.0, 1010.0)">o</text><text xml:space="preserve" font-family="Helvetica-Light,Helvetica" font-size="52.2" fill="#FEFFFE" transform="matrix(1.00, 0.00, -0.00, -1.00, 283.0, 1010.0)">r</text><text xml:space="preserve" font-family="Helvetica-Light,Helvetica" font-size="52.2" fill="#FEFFFE" transform="matrix(1.00, 0.00, -0.00, -1.00, 300.4, 1010.0)"> </text><text xml:space="preserve" font-family="Helvetica-Light,Helvetica" font-size="52.2" fill="#FEFFFE" transform="matrix(1.00, 0.00, -0.00, -1.00, 314.9, 1010.0)">A</text><text xml:space="preserve" font-family="Helvetica-Light,Helvetica" font-size="52.2" fill="#FEFFFE" transform="matrix(1.00, 0.00, -0.00, -1.00, 349.7, 1010.0)">u</text><text xml:space="preserve" font-family="Helvetica-Light,Helvetica" font-size="52.2" fill="#FEFFFE" transform="matrix(1.00, 0.00, -0.00, -1.00, 378.7, 1010.0)">t</text><text xml:space="preserve" font-family="Helvetica-Light,Helvetica" font-size="52.2" fill="#FEFFFE" transform="matrix(1.00, 0.00, -0.00, -1.00, 393.2, 1010.0)">h</text><text xml:space="preserve" font-family="Helvetica-Light,Helvetica" font-size="52.2" fill="#FEFFFE" transform="matrix(1.00, 0.00, -0.00, -1.00, 422.3, 1010.0)">o</text><text xml:space="preserve" font-family="Helvetica-Light,Helvetica" font-size="52.2" fill="#FEFFFE" transform="matrix(1.00, 0.00, -0.00, -1.00, 451.3, 1010.0)">r</text><text xml:space="preserve" font-family="Helvetica-Light,Helvetica" font-size="52.2" fill="#FEFFFE" transform="matrix(1.00, 0.00, -0.00, -1.00, 468.7, 1010.0)">i</text><text xml:space="preserve" font-family="Helvetica-Light,Helvetica" font-size="52.2" fill="#FEFFFE" transform="matrix(1.00, 0.00, -0.00, -1.00, 480.3, 1010.0)">z</text><text xml:space="preserve" font-family="Helvetica-Light,Helvetica" font-size="52.2" fill="#FEFFFE" transform="matrix(1.00, 0.00, -0.00, -1.00, 506.4, 1010.0)">a</text><text xml:space="preserve" font-family="Helvetica-Light,Helvetica" font-size="52.2" fill="#FEFFFE" transform="matrix(1.00, 0.00, -0.00, -1.00, 535.4, 1010.0)">t</text><text xml:space="preserve" font-family="Helvetica-Light,Helvetica" font-size="52.2" fill="#FEFFFE" transform="matrix(1.00, 0.00, -0.00, -1.00, 549.9, 1010.0)">i</text><text xml:space="preserve" font-family="Helvetica-Light,Helvetica" font-size="52.2" fill="#FEFFFE" transform="matrix(1.00, 0.00, -0.00, -1.00, 561.5, 1010.0)">o</text><text xml:space="preserve" font-family="Helvetica-Light,Helvetica" font-size="52.2" fill="#FEFFFE" transform="matrix(1.00, 0.00, -0.00, -1.00, 590.5, 1010.0)">n</text><text xml:space="preserve" font-family="Helvetica-Light,Helvetica" font-size="52.2" fill="#FEFFFE" transform="matrix(1.00, 0.00, -0.00, -1.00, 619.5, 1010.0)"> </text><text xml:space="preserve" font-family="Helvetica-Light,Helvetica" font-size="52.2" fill="#FEFFFE" transform="matrix(1.00, 0.00, -0.00, -1.00, 634.0, 1010.0)">T</text><text xml:space="preserve" font-family="Helvetica-Light,Helvetica" font-size="52.2" fill="#FEFFFE" transform="matrix(1.00, 0.00, -0.00, -1.00, 657.3, 1010.0)">e</text><text xml:space="preserve" font-family="Helvetica-Light,Helvetica" font-size="52.2" fill="#FEFFFE" transform="matrix(1.00, 0.00, -0.00, -1.00, 686.3, 1010.0)">s</text><text xml:space="preserve" font-family="Helvetica-Light,Helvetica" font-size="52.2" fill="#FEFFFE" transform="matrix(1.00, 0.00, -0.00, -1.00, 712.4, 1010.0)">t</text><g><clipPath id="clip0x7f84afc6c5a0"><path d="M 152.0 237.0 L 1768.0 237.0 L 1768.0 768.0 L 152.0 768.0 Z M 152.0 237.0 "></path></clipPath><g clip-path="url(#clip0x7f84afc6c5a0)"><path d="M 152.0 768.0 L 1768.0 768.0 L 1768.0 237.0 L 152.0 237.0 Z M 152.0 768.0 " fill="#FEFFFF" fill-opacity="0.00"></path></g></g><g><clipPath id="clip0x7f84afc6d7a0"><path d="M 152.0 237.0 L 1768.0 237.0 L 1768.0 768.0 L 152.0 768.0 Z M 152.0 237.0 "></path></clipPath><g clip-path="url(#clip0x7f84afc6d7a0)"><image xlink:href="D9B48EA0BC7A36A31F96BFF6D9ADE12C.png" width="752.00" height="247.00" transform="matrix(2.15, 0.00, -0.00, -2.15, 152.0, 768.0)"></image></g></g></g></svg>