<?xml version="1.0" encoding="UTF-8" standalone="no"?><svg xmlns="http://www.w3.org/2000/svg" xmlns:xlink="http://www.w3.org/1999/xlink" clip-rule="evenodd" stroke-miterlimit="10" viewBox="0 0 1920 1080"><desc>SVG generated by Keynote</desc><defs></defs><g transform="matrix(1.00, 0.00, -0.00, -1.00, 0.0, 1080.0)"><path d="M 0.0 1080.0 L 1920.0 1080.0 L 1920.0 0.0 L 0.0 0.0 Z M 0.0 1080.0 " fill="#FEFFFF"></path><path d="M 0.0 1080.0 L 1920.0 1080.0 L 1920.0 0.0 L 0.0 0.0 Z M 0.0 1080.0 " fill="#EB5C56"></path><text xml:space="preserve" font-family="Helvetica-Light,Helvetica" font-size="84.0" fill="#FEFFFE" transform="matrix(1.00, 0.00, -0.00, -1.00, 211.4, 660.3)">T</text><text xml:space="preserve" font-family="Helvetica-Light,Helvetica" font-size="84.0" fill="#FEFFFE" transform="matrix(1.00, 0.00, -0.00, -1.00, 258.1, 660.3)">h</text><text xml:space="preserve" font-family="Helvetica-Light,Helvetica" font-size="84.0" fill="#FEFFFE" transform="matrix(1.00, 0.00, -0.00, -1.00, 304.8, 660.3)">e</text><text xml:space="preserve" font-family="Helvetica-Light,Helvetica" font-size="84.0" fill="#FEFFFE" transform="matrix(1.00, 0.00, -0.00, -1.00, 351.5, 660.3)"> </text><text xml:space="preserve" font-family="Helvetica-Light,Helvetica" font-size="84.0" fill="#FEFFFE" transform="matrix(1.00, 0.00, -0.00, -1.00, 374.9, 660.3)">c</text><text xml:space="preserve" font-family="Helvetica-Light,Helvetica" font-size="84.0" fill="#FEFFFE" transform="matrix(1.00, 0.00, -0.00, -1.00, 421.6, 660.3)">u</text><text xml:space="preserve" font-family="Helvetica-Light,Helvetica" font-size="84.0" fill="#FEFFFE" transform="matrix(1.00, 0.00, -0.00, -1.00, 468.3, 660.3)">r</text><text xml:space="preserve" font-family="Helvetica-Light,Helvetica" font-size="84.0" fill="#FEFFFE" transform="matrix(1.00, 0.00, -0.00, -1.00, 496.3, 660.3)">r</text><text xml:space="preserve" font-family="Helvetica-Light,Helvetica" font-size="84.0" fill="#FEFFFE" transform="matrix(1.00, 0.00, -0.00, -1.00, 522.7, 660.3)">e</text><text xml:space="preserve" font-family="Helvetica-Light,Helvetica" font-size="84.0" fill="#FEFFFE" transform="matrix(1.00, 0.00, -0.00, -1.00, 569.4, 660.3)">n</text><text xml:space="preserve" font-family="Helvetica-Light,Helvetica" font-size="84.0" fill="#FEFFFE" transform="matrix(1.00, 0.00, -0.00, -1.00, 616.1, 660.3)">t</text><text xml:space="preserve" font-family="Helvetica-Light,Helvetica" font-size="84.0" fill="#FEFFFE" transform="matrix(1.00, 0.00, -0.00, -1.00, 639.5, 660.3)"> </text><text xml:space="preserve" font-family="Helvetica-Light,Helvetica" font-size="84.0" fill="#FEFFFE" transform="matrix(1.00, 0.00, -0.00, -1.00, 662.8, 660.3)">i</text><text xml:space="preserve" font-family="Helvetica-Light,Helvetica" font-size="84.0" fill="#FEFFFE" transform="matrix(1.00, 0.00, -0.00, -1.00, 681.5, 660.3)">m</text><text xml:space="preserve" font-family="Helvetica-Light,Helvetica" font-size="84.0" fill="#FEFFFE" transform="matrix(1.00, 0.00, -0.00, -1.00, 751.5, 660.3)">p</text><text xml:space="preserve" font-family="Helvetica-Light,Helvetica" font-size="84.0" fill="#FEFFFE" transform="matrix(1.00, 0.00, -0.00, -1.00, 802.8, 660.3)">l</text><text xml:space="preserve" font-family="Helvetica-Light,Helvetica" font-size="84.0" fill="#FEFFFE" transform="matrix(1.00, 0.00, -0.00, -1.00, 821.4, 660.3)">e</text><text xml:space="preserve" font-family="Helvetica-Light,Helvetica" font-size="84.0" fill="#FEFFFE" transform="matrix(1.00, 0.00, -0.00, -1.00, 868.1, 660.3)">m</text><text xml:space="preserve" font-family="Helvetica-Light,Helvetica" font-size="84.0" fill="#FEFFFE" transform="matrix(1.00, 0.00, -0.00, -1.00, 938.1, 660.3)">e</text><text xml:space="preserve" font-family="Helvetica-Light,Helvetica" font-size="84.0" fill="#FEFFFE" transform="matrix(1.00, 0.00, -0.00, -1.00, 984.8, 660.3)">n</text><text xml:space="preserve" font-family="Helvetica-Light,Helvetica" font-size="84.0" fill="#FEFFFE" transform="matrix(1.00, 0.00, -0.00, -1.00, 1031.5, 660.3)">t</text><text xml:space="preserve" font-family="Helvetica-Light,Helvetica" font-size="84.0" fill="#FEFFFE" transform="matrix(1.00, 0.00, -0.00, -1.00, 1054.9, 660.3)">a</text><text xml:space="preserve" font-family="Helvetica-Light,Helvetica" font-size="84.0" fill="#FEFFFE" transform="matrix(1.00, 0.00, -0.00, -1.00, 1101.6, 660.3)">t</text><text xml:space="preserve" font-family="Helvetica-Light,Helvetica" font-size="84.0" fill="#FEFFFE" transform="matrix(1.00, 0.00, -0.00, -1.00, 1124.9, 660.3)">i</text><text xml:space="preserve" font-family="Helvetica-Light,Helvetica" font-size="84.0" fill="#FEFFFE" transform="matrix(1.00, 0.00, -0.00, -1.00, 1143.6, 660.3)">o</text><text xml:space="preserve" font-family="Helvetica-Light,Helvetica" font-size="84.0" fill="#FEFFFE" transform="matrix(1.00, 0.00, -0.00, -1.00, 1190.3, 660.3)">n</text><text xml:space="preserve" font-family="Helvetica-Light,Helvetica" font-size="84.0" fill="#FEFFFE" transform="matrix(1.00, 0.00, -0.00, -1.00, 1237.0, 660.3)"> </text><text xml:space="preserve" font-family="Helvetica-Light,Helvetica" font-size="84.0" fill="#FEFFFE" transform="matrix(1.00, 0.00, -0.00, -1.00, 1260.3, 660.3)">o</text><text xml:space="preserve" font-family="Helvetica-Light,Helvetica" font-size="84.0" fill="#FEFFFE" transform="matrix(1.00, 0.00, -0.00, -1.00, 1307.0, 660.3)">f</text><text xml:space="preserve" font-family="Helvetica-Light,Helvetica" font-size="84.0" fill="#FEFFFE" transform="matrix(1.00, 0.00, -0.00, -1.00, 1330.4, 660.3)"> </text><text xml:space="preserve" font-family="Helvetica-Light,Helvetica" font-size="84.0" fill="#FEFFFE" transform="matrix(1.00, 0.00, -0.00, -1.00, 1353.7, 660.3)">O</text><text xml:space="preserve" font-family="Helvetica-Light,Helvetica" font-size="84.0" fill="#FEFFFE" transform="matrix(1.00, 0.00, -0.00, -1.00, 1419.1, 660.3)">n</text><text xml:space="preserve" font-family="Helvetica-Light,Helvetica" font-size="84.0" fill="#FEFFFE" transform="matrix(1.00, 0.00, -0.00, -1.00, 1465.8, 660.3)">i</text><text xml:space="preserve" font-family="Helvetica-Light,Helvetica" font-size="84.0" fill="#FEFFFE" transform="matrix(1.00, 0.00, -0.00, -1.00, 1484.5, 660.3)">o</text><text xml:space="preserve" font-family="Helvetica-Light,Helvetica" font-size="84.0" fill="#FEFFFE" transform="matrix(1.00, 0.00, -0.00, -1.00, 1531.2, 660.3)">n</text><text xml:space="preserve" font-family="Helvetica-Light,Helvetica" font-size="84.0" fill="#FEFFFE" transform="matrix(1.00, 0.00, -0.00, -1.00, 1577.9, 660.3)">C</text><text xml:space="preserve" font-family="Helvetica-Light,Helvetica" font-size="84.0" fill="#FEFFFE" transform="matrix(1.00, 0.00, -0.00, -1.00, 1638.5, 660.3)">a</text><text xml:space="preserve" font-family="Helvetica-Light,Helvetica" font-size="84.0" fill="#FEFFFE" transform="matrix(1.00, 0.00, -0.00, -1.00, 1685.2, 660.3)">t</text><text xml:space="preserve" font-family="Helvetica-Light,Helvetica" font-size="84.0" fill="#FEFFFE" transform="matrix(1.00, 0.00, -0.00, -1.00, 1708.6, 660.3)"> </text><text xml:space="preserve" font-family="Helvetica-Light,Helvetica" font-size="84.0" fill="#FEFFFE" transform="matrix(1.00, 0.00, -0.00, -1.00, 266.7, 559.3)">h</text><text xml:space="preserve" font-family="Helvetica-Light,Helvetica" font-size="84.0" fill="#FEFFFE" transform="matrix(1.00, 0.00, -0.00, -1.00, 313.5, 559.3)">i</text><text xml:space="preserve" font-family="Helvetica-Light,Helvetica" font-size="84.0" fill="#FEFFFE" transform="matrix(1.00, 0.00, -0.00, -1.00, 332.1, 559.3)">g</text><text xml:space="preserve" font-family="Helvetica-Light,Helvetica" font-size="84.0" fill="#FEFFFE" transform="matrix(1.00, 0.00, -0.00, -1.00, 383.4, 559.3)">h</text><text xml:space="preserve" font-family="Helvetica-Light,Helvetica" font-size="84.0" fill="#FEFFFE" transform="matrix(1.00, 0.00, -0.00, -1.00, 430.1, 559.3)">l</text><text xml:space="preserve" font-family="Helvetica-Light,Helvetica" font-size="84.0" fill="#FEFFFE" transform="matrix(1.00, 0.00, -0.00, -1.00, 448.8, 559.3)">y</text><text xml:space="preserve" font-family="Helvetica-Light,Helvetica" font-size="84.0" fill="#FEFFFE" transform="matrix(1.00, 0.00, -0.00, -1.00, 490.8, 559.3)"> </text><text xml:space="preserve" font-family="Helvetica-Light,Helvetica" font-size="84.0" fill="#FEFFFE" transform="matrix(1.00, 0.00, -0.00, -1.00, 514.1, 559.3)">d</text><text xml:space="preserve" font-family="Helvetica-Light,Helvetica" font-size="84.0" fill="#FEFFFE" transform="matrix(1.00, 0.00, -0.00, -1.00, 565.5, 559.3)">e</text><text xml:space="preserve" font-family="Helvetica-Light,Helvetica" font-size="84.0" fill="#FEFFFE" transform="matrix(1.00, 0.00, -0.00, -1.00, 612.2, 559.3)">p</text><text xml:space="preserve" font-family="Helvetica-Light,Helvetica" font-size="84.0" fill="#FEFFFE" transform="matrix(1.00, 0.00, -0.00, -1.00, 663.5, 559.3)">e</text><text xml:space="preserve" font-family="Helvetica-Light,Helvetica" font-size="84.0" fill="#FEFFFE" transform="matrix(1.00, 0.00, -0.00, -1.00, 710.2, 559.3)">n</text><text xml:space="preserve" font-family="Helvetica-Light,Helvetica" font-size="84.0" fill="#FEFFFE" transform="matrix(1.00, 0.00, -0.00, -1.00, 756.9, 559.3)">d</text><text xml:space="preserve" font-family="Helvetica-Light,Helvetica" font-size="84.0" fill="#FEFFFE" transform="matrix(1.00, 0.00, -0.00, -1.00, 808.2, 559.3)">s</text><text xml:space="preserve" font-family="Helvetica-Light,Helvetica" font-size="84.0" fill="#FEFFFE" transform="matrix(1.00, 0.00, -0.00, -1.00, 850.2, 559.3)"> </text><text xml:space="preserve" font-family="Helvetica-Light,Helvetica" font-size="84.0" fill="#FEFFFE" transform="matrix(1.00, 0.00, -0.00, -1.00, 873.6, 559.3)">o</text><text xml:space="preserve" font-family="Helvetica-Light,Helvetica" font-size="84.0" fill="#FEFFFE" transform="matrix(1.00, 0.00, -0.00, -1.00, 920.3, 559.3)">n</text><text xml:space="preserve" font-family="Helvetica-Light,Helvetica" font-size="84.0" fill="#FEFFFE" transform="matrix(1.00, 0.00, -0.00, -1.00, 967.0, 559.3)"> </text><text xml:space="preserve" font-family="Helvetica-Light,Helvetica" font-size="84.0" fill="#FEFFFE" transform="matrix(1.00, 0.00, -0.00, -1.00, 990.3, 559.3)">t</text><text xml:space="preserve" font-family="Helvetica-Light,Helvetica" font-size="84.0" fill="#FEFFFE" transform="matrix(1.00, 0.00, -0.00, -1.00, 1013.7, 559.3)">h</text><text xml:space="preserve" font-family="Helvetica-Light,Helvetica" font-size="84.0" fill="#FEFFFE" transform="matrix(1.00, 0.00, -0.00, -1.00, 1060.4, 559.3)">e</text><text xml:space="preserve" font-family="Helvetica-Light,Helvetica" font-size="84.0" fill="#FEFFFE" transform="matrix(1.00, 0.00, -0.00, -1.00, 1107.1, 559.3)"> </text><text xml:space="preserve" font-family="Helvetica-Light,Helvetica" font-size="84.0" fill="#FEFFFE" transform="matrix(1.00, 0.00, -0.00, -1.00, 1130.4, 559.3)">f</text><text xml:space="preserve" font-family="Helvetica-Light,Helvetica" font-size="84.0" fill="#FEFFFE" transform="matrix(1.00, 0.00, -0.00, -1.00, 1153.8, 559.3)">o</text><text xml:space="preserve" font-family="Helvetica-Light,Helvetica" font-size="84.0" fill="#FEFFFE" transform="matrix(1.00, 0.00, -0.00, -1.00, 1200.5, 559.3)">r</text><text xml:space="preserve" font-family="Helvetica-Light,Helvetica" font-size="84.0" fill="#FEFFFE" transform="matrix(1.00, 0.00, -0.00, -1.00, 1230.0, 559.3)">m</text><text xml:space="preserve" font-family="Helvetica-Light,Helvetica" font-size="84.0" fill="#FEFFFE" transform="matrix(1.00, 0.00, -0.00, -1.00, 1299.9, 559.3)">a</text><text xml:space="preserve" font-family="Helvetica-Light,Helvetica" font-size="84.0" fill="#FEFFFE" transform="matrix(1.00, 0.00, -0.00, -1.00, 1346.7, 559.3)">t</text><text xml:space="preserve" font-family="Helvetica-Light,Helvetica" font-size="84.0" fill="#FEFFFE" transform="matrix(1.00, 0.00, -0.00, -1.00, 1370.0, 559.3)"> </text><text xml:space="preserve" font-family="Helvetica-Light,Helvetica" font-size="84.0" fill="#FEFFFE" transform="matrix(1.00, 0.00, -0.00, -1.00, 1393.4, 559.3)">o</text><text xml:space="preserve" font-family="Helvetica-Light,Helvetica" font-size="84.0" fill="#FEFFFE" transform="matrix(1.00, 0.00, -0.00, -1.00, 1440.1, 559.3)">f</text><text xml:space="preserve" font-family="Helvetica-Light,Helvetica" font-size="84.0" fill="#FEFFFE" transform="matrix(1.00, 0.00, -0.00, -1.00, 1463.4, 559.3)"> </text><text xml:space="preserve" font-family="Helvetica-Light,Helvetica" font-size="84.0" fill="#FEFFFE" transform="matrix(1.00, 0.00, -0.00, -1.00, 1486.8, 559.3)">T</text><text xml:space="preserve" font-family="Helvetica-Light,Helvetica" font-size="84.0" fill="#FEFFFE" transform="matrix(1.00, 0.00, -0.00, -1.00, 1524.1, 559.3)">o</text><text xml:space="preserve" font-family="Helvetica-Light,Helvetica" font-size="84.0" fill="#FEFFFE" transform="matrix(1.00, 0.00, -0.00, -1.00, 1570.8, 559.3)">r</text><text xml:space="preserve" font-family="Helvetica-Light,Helvetica" font-size="84.0" fill="#FEFFFE" transform="matrix(1.00, 0.00, -0.00, -1.00, 1598.8, 559.3)">’</text><text xml:space="preserve" font-family="Helvetica-Light,Helvetica" font-size="84.0" fill="#FEFFFE" transform="matrix(1.00, 0.00, -0.00, -1.00, 1611.3, 559.3)">s</text><text xml:space="preserve" font-family="Helvetica-Light,Helvetica" font-size="84.0" fill="#FEFFFE" transform="matrix(1.00, 0.00, -0.00, -1.00, 1653.3, 559.3)"> </text><text xml:space="preserve" font-family="Helvetica-Light,Helvetica" font-size="84.0" fill="#FEFFFE" transform="matrix(1.00, 0.00, -0.00, -1.00, 179.6, 458.3)">e</text><text xml:space="preserve" font-family="Helvetica-Light,Helvetica" font-size="84.0" fill="#FEFFFE" transform="matrix(1.00, 0.00, -0.00, -1.00, 226.3, 458.3)">n</text><text xml:space="preserve" font-family="Helvetica-Light,Helvetica" font-size="84.0" fill="#FEFFFE" transform="matrix(1.00, 0.00, -0.00, -1.00, 273.0, 458.3)">c</text><text xml:space="preserve" font-family="Helvetica-Light,Helvetica" font-size="84.0" fill="#FEFFFE" transform="matrix(1.00, 0.00, -0.00, -1.00, 319.8, 458.3)">r</text><text xml:space="preserve" font-family="Helvetica-Light,Helvetica" font-size="84.0" fill="#FEFFFE" transform="matrix(1.00, 0.00, -0.00, -1.00, 349.2, 458.3)">y</text><text xml:space="preserve" font-family="Helvetica-Light,Helvetica" font-size="84.0" fill="#FEFFFE" transform="matrix(1.00, 0.00, -0.00, -1.00, 391.2, 458.3)">p</text><text xml:space="preserve" font-family="Helvetica-Light,Helvetica" font-size="84.0" fill="#FEFFFE" transform="matrix(1.00, 0.00, -0.00, -1.00, 442.6, 458.3)">t</text><text xml:space="preserve" font-family="Helvetica-Light,Helvetica" font-size="84.0" fill="#FEFFFE" transform="matrix(1.00, 0.00, -0.00, -1.00, 465.9, 458.3)">i</text><text xml:space="preserve" font-family="Helvetica-Light,Helvetica" font-size="84.0" fill="#FEFFFE" transform="matrix(1.00, 0.00, -0.00, -1.00, 484.6, 458.3)">o</text><text xml:space="preserve" font-family="Helvetica-Light,Helvetica" font-size="84.0" fill="#FEFFFE" transform="matrix(1.00, 0.00, -0.00, -1.00, 531.3, 458.3)">n</text><text xml:space="preserve" font-family="Helvetica-Light,Helvetica" font-size="84.0" fill="#FEFFFE" transform="matrix(1.00, 0.00, -0.00, -1.00, 578.0, 458.3)"> </text><text xml:space="preserve" font-family="Helvetica-Light,Helvetica" font-size="84.0" fill="#FEFFFE" transform="matrix(1.00, 0.00, -0.00, -1.00, 601.3, 458.3)">m</text><text xml:space="preserve" font-family="Helvetica-Light,Helvetica" font-size="84.0" fill="#FEFFFE" transform="matrix(1.00, 0.00, -0.00, -1.00, 671.3, 458.3)">e</text><text xml:space="preserve" font-family="Helvetica-Light,Helvetica" font-size="84.0" fill="#FEFFFE" transform="matrix(1.00, 0.00, -0.00, -1.00, 718.0, 458.3)">t</text><text xml:space="preserve" font-family="Helvetica-Light,Helvetica" font-size="84.0" fill="#FEFFFE" transform="matrix(1.00, 0.00, -0.00, -1.00, 741.3, 458.3)">h</text><text xml:space="preserve" font-family="Helvetica-Light,Helvetica" font-size="84.0" fill="#FEFFFE" transform="matrix(1.00, 0.00, -0.00, -1.00, 788.1, 458.3)">o</text><text xml:space="preserve" font-family="Helvetica-Light,Helvetica" font-size="84.0" fill="#FEFFFE" transform="matrix(1.00, 0.00, -0.00, -1.00, 834.8, 458.3)">d</text><text xml:space="preserve" font-family="Helvetica-Light,Helvetica" font-size="84.0" fill="#FEFFFE" transform="matrix(1.00, 0.00, -0.00, -1.00, 886.1, 458.3)"> </text><text xml:space="preserve" font-family="Helvetica-Light,Helvetica" font-size="84.0" fill="#FEFFFE" transform="matrix(1.00, 0.00, -0.00, -1.00, 909.4, 458.3)">w</text><text xml:space="preserve" font-family="Helvetica-Light,Helvetica" font-size="84.0" fill="#FEFFFE" transform="matrix(1.00, 0.00, -0.00, -1.00, 970.1, 458.3)">h</text><text xml:space="preserve" font-family="Helvetica-Light,Helvetica" font-size="84.0" fill="#FEFFFE" transform="matrix(1.00, 0.00, -0.00, -1.00, 1016.8, 458.3)">i</text><text xml:space="preserve" font-family="Helvetica-Light,Helvetica" font-size="84.0" fill="#FEFFFE" transform="matrix(1.00, 0.00, -0.00, -1.00, 1035.4, 458.3)">c</text><text xml:space="preserve" font-family="Helvetica-Light,Helvetica" font-size="84.0" fill="#FEFFFE" transform="matrix(1.00, 0.00, -0.00, -1.00, 1082.1, 458.3)">h</text><text xml:space="preserve" font-family="Helvetica-Light,Helvetica" font-size="84.0" fill="#FEFFFE" transform="matrix(1.00, 0.00, -0.00, -1.00, 1128.8, 458.3)">,</text><text xml:space="preserve" font-family="Helvetica-Light,Helvetica" font-size="84.0" fill="#FEFFFE" transform="matrix(1.00, 0.00, -0.00, -1.00, 1152.2, 458.3)"> </text><text xml:space="preserve" font-family="Helvetica-Light,Helvetica" font-size="84.0" fill="#FEFFFE" transform="matrix(1.00, 0.00, -0.00, -1.00, 1175.5, 458.3)">i</text><text xml:space="preserve" font-family="Helvetica-Light,Helvetica" font-size="84.0" fill="#FEFFFE" transform="matrix(1.00, 0.00, -0.00, -1.00, 1194.2, 458.3)">f</text><text xml:space="preserve" font-family="Helvetica-Light,Helvetica" font-size="84.0" fill="#FEFFFE" transform="matrix(1.00, 0.00, -0.00, -1.00, 1217.5, 458.3)"> </text><text xml:space="preserve" font-family="Helvetica-Light,Helvetica" font-size="84.0" fill="#FEFFFE" transform="matrix(1.00, 0.00, -0.00, -1.00, 1240.9, 458.3)">c</text><text xml:space="preserve" font-family="Helvetica-Light,Helvetica" font-size="84.0" fill="#FEFFFE" transform="matrix(1.00, 0.00, -0.00, -1.00, 1287.6, 458.3)">h</text><text xml:space="preserve" font-family="Helvetica-Light,Helvetica" font-size="84.0" fill="#FEFFFE" transform="matrix(1.00, 0.00, -0.00, -1.00, 1334.3, 458.3)">a</text><text xml:space="preserve" font-family="Helvetica-Light,Helvetica" font-size="84.0" fill="#FEFFFE" transform="matrix(1.00, 0.00, -0.00, -1.00, 1381.0, 458.3)">n</text><text xml:space="preserve" font-family="Helvetica-Light,Helvetica" font-size="84.0" fill="#FEFFFE" transform="matrix(1.00, 0.00, -0.00, -1.00, 1427.7, 458.3)">g</text><text xml:space="preserve" font-family="Helvetica-Light,Helvetica" font-size="84.0" fill="#FEFFFE" transform="matrix(1.00, 0.00, -0.00, -1.00, 1479.0, 458.3)">e</text><text xml:space="preserve" font-family="Helvetica-Light,Helvetica" font-size="84.0" fill="#FEFFFE" transform="matrix(1.00, 0.00, -0.00, -1.00, 1525.7, 458.3)">d</text><text xml:space="preserve" font-family="Helvetica-Light,Helvetica" font-size="84.0" fill="#FEFFFE" transform="matrix(1.00, 0.00, -0.00, -1.00, 1577.1, 458.3)">,</text><text xml:space="preserve" font-family="Helvetica-Light,Helvetica" font-size="84.0" fill="#FEFFFE" transform="matrix(1.00, 0.00, -0.00, -1.00, 1600.4, 458.3)"> </text><text xml:space="preserve" font-family="Helvetica-Light,Helvetica" font-size="84.0" fill="#FEFFFE" transform="matrix(1.00, 0.00, -0.00, -1.00, 1623.8, 458.3)">w</text><text xml:space="preserve" font-family="Helvetica-Light,Helvetica" font-size="84.0" fill="#FEFFFE" transform="matrix(1.00, 0.00, -0.00, -1.00, 1684.4, 458.3)">i</text><text xml:space="preserve" font-family="Helvetica-Light,Helvetica" font-size="84.0" fill="#FEFFFE" transform="matrix(1.00, 0.00, -0.00, -1.00, 1703.1, 458.3)">l</text><text xml:space="preserve" font-family="Helvetica-Light,Helvetica" font-size="84.0" fill="#FEFFFE" transform="matrix(1.00, 0.00, -0.00, -1.00, 1721.7, 458.3)">l</text><text xml:space="preserve" font-family="Helvetica-Light,Helvetica" font-size="84.0" fill="#FEFFFE" transform="matrix(1.00, 0.00, -0.00, -1.00, 1740.4, 458.3)"> </text><text xml:space="preserve" font-family="Helvetica,Helvetica" font-size="84.0" fill="#FEFFFE" transform="matrix(1.00, 0.00, -0.00, -1.00, 374.0, 357.3)">r</text><text xml:space="preserve" font-family="Helvetica,Helvetica" font-size="84.0" fill="#FEFFFE" transform="matrix(1.00, 0.00, -0.00, -1.00, 401.9, 357.3)">e</text><text xml:space="preserve" font-family="Helvetica,Helvetica" font-size="84.0" fill="#FEFFFE" transform="matrix(1.00, 0.00, -0.00, -1.00, 448.7, 357.3)">n</text><text xml:space="preserve" font-family="Helvetica,Helvetica" font-size="84.0" fill="#FEFFFE" transform="matrix(1.00, 0.00, -0.00, -1.00, 495.4, 357.3)">d</text><text xml:space="preserve" font-family="Helvetica,Helvetica" font-size="84.0" fill="#FEFFFE" transform="matrix(1.00, 0.00, -0.00, -1.00, 542.1, 357.3)">e</text><text xml:space="preserve" font-family="Helvetica,Helvetica" font-size="84.0" fill="#FEFFFE" transform="matrix(1.00, 0.00, -0.00, -1.00, 588.9, 357.3)">r</text><text xml:space="preserve" font-family="Helvetica,Helvetica" font-size="84.0" fill="#FEFFFE" transform="matrix(1.00, 0.00, -0.00, -1.00, 616.8, 357.3)"> </text><text xml:space="preserve" font-family="Helvetica,Helvetica" font-size="84.0" fill="#FEFFFE" transform="matrix(1.00, 0.00, -0.00, -1.00, 640.2, 357.3)">O</text><text xml:space="preserve" font-family="Helvetica,Helvetica" font-size="84.0" fill="#FEFFFE" transform="matrix(1.00, 0.00, -0.00, -1.00, 705.5, 357.3)">n</text><text xml:space="preserve" font-family="Helvetica,Helvetica" font-size="84.0" fill="#FEFFFE" transform="matrix(1.00, 0.00, -0.00, -1.00, 752.2, 357.3)">i</text><text xml:space="preserve" font-family="Helvetica,Helvetica" font-size="84.0" fill="#FEFFFE" transform="matrix(1.00, 0.00, -0.00, -1.00, 770.9, 357.3)">o</text><text xml:space="preserve" font-family="Helvetica,Helvetica" font-size="84.0" fill="#FEFFFE" transform="matrix(1.00, 0.00, -0.00, -1.00, 817.6, 357.3)">n</text><text xml:space="preserve" font-family="Helvetica,Helvetica" font-size="84.0" fill="#FEFFFE" transform="matrix(1.00, 0.00, -0.00, -1.00, 864.4, 357.3)">C</text><text xml:space="preserve" font-family="Helvetica,Helvetica" font-size="84.0" fill="#FEFFFE" transform="matrix(1.00, 0.00, -0.00, -1.00, 925.0, 357.3)">a</text><text xml:space="preserve" font-family="Helvetica,Helvetica" font-size="84.0" fill="#FEFFFE" transform="matrix(1.00, 0.00, -0.00, -1.00, 971.8, 357.3)">t</text><text xml:space="preserve" font-family="Helvetica,Helvetica" font-size="84.0" fill="#FEFFFE" transform="matrix(1.00, 0.00, -0.00, -1.00, 995.1, 357.3)"> </text><text xml:space="preserve" font-family="Helvetica,Helvetica" font-size="84.0" fill="#FEFFFE" transform="matrix(1.00, 0.00, -0.00, -1.00, 1018.4, 357.3)">n</text><text xml:space="preserve" font-family="Helvetica,Helvetica" font-size="84.0" fill="#FEFFFE" transform="matrix(1.00, 0.00, -0.00, -1.00, 1065.2, 357.3)">o</text><text xml:space="preserve" font-family="Helvetica,Helvetica" font-size="84.0" fill="#FEFFFE" transform="matrix(1.00, 0.00, -0.00, -1.00, 1111.9, 357.3)">n</text><text xml:space="preserve" font-family="Helvetica,Helvetica" font-size="84.0" fill="#FEFFFE" transform="matrix(1.00, 0.00, -0.00, -1.00, 1158.6, 357.3)">-</text><text xml:space="preserve" font-family="Helvetica,Helvetica" font-size="84.0" fill="#FEFFFE" transform="matrix(1.00, 0.00, -0.00, -1.00, 1186.6, 357.3)">f</text><text xml:space="preserve" font-family="Helvetica,Helvetica" font-size="84.0" fill="#FEFFFE" transform="matrix(1.00, 0.00, -0.00, -1.00, 1209.9, 357.3)">u</text><text xml:space="preserve" font-family="Helvetica,Helvetica" font-size="84.0" fill="#FEFFFE" transform="matrix(1.00, 0.00, -0.00, -1.00, 1256.7, 357.3)">n</text><text xml:space="preserve" font-family="Helvetica,Helvetica" font-size="84.0" fill="#FEFFFE" transform="matrix(1.00, 0.00, -0.00, -1.00, 1303.4, 357.3)">c</text><text xml:space="preserve" font-family="Helvetica,Helvetica" font-size="84.0" fill="#FEFFFE" transform="matrix(1.00, 0.00, -0.00, -1.00, 1345.4, 357.3)">t</text><text xml:space="preserve" font-family="Helvetica,Helvetica" font-size="84.0" fill="#FEFFFE" transform="matrix(1.00, 0.00, -0.00, -1.00, 1368.7, 357.3)">i</text><text xml:space="preserve" font-family="Helvetica,Helvetica" font-size="84.0" fill="#FEFFFE" transform="matrix(1.00, 0.00, -0.00, -1.00, 1387.4, 357.3)">o</text><text xml:space="preserve" font-family="Helvetica,Helvetica" font-size="84.0" fill="#FEFFFE" transform="matrix(1.00, 0.00, -0.00, -1.00, 1434.1, 357.3)">n</text><text xml:space="preserve" font-family="Helvetica,Helvetica" font-size="84.0" fill="#FEFFFE" transform="matrix(1.00, 0.00, -0.00, -1.00, 1480.9, 357.3)">a</text><text xml:space="preserve" font-family="Helvetica,Helvetica" font-size="84.0" fill="#FEFFFE" transform="matrix(1.00, 0.00, -0.00, -1.00, 1527.6, 357.3)">l</text></g></svg>